<?xml version="1.0" encoding="utf-8"?>
<!-- Generator: Adobe Illustrator 24.3.0, SVG Export Plug-In . SVG Version: 6.00 Build 0)  -->
<svg version="1.1" id="レイヤー_1" xmlns="http://www.w3.org/2000/svg" xmlns:xlink="http://www.w3.org/1999/xlink" x="0px"
	 y="0px" viewBox="0 0 56.7 255.1" style="enable-background:new 0 0 56.7 255.1;" xml:space="preserve">
<style type="text/css">
	.st0{fill:#C33333;}
	.st1{enable-background:new    ;}
</style>
<g id="グループ_23" transform="translate(-636.396 -941.958)">
	<g id="グループ_16" transform="translate(534.857 808.752)">
		<path id="パス_117" class="st0" d="M129.9,133.2c-1.7,0-3.3,0.2-4.9,0.7c-0.5,0.1-1,0.2-1.5,0.5c-5.2,1.9-9.1,6.2-10.3,11.6
			c-0.2,0.5-0.3,1-0.3,1.6c-0.1,0.8-0.2,1.7-0.2,2.5c0,1,0.1,2,0.3,3c0.4,3.6,17.4,8.2,23.7,8.2c0.5,0,1,0,1.5-0.1
			c5.3-0.8,8.8-5.1,8.8-11C147.1,141.7,141.2,133.2,129.9,133.2z M138.1,159.7c-0.4,0.1-0.9,0.1-1.3,0.1c-7.6,0-21.9-5.1-22.2-6.9
			c-0.2-0.9-0.3-1.8-0.3-2.7s0.1-1.9,0.2-2.8c0-0.3,0.1-0.5,0.2-0.8s0.1-0.6,0.2-0.8c1.2-4.5,4.4-8.1,8.7-9.8
			c0.2-0.1,0.5-0.2,0.7-0.3s0.5-0.2,0.7-0.2c1.6-0.4,3.2-0.7,4.8-0.7c7.8,0,15.7,5.3,15.7,15.4C145.6,155.3,142.7,159,138.1,159.7
			L138.1,159.7z"/>
		<path id="パス_118" class="st0" d="M123.7,146.4c-3.9,0-6.2,1.8-6.2,4.8c0,0.3,0.2,0.6,0.5,0.7c5.8,2.6,11.9,4.3,18.2,5.1h0.1
			c0.2,0,0.4-0.1,0.6-0.2c0.2-0.2,0.2-0.4,0.2-0.6C135.8,150.1,129.2,146.4,123.7,146.4z"/>
	</g>
</g>
<g class="st1">
	<path class="st0" d="M26.2,44.9c0.4-0.6,1-1.2,1.8-1.8c0.3-0.2,0.4-0.3,0.5-0.3c0,0,0,0,0,0c0,0.1-0.2,0.3-0.3,0.5
		c-0.2,0.2-0.5,0.6-0.8,1c0.5-0.2,1-0.3,1.5-0.3c0.9,0,1.9,0.3,2.6,0.8c0.4,0.3,0.7,0.8,0.7,1.3c0,0.8-0.5,1.7-2,2.7
		c-0.7,0.5-1.4,0.7-2,0.7c-0.7,0-1.3-0.2-1.8-0.7c-0.4-0.4-0.7-0.8-0.9-1.2c-0.2,1.1-0.6,2-1.5,2.3c-0.2,0.1-0.4,0.1-0.6,0.1
		c-0.8,0-1.9-0.4-2.3-0.8C21,49.1,21,48.9,21,48.8c0-0.6,1-1,1.4-1.3c0.5-0.5,1.2-1,1.9-1.4c0-0.1,0-0.2,0-0.3
		c0.1-0.9,0.1-2.1,0.2-3.2c-0.3,0.1-0.6,0.3-0.8,0.4c-0.5,0.2-0.9,0.3-1.4,0.3c-0.3,0-0.6-0.1-0.9-0.2c-0.6-0.3-0.9-0.8-0.9-1.4
		c0-0.1,0-0.1,0-0.2c0-0.2,0-0.2,0.1-0.2c0.1,0,0.2,0.1,0.4,0.2c0.3,0.2,0.6,0.3,0.8,0.3c0.5,0,0.9-0.2,1.3-0.4
		c0.4-0.1,0.9-0.4,1.4-0.6c0-0.5,0-1,0-1.4c0-0.9-0.4-1.1-0.8-1.1c-0.1,0-0.2,0-0.2,0c-0.1,0-0.2,0-0.2,0c-0.1,0-0.1,0-0.1-0.2
		c0-0.1,0-0.1,0-0.2c0.1-0.8,0.9-1.2,1.4-1.3c0.1,0,0.2,0,0.3,0c0.7,0,1.3,0.4,1.4,1.5c0,0.2,0,0.4,0,0.7c0,0.3,0,0.6,0,0.9
		c0.2-0.1,0.4-0.2,0.7-0.2c0,0,0,0,0.1,0c0.2,0,0.6,0.2,0.6,0.6c0,0.2-0.1,0.4-0.3,0.6c-0.3,0.3-0.7,0.7-1.1,1
		c-0.1,1.3-0.2,2.6-0.2,3.5L26.2,44.9z M23.1,48C23,48.1,23,48.2,23,48.3c0,0.2,0.2,0.3,0.4,0.3c0.1,0,0.2,0,0.3,0
		c0.3-0.1,0.4-0.8,0.5-1.4C23.6,47.5,23.3,47.8,23.1,48z M26.5,46.3c0,0.5,0.2,0.9,0.8,1.2c0.3,0.2,0.6,0.3,0.9,0.3
		c0.3,0,0.5-0.1,0.8-0.2c0.7-0.4,1-0.9,1-1.2c0-0.2-0.1-0.3-0.2-0.4c-0.3-0.4-0.9-0.5-1.4-0.5c-0.5,0-0.9,0.1-1.3,0.3
		c-0.1,0.1-0.3,0.1-0.5,0.2C26.6,46,26.5,46.1,26.5,46.3z M34.6,43c-1.2,0.2-2.4,0.8-2.8,1c-0.1,0-0.1,0.1-0.2,0.1c0,0,0,0,0,0
		c0,0,0-0.1,0.1-0.1c0.4-0.4,0.8-0.8,1.3-1.4c0.3-0.3,0.5-0.7,0.5-1c0-0.2-0.1-0.4-0.2-0.5c-0.2-0.2-0.4-0.3-0.8-0.3
		c-0.4,0-1.1,0.2-2.2,0.6c-0.2,0.1-0.3,0.1-0.3,0.1c0,0,0,0,0,0c0,0,0.1-0.1,0.2-0.2c1.1-1.1,2.4-1.5,3.4-1.5c1.1,0,2.1,0.5,2.4,1.4
		c0.1,0.1,0.1,0.3,0.1,0.6C36.1,42.1,35.8,42.8,34.6,43z"/>
	<path class="st0" d="M27.4,63.8c-0.1-1.3-0.5-1.8-0.9-2.1c-0.2-0.1-0.3-0.2-0.3-0.4c0-0.1,0.1-0.3,0.4-0.5c0.2-0.1,0.4-0.2,0.6-0.2
		c0.5,0,1,0.3,1.4,0.6c0.6,0.5,0.7,0.9,0.7,1.6c0,0.1,0,0.2,0,0.3c0.1,0,0.2,0.1,0.3,0.1c1.6,0.8,4.1,1.4,4.5,1.7
		c0.6,0.3,0.9,0.9,0.9,1.3c0,0.4-0.2,0.8-0.7,0.8c-0.1,0-0.3,0-0.5-0.1c-1.5-0.6-2.9-0.8-4.2-0.8c-0.1,0-0.3,0-0.4,0
		c0,2,0.2,3.2,0.2,3.8c0,0,0,0.1,0,0.1c0,0.4-0.1,0.8-0.2,1c0,0.1,0,0.3,0,0.4c-0.1,1.4-0.6,2.6-1.2,3.4c-0.9,1.2-2.3,1.7-3.7,2
		c-0.2,0-0.3,0.1-0.4,0.1c0,0-0.1,0-0.1,0c0,0,0.1-0.1,0.3-0.3c1.1-0.7,2.4-1.9,2.9-3.5c-0.1,0-0.3,0.1-0.4,0.1
		c-0.3,0-0.6-0.1-0.9-0.3c-0.6-0.5-1.2-1.5-1.3-2.3c0-0.1,0-0.3,0-0.4c0-1,0.8-1.9,1.8-1.9c0.1,0,0.2,0,0.3,0
		c0.4,0.1,0.8,0.1,1.3,0.4c0-0.7-0.1-1.6-0.2-2.5c-1.9,0.3-3.5,1.1-4.7,1.6c-0.8,0.3-1.5,0.6-2.1,0.6c-0.6,0-1.1-0.2-1.8-0.6
		c-0.4-0.3-0.6-0.6-0.6-0.9c0-0.3,0.2-0.7,0.6-1c0.3-0.3,0.5-0.4,0.6-0.4c0,0,0.1,0,0.1,0.1c0,0.1-0.1,0.4-0.3,0.6
		c-0.1,0.1-0.1,0.1-0.1,0.2c0,0.1,0.2,0.2,0.5,0.2c0.7,0,2-0.3,2.3-0.4c1.4-0.4,3.3-0.9,5.2-1.3L27.4,63.8z M26.2,69.5
		c-0.1,0-0.1,0-0.2,0c-0.5,0-0.8,0.5-0.8,0.9c0,0.1,0,0.2,0,0.2c0.1,0.3,0.3,0.6,0.6,0.8c0.1,0.1,0.3,0.2,0.4,0.2
		c0.2,0,0.4-0.1,0.6-0.2c0.1-0.1,0.2-0.2,0.3-0.3C27.1,70.2,26.8,69.6,26.2,69.5z M30.8,64.8c0.1,0,0.1,0,0.1,0
		c0-0.2-0.9-0.6-1.6-1.1l-0.1,0c0,0.1,0,0.2,0,0.4c0,0.3,0,0.6-0.1,0.9c0.3,0,0.6,0,0.9,0C30.3,64.8,30.5,64.8,30.8,64.8L30.8,64.8z
		"/>
	<path class="st0" d="M27.4,90.2c-0.1-1.3-0.5-1.8-0.9-2.1c-0.2-0.1-0.3-0.2-0.3-0.4c0-0.1,0.1-0.3,0.4-0.5c0.2-0.1,0.4-0.2,0.6-0.2
		c0.5,0,1,0.3,1.4,0.6c0.6,0.5,0.7,0.9,0.7,1.6c0,0.1,0,0.2,0,0.3c0.1,0,0.2,0.1,0.3,0.1c1.6,0.8,4.1,1.4,4.5,1.7
		c0.6,0.3,0.9,0.9,0.9,1.3c0,0.4-0.2,0.8-0.7,0.8c-0.1,0-0.3,0-0.5-0.1c-1.5-0.6-2.9-0.8-4.2-0.8c-0.1,0-0.3,0-0.4,0
		c0,2,0.2,3.2,0.2,3.8c0,0,0,0.1,0,0.1c0,0.4-0.1,0.8-0.2,1c0,0.1,0,0.3,0,0.4c-0.1,1.4-0.6,2.6-1.2,3.4c-0.9,1.2-2.3,1.7-3.7,2
		c-0.2,0-0.3,0.1-0.4,0.1c0,0-0.1,0-0.1,0c0,0,0.1-0.1,0.3-0.3c1.1-0.7,2.4-1.9,2.9-3.5c-0.1,0-0.3,0.1-0.4,0.1
		c-0.3,0-0.6-0.1-0.9-0.3c-0.6-0.5-1.2-1.5-1.3-2.3c0-0.1,0-0.3,0-0.4c0-1,0.8-1.9,1.8-1.9c0.1,0,0.2,0,0.3,0
		c0.4,0.1,0.8,0.1,1.3,0.4c0-0.7-0.1-1.6-0.2-2.5c-1.9,0.3-3.5,1.1-4.7,1.6c-0.8,0.3-1.5,0.6-2.1,0.6c-0.6,0-1.1-0.2-1.8-0.6
		c-0.4-0.3-0.6-0.6-0.6-0.9c0-0.3,0.2-0.7,0.6-1c0.3-0.3,0.5-0.4,0.6-0.4c0,0,0.1,0,0.1,0.1c0,0.1-0.1,0.4-0.3,0.6
		c-0.1,0.1-0.1,0.1-0.1,0.2c0,0.1,0.2,0.2,0.5,0.2c0.7,0,2-0.3,2.3-0.4c1.4-0.4,3.3-0.9,5.2-1.3L27.4,90.2z M26.2,95.9
		c-0.1,0-0.1,0-0.2,0c-0.5,0-0.8,0.5-0.8,0.9c0,0.1,0,0.2,0,0.2c0.1,0.3,0.3,0.6,0.6,0.8c0.1,0.1,0.3,0.2,0.4,0.2
		c0.2,0,0.4-0.1,0.6-0.2c0.1-0.1,0.2-0.2,0.3-0.3C27.1,96.6,26.8,96,26.2,95.9z M30.8,91.2c0.1,0,0.1,0,0.1,0c0-0.2-0.9-0.6-1.6-1.1
		l-0.1,0c0,0.1,0,0.2,0,0.4c0,0.3,0,0.6-0.1,0.9c0.3,0,0.6,0,0.9,0C30.3,91.2,30.5,91.2,30.8,91.2L30.8,91.2z"/>
	<path class="st0" d="M24.4,125.2c-1.2,1-2,1.4-2.6,1.4c-0.5,0-0.8-0.3-0.8-0.8c0,0,0,0,0-0.1c0,0,0-0.1,0-0.1c0-0.6-0.2-1-0.2-1.5
		c0-0.4,0.1-0.8,0.4-1.3c0.3-0.6,0.9-1.3,1.8-2.1c-0.4-1-0.7-2-0.7-3.2c0-0.4,0-0.8,0.1-1.2c0.1-0.5,0.2-0.8,0.3-0.8
		c0.1,0,0.1,0.1,0.1,0.4c0.2,1.6,0.7,2.9,1.4,3.8c0.1-0.1,0.3-0.2,0.4-0.3c0.9-0.6,1.7-1,2.4-1.3c0-0.1,0.1-0.3,0.1-0.4
		c0.1-0.6,0.2-1.1,0.2-1.5c0-0.8-0.2-1.4-0.7-1.9c-0.1-0.1-0.2-0.2-0.2-0.3c0-0.1,0.2-0.2,0.6-0.4c0.1,0,0.1,0,0.2,0
		c0.6,0,1.4,0.7,1.6,1.1c0.2,0.4,0.3,0.9,0.3,1.5c0,0.5-0.1,1-0.2,1.5c0.1,0,0.1,0,0.2,0c1.4,0,2.5,0.6,3.5,1.7
		c0.7,0.8,1.1,1.8,1.1,2.9c0,1.1-0.4,2.3-1.5,3.4c-2.2,2.5-4.6,3.1-5.9,3.3c-0.2,0.1-0.4,0.1-0.5,0.1c-0.1,0-0.1,0-0.1,0
		c0-0.1,0.2-0.2,0.4-0.3c1.3-0.8,2.8-2.1,4.2-3.9c0.8-1.1,1.2-1.9,1.2-2.8c0-0.6-0.2-1.2-0.5-1.8c-0.5-0.9-1.2-1.4-2.2-1.4
		c-0.1,0-0.2,0-0.3,0c-0.4,1.1-1,2.2-1.6,3.3c0.2,0.3,0.3,0.6,0.3,1.1c0,0.1,0,0.1,0,0.2c-0.1,0.5-0.4,0.8-0.8,0.8
		c-0.3,0-0.5-0.1-0.8-0.2C25.3,124.4,24.8,124.8,24.4,125.2z M22.5,123.3c0,0.1-0.1,0.3-0.1,0.5c0,0.2,0,0.5,0.2,0.6
		c0.1,0.1,0.1,0.1,0.2,0.1c0.1,0,0.3,0,0.5-0.2c0.4-0.3,0.9-0.7,1.3-1.2c-0.4-0.4-0.7-0.9-1-1.3C22.9,122.4,22.7,123,22.5,123.3z
		 M25.9,121.2c0.3-0.6,0.6-1.1,0.8-1.7c-0.5,0.2-1,0.5-1.5,0.9l-0.2,0.1c0.2,0.2,0.4,0.3,0.6,0.5L25.9,121.2z"/>
	<path class="st0" d="M27.1,141.6c0.4,0.3,0.6,0.8,0.6,1.5c0,0.5-0.1,1.1-0.4,1.8c-0.7,1.7-2.5,3.9-3.8,4.6c-0.6,0.3-1,0.5-1.4,0.5
		c-1,0-1.1-1.1-1.1-1.7c0-0.6-0.2-0.9-0.4-1.6c-0.1-0.2-0.1-0.5-0.1-0.7c0-0.4,0.1-0.8,0.3-1.1c1-1.9,2.9-3.4,4.9-4.2
		c0.7-0.3,1.5-0.5,2.3-0.5c1.3,0,2.6,0.4,3.9,1.4c1.4,1.1,2.1,2.4,2.1,3.8c0,1.7-1,3.4-2.9,4.9c-1.6,1.2-3.9,2-5.8,2.2
		c-0.2,0-0.3,0-0.4,0c-0.1,0-0.1,0-0.1,0c0,0,0.1-0.1,0.4-0.3c1.3-0.6,3.4-1.9,4.6-3.3c1.1-1.3,1.8-2.6,1.8-3.8
		c0-0.8-0.3-1.7-0.9-2.4c-0.6-0.8-1.6-1.3-2.7-1.3c-0.3,0-0.7,0-1,0.1C26.9,141.5,27,141.5,27.1,141.6z M22.2,145
		c-0.1,0.4-0.2,0.6-0.2,0.9c0,0.1,0,0.3,0,0.4c0,0.4,0.1,0.6,0.3,0.9c0.1,0.2,0.3,0.3,0.4,0.3c0.1,0,0.1,0,0.2-0.1
		c0.9-0.5,2.2-2,2.7-2.9c0.3-0.5,0.4-1,0.4-1.4s-0.1-0.7-0.3-0.9c-0.1-0.1-0.2-0.2-0.3-0.2C24,142.6,22.7,143.9,22.2,145z"/>
	<path class="st0" d="M28.7,175.9c0,0.2-0.2,0.3-0.4,0.3c-1.4,0-1.6-2.1-1.6-3c0-0.6,0-0.7,0-0.7c-0.8,1.1-2,2.6-2,4v0.1
		c0,0.7,0.1,1.3,0.1,2c0,1.3-0.5,2-0.8,2c-0.3,0-1-0.7-1-1.5c0-0.8,0.1-1.6,0.1-2.4c-1,0.7-1.6,1.7-2.6,2.4
		c-0.1,0.1-0.2,0.1-0.3,0.1c-0.2,0-0.6-0.3-0.6-0.8c0-0.2,0-0.5,0.1-0.7c0-0.2,0.1-0.3,0.2-0.4l2.5-3.5c0.3-0.4,0.7-1.5,0.9-2
		c-1.1,0.5-2.3,1-3.2,2c-0.1,0.1-0.2,0.2-0.3,0.2c-0.2,0-1-0.4-1-1.2c0-0.8,1.8-2.4,1.9-2.4c0,0,0.1,0.1,0.1,0.1l-0.1,0.9
		c1.1-0.6,2.2-1.2,3.2-1.9c-0.1-0.5-0.3-0.8-0.6-1c0,0-0.1-0.1-0.1-0.1c0-0.1,0-0.1,0.1-0.2l0.5-0.4c-1.1,0.5-2.6,0.8-3.9,0.8h-0.2
		c0,0,0,0,0,0c0,0,0-0.1,0.1-0.1c1.4-0.7,3.6-2,4.4-3.2l-0.5-0.4c0,0,0-0.1,0-0.1c0-0.1,0-0.1,0.1-0.1c0.5-0.2,1-0.5,1.5-0.6
		c0,0,0.1,0,0.1,0c0.1,0,0.2,0,0.2,0c0.8,0.3,1.9,0.4,1.9,1.5v0.2c0,0.1-0.1,0.2-0.3,0.2c-1.1,0.2-2.2,1.3-3.2,1.8
		c0.6,0,1.4,0.1,1.4,0.6v0.4c0.7,0.1,1.3,0,1.8,0.5c0.1,0.1,0.1,0.2,0.1,0.3c0,0,0,0.1,0,0.1c-0.4,0.8-1.2,1.1-1.9,1.6
		c-0.2,0.8-0.6,1.5-0.6,2.3v0.3c0.8-0.5,1.4-1.2,2-1.8c0.1-0.1,0.2-0.1,0.3-0.1c0.2,0,0.5,0.1,0.9,0.7c1.3-1.3,3.4-2.5,5.3-2.5
		c1.1,0,2.6,1,2.6,1.4c0,0.1,0,0.1-0.1,0.2c-0.7,1-1.9,1.6-2.3,2.4c0.4,0.3,1.1,0.5,1.1,1.1c0,0.3-0.4,0.6-0.6,0.7
		c-0.5,0.2-2.4,0.4-3,0.4c-1.2,0-1.2-0.7-1.2-0.7c0-0.1,0-0.1,0-0.2c0.3-0.8,1.2-1.2,1.8-1.7c0.5-0.5,0.9-1.3,1.2-1.9
		c-1.4,0-3.5,0.5-4.4,1.6c0.5,1.2,0.7,2,0.7,2.4c0,0.1,0,0.2-0.1,0.3L28.7,175.9z"/>
	<path class="st0" d="M27.6,207.1c0,0.6-0.4,1.6-0.9,2.1c-0.1,0.1-0.2,0.1-0.3,0.1c0,0-0.1,0-0.1,0c-0.8-0.5-1.9-2.5-3-3.4
		c-1.9,2.4-2.3,2.4-2.4,2.4c-0.3,0-0.6-0.7-0.6-1.1c0-0.8,1.6-1.9,1.6-2.7l-2.1,0.7c-0.1,0-0.1,0-0.2,0c-0.3,0-0.5-0.7-0.5-1.1
		c0-0.1,0.1-0.2,0.2-0.3c1.8-1.1,3.8-2.1,5.7-3.1l-1.1,0.3c-0.1,0-0.2,0-0.3,0c0,0-0.1,0-0.1,0c-0.1,0-0.1-0.1-0.2-0.1l-0.1,0
		c0,0.1-0.1,0.1-0.2,0.1c-0.2,0-1.4-0.7-1.4-2.8c0-0.5,0.3-1.7,0.5-1.7c0.3,0,0.8,1.1,1.1,1.9l0.4,0l1.8-0.7l-0.2-0.5l-1.1,0.4
		c-0.1,0-0.1,0-0.2,0s-0.2,0-0.2,0l-0.4-0.2c-0.1,0-0.1-0.1-0.1-0.2c0-0.3,2-1.5,3.7-1.8c0.3-0.5,0.6-1,0.9-1.5
		c-0.8,0.1-1.6,0.3-2.4,0.5c-0.1,1-0.7,1.7-0.9,1.7c-0.1,0-0.1,0-0.1,0c-0.3-0.4-0.5-0.7-0.6-1.2c-0.8,0.2-1.6,0.4-2.3,0.8
		c-0.1,0-0.1,0-0.2,0c-0.1,0-0.2,0-0.2-0.1c-0.3-0.2-0.6-0.6-0.6-0.8v-0.1c0.1-0.3,0.2-0.6,0.4-0.6h0.2c0.8,0,1.9-0.4,2.6-0.7
		c-0.1-0.5-0.2-1-0.5-1.4c0,0,0,0,0-0.1c0-0.1,0.1-0.1,0.2-0.1c0.8,0,1.5,0.5,1.9,1.2l2.9-0.6c0.1-0.2,0.4-0.9,0.5-1.1
		c-0.2-0.2-0.4-0.3-0.6-0.3c-0.1,0-0.1-0.1-0.1-0.1c0,0,0-0.1,0-0.1l0.4-0.4c0.2-0.2,0.3-0.3,0.9-0.3c1.4,0,1.7,0.5,1.7,0.6
		c0,0.1,0,0.1,0,0.2c-0.3,0.5-0.8,0.8-1,1.3l1.3,0h0.1c2.1,0,2.3,1.2,2.3,1.3c0,0.5-0.9,0.7-1.2,0.7c-0.5,0-2-0.6-3.1-0.6
		c-0.6,0.3-1.4,1.1-2,1.5c0.6-0.1,1.3-0.2,2-0.2c1.5,0,2.9,1.2,2.9,1.7c0,0.1,0,0.2-0.1,0.2c-0.8,0.9-1.1,2.8-2.6,3.7
		c-0.1,0-0.1,0.1-0.2,0.1c-0.3,0-0.5-0.2-0.8-0.6l-1.4,0.2l0.1,1.3l2.8-0.1l-0.3-0.5c0,0,0,0,0-0.1c0-0.1,0-0.1,0.1-0.1h0
		c2.7,0.5,4.5,0.8,4.5,1.9c0,0.4-0.4,0.7-0.8,0.7c-1.3,0-2.6-0.4-3.9-0.4c-0.8,0-1.6,0.1-2.3,0.1l0.2,3.8V207.1z M25.8,201.1
		c-1.2,0.4-2.3,1-3.4,1.6l3.4-0.7L25.8,201.1z M23.2,205.5c0.1,0,0.1,0,0.2,0c0.1,0,0.2,0,0.3,0.1c0.6,0.5,1.2,0.9,1.9,1
		c0.1-0.6,0.2-1.3,0.2-1.9c0-0.4,0-0.8,0-1.2c-1.1,0.1-2.3,0.4-3.3,0.9c0.2,0.4,0.3,0.9,0.4,1.3L23.2,205.5z M25.8,198.8l-1.7,0.5
		c-0.1,0-0.1,0-0.2,0c-0.1,0-0.2,0-0.2,0l-0.3-0.1l0.3,0.9l2.3-0.7L25.8,198.8z M27.2,198.5v0.7l1.7-0.2c0.3-0.8,0.7-1.6,0.7-2.5
		c-0.3-0.1-0.6-0.1-0.9-0.1c-0.7,0-1.7,0.1-2.3,0.4c0.7,0.5,1.9,0.1,2.5,0.7c0.1,0,0.1,0.1,0.1,0.2c0,0.1,0,0.1,0,0.2
		c-0.1,0.2-0.2,0.3-0.4,0.3L27.2,198.5z M28.5,203.5c1.7,0.3,5.3,1.7,5.3,3.7c0,0.4-0.5,0.8-0.9,0.8c-0.6,0-2.9-1.1-4.4-1.3
		c0,0-0.1,0-0.1,0c0,0,0-0.1,0.1-0.1c0.7-0.2,1.4-0.4,2.1-0.6C30,205.2,29.3,204.3,28.5,203.5C28.5,203.6,28.5,203.6,28.5,203.5
		C28.5,203.5,28.5,203.5,28.5,203.5L28.5,203.5z"/>
	<path class="st0" d="M28.1,220.1c0.1-0.1,0.2-0.2,0.3-0.2c0,0,2.2,0.1,2.8,1.4c0,0,0,0.1,0,0.1c0,0.1,0,0.2-0.1,0.2
		c-1.4,1.2-3.9,2.8-5.2,3.8c0.7,0.2,1.6,0.3,2.1,0.9c0.9-0.3,1.8-0.4,2.7-0.4c2.4,0,4.2,1,4.2,1.8c0,0.7-1.5,1.6-6,1.9
		c0,2.6-0.3,6.1-3.1,7.2c-0.1,0-0.1,0-0.2,0c-0.1,0-0.2,0-0.3-0.1c-0.6-0.4-0.9-1-1.4-1.6c-0.4-0.6-1.2-1.4-2.5-2.3
		c-0.8-0.5-2.2-1.1-2.6-2c0,0,0-0.1,0-0.1c0-0.4,0.6-1.2,1.1-1.5c1.5-1.1,4.3-2.2,6.1-2.7c-0.7-0.3-1.2-0.6-1.2-1
		c0-0.2,0.1-0.3,0.1-0.4c0.7-1.2,2-2,2.5-3.3c-1.5,0.1-2.9,0.7-4.1,1.5c-0.1,0.1-0.2,0.1-0.3,0.1c-0.3,0-0.9-0.7-0.9-1.2
		c0-0.6,0.5-1.1,0.9-1.5c0,0,0.1,0,0.1,0c0.1,0,0.1,0,0.2,0.1l0.2,0.6c1.4-0.6,2.7-1.2,4.2-1.3L28.1,220.1z M19.9,230.7
		c0.9,1,2.5,1.4,3.7,1.9c0.8,0.4,1.5,0.8,2.2,1.2c1.2-1.1,1.4-2.9,1.4-4.4c0-0.6-0.1-1.2-0.2-1.7C25.4,228.3,21.3,229.4,19.9,230.7z
		 M31.6,227.4c-0.2-0.1-0.5-0.2-0.8-0.2c-0.8,0-1.5,0-2.1,0.2c0.2,0.7,0.3,1.4,0.3,2C30,229.1,30.9,228.3,31.6,227.4z"/>
</g>
<text transform="matrix(1 0 0 1 -69.4218 34.9756)" class="st0" style="font-family:'ManyoGyoshoStd-E-83pv-RKSJ-H'; font-size:20px;glyph-orientation-vertical:0;writing-mode:tb; letter-spacing:8;">おすすめの和菓子</text>
</svg>
