<?xml version="1.0" encoding="utf-8"?>
<!-- Generator: Adobe Illustrator 24.3.0, SVG Export Plug-In . SVG Version: 6.00 Build 0)  -->
<svg version="1.1" id="レイヤー_1" xmlns="http://www.w3.org/2000/svg" xmlns:xlink="http://www.w3.org/1999/xlink" x="0px"
	 y="0px" viewBox="0 0 56.7 198.6" style="enable-background:new 0 0 56.7 198.6;" xml:space="preserve">
<style type="text/css">
	.st0{fill:#C33333;}
	.st1{enable-background:new    ;}
</style>
<g id="グループ_22" transform="translate(-495.435 -944.028)">
	<g id="グループ_12" transform="translate(627.37 851.912)">
		<path id="パス_109" class="st0" d="M-78.8,93.2H-80v-0.8c0-0.1,0-0.1-0.1-0.2s-0.1-0.1-0.2-0.1l0,0l-46.7,0.3
			c-0.2,0-0.3,0.1-0.3,0.3v0.5h-1.2c-0.2,0-0.3,0.1-0.3,0.3l0,0v1.7c0,0.2,0.1,0.3,0.3,0.3l0,0h1.2v20.1c0,0.2,0.1,0.3,0.3,0.3l0,0
			h14.1c0.1,0,0.3-0.1,0.3-0.3l0.9-10.6l1.4,10.7c0,0.1,0.1,0.2,0.3,0.2h12.8c0.1,0,0.3-0.1,0.3-0.3L-96,105l1.4,10.7
			c0,0.1,0.1,0.3,0.3,0.2h14c0.2,0,0.3-0.1,0.3-0.3V95.5h1.2c0.2,0,0.3-0.1,0.3-0.3l0,0v-1.7C-78.5,93.3-78.6,93.2-78.8,93.2
			L-78.8,93.2z M-79.1,94.9H-80v-1.1h0.9V94.9z M-128.2,93.7h0.9v1.1h-0.9V93.7z"/>
	</g>
	<g class="st1">
		<path class="st0" d="M525.3,989.4c0,0.2-0.2,0.3-0.4,0.3c-1.4,0-1.6-2.1-1.6-3c0-0.6,0-0.7,0-0.7c-0.8,1.1-2,2.6-2,4v0.1
			c0,0.7,0.1,1.3,0.1,2c0,1.3-0.5,2-0.8,2c-0.3,0-1-0.7-1-1.5c0-0.8,0.1-1.6,0.1-2.4c-1,0.7-1.6,1.7-2.6,2.4
			c-0.1,0.1-0.2,0.1-0.3,0.1c-0.2,0-0.6-0.3-0.6-0.8c0-0.2,0-0.5,0.1-0.7c0-0.2,0.1-0.3,0.2-0.4l2.5-3.5c0.3-0.4,0.7-1.5,0.9-2
			c-1.1,0.5-2.3,1-3.2,2c-0.1,0.1-0.2,0.2-0.3,0.2c-0.2,0-1-0.4-1-1.2c0-0.8,1.8-2.4,1.9-2.4c0,0,0.1,0.1,0.1,0.1l-0.1,0.9
			c1.1-0.6,2.2-1.2,3.2-1.9c-0.1-0.5-0.3-0.8-0.6-1c0,0-0.1-0.1-0.1-0.1c0-0.1,0-0.1,0.1-0.2l0.5-0.4c-1.1,0.5-2.6,0.8-3.9,0.8H516
			c0,0,0,0,0,0c0,0,0-0.1,0.1-0.1c1.4-0.7,3.6-2,4.4-3.2l-0.5-0.4c0,0,0-0.1,0-0.1c0-0.1,0-0.1,0.1-0.1c0.5-0.2,1-0.5,1.5-0.6
			c0,0,0.1,0,0.1,0c0.1,0,0.2,0,0.2,0c0.8,0.3,1.9,0.4,1.9,1.5v0.2c0,0.1-0.1,0.2-0.3,0.2c-1.1,0.2-2.2,1.3-3.2,1.8
			c0.6,0,1.4,0.1,1.4,0.6v0.4c0.7,0.1,1.3,0,1.8,0.5c0.1,0.1,0.1,0.2,0.1,0.3c0,0,0,0.1,0,0.1c-0.4,0.8-1.2,1.1-1.9,1.6
			c-0.2,0.8-0.6,1.5-0.6,2.3v0.3c0.8-0.5,1.4-1.2,2-1.8c0.1-0.1,0.2-0.1,0.3-0.1c0.2,0,0.5,0.1,0.9,0.7c1.3-1.3,3.4-2.5,5.3-2.5
			c1.1,0,2.6,1,2.6,1.4c0,0.1,0,0.1-0.1,0.2c-0.7,1-1.9,1.6-2.3,2.4c0.4,0.3,1.1,0.5,1.1,1.1c0,0.3-0.4,0.6-0.6,0.7
			c-0.5,0.2-2.4,0.4-3,0.4c-1.2,0-1.2-0.7-1.2-0.7c0-0.1,0-0.1,0-0.2c0.3-0.8,1.2-1.2,1.8-1.7c0.5-0.5,0.9-1.3,1.2-1.9
			c-1.4,0-3.5,0.5-4.4,1.6c0.5,1.2,0.7,2,0.7,2.4c0,0.1,0,0.2-0.1,0.3L525.3,989.4z"/>
		<path class="st0" d="M524.2,1020.7c0,0.6-0.4,1.6-0.9,2.1c-0.1,0.1-0.2,0.1-0.3,0.1c0,0-0.1,0-0.1,0c-0.8-0.5-1.9-2.5-3-3.4
			c-1.9,2.4-2.3,2.4-2.4,2.4c-0.3,0-0.6-0.7-0.6-1.1c0-0.8,1.6-1.9,1.6-2.7l-2.1,0.7c-0.1,0-0.1,0-0.2,0c-0.3,0-0.5-0.7-0.5-1.1
			c0-0.1,0.1-0.2,0.2-0.3c1.8-1.1,3.8-2.1,5.7-3.1l-1.1,0.3c-0.1,0-0.2,0-0.3,0c0,0-0.1,0-0.1,0c-0.1,0-0.1-0.1-0.2-0.1l-0.1,0
			c0,0.1-0.1,0.1-0.2,0.1c-0.2,0-1.4-0.7-1.4-2.8c0-0.5,0.3-1.7,0.5-1.7c0.3,0,0.8,1.1,1.1,1.9l0.4,0l1.8-0.7l-0.2-0.5l-1.1,0.4
			c-0.1,0-0.1,0-0.2,0s-0.2,0-0.2,0l-0.4-0.2c-0.1,0-0.1-0.1-0.1-0.2c0-0.3,2-1.5,3.7-1.8c0.3-0.5,0.6-1,0.9-1.5
			c-0.8,0.1-1.6,0.3-2.4,0.5c-0.1,1-0.7,1.7-0.9,1.7c-0.1,0-0.1,0-0.1,0c-0.3-0.4-0.5-0.7-0.6-1.2c-0.8,0.2-1.6,0.4-2.3,0.8
			c-0.1,0-0.1,0-0.2,0c-0.1,0-0.2,0-0.2-0.1c-0.3-0.2-0.6-0.6-0.6-0.8v-0.1c0.1-0.3,0.2-0.6,0.4-0.6h0.2c0.8,0,1.9-0.4,2.6-0.7
			c-0.1-0.5-0.2-1-0.5-1.4c0,0,0,0,0-0.1c0-0.1,0.1-0.1,0.2-0.1c0.8,0,1.5,0.5,1.9,1.2l2.9-0.6c0.1-0.2,0.4-0.9,0.5-1.1
			c-0.2-0.2-0.4-0.3-0.6-0.3c-0.1,0-0.1-0.1-0.1-0.1c0,0,0-0.1,0-0.1l0.4-0.4c0.2-0.2,0.3-0.3,0.9-0.3c1.4,0,1.7,0.5,1.7,0.6
			c0,0.1,0,0.1,0,0.2c-0.3,0.5-0.8,0.8-1,1.3l1.3,0h0.1c2.1,0,2.3,1.2,2.3,1.3c0,0.5-0.9,0.7-1.2,0.7c-0.5,0-2-0.6-3.1-0.6
			c-0.6,0.3-1.4,1.1-2,1.5c0.6-0.1,1.3-0.2,2-0.2c1.5,0,2.9,1.2,2.9,1.7c0,0.1,0,0.2-0.1,0.2c-0.8,0.9-1.1,2.8-2.6,3.7
			c-0.1,0-0.1,0.1-0.2,0.1c-0.3,0-0.5-0.2-0.8-0.6l-1.4,0.2l0.1,1.3l2.8-0.1l-0.3-0.5c0,0,0,0,0-0.1c0-0.1,0-0.1,0.1-0.1h0
			c2.7,0.5,4.5,0.8,4.5,1.9c0,0.4-0.4,0.7-0.8,0.7c-1.3,0-2.6-0.4-3.9-0.4c-0.8,0-1.6,0.1-2.3,0.1l0.2,3.8V1020.7z M522.4,1014.7
			c-1.2,0.4-2.3,1-3.4,1.6l3.4-0.7L522.4,1014.7z M519.8,1019.1c0.1,0,0.1,0,0.2,0c0.1,0,0.2,0,0.3,0.1c0.6,0.5,1.2,0.9,1.9,1
			c0.1-0.6,0.2-1.3,0.2-1.9c0-0.4,0-0.8,0-1.2c-1.1,0.1-2.3,0.4-3.3,0.9c0.2,0.4,0.3,0.9,0.4,1.3L519.8,1019.1z M522.4,1012.4
			l-1.7,0.5c-0.1,0-0.1,0-0.2,0c-0.1,0-0.2,0-0.2,0l-0.3-0.1l0.3,0.9l2.3-0.7L522.4,1012.4z M523.8,1012.1v0.7l1.7-0.2
			c0.3-0.8,0.7-1.6,0.7-2.5c-0.3-0.1-0.6-0.1-0.9-0.1c-0.7,0-1.7,0.1-2.3,0.4c0.7,0.5,1.9,0.1,2.5,0.7c0.1,0,0.1,0.1,0.1,0.2
			c0,0.1,0,0.1,0,0.2c-0.1,0.2-0.2,0.3-0.4,0.3L523.8,1012.1z M525.1,1017.1c1.7,0.3,5.3,1.7,5.3,3.7c0,0.4-0.5,0.8-0.9,0.8
			c-0.6,0-2.9-1.1-4.4-1.3c0,0-0.1,0-0.1,0c0,0,0-0.1,0.1-0.1c0.7-0.2,1.4-0.4,2.1-0.6C526.6,1018.8,525.9,1017.9,525.1,1017.1
			C525.1,1017.2,525.1,1017.2,525.1,1017.1C525.1,1017.1,525.1,1017.1,525.1,1017.1L525.1,1017.1z"/>
		<path class="st0" d="M524.7,1033.6c0.1-0.1,0.2-0.2,0.3-0.2c0,0,2.2,0.1,2.8,1.4c0,0,0,0.1,0,0.1c0,0.1,0,0.2-0.1,0.2
			c-1.4,1.2-3.9,2.8-5.2,3.8c0.7,0.2,1.6,0.3,2.1,0.9c0.9-0.3,1.8-0.4,2.7-0.4c2.4,0,4.2,1,4.2,1.8c0,0.7-1.5,1.6-6,1.9
			c0,2.6-0.3,6.1-3.1,7.2c-0.1,0-0.1,0-0.2,0c-0.1,0-0.2,0-0.3-0.1c-0.6-0.4-0.9-1-1.4-1.6c-0.4-0.6-1.2-1.4-2.5-2.3
			c-0.8-0.5-2.2-1.1-2.6-2c0,0,0-0.1,0-0.1c0-0.4,0.6-1.2,1.1-1.5c1.5-1.1,4.3-2.2,6.1-2.7c-0.7-0.3-1.2-0.6-1.2-1
			c0-0.2,0.1-0.3,0.1-0.4c0.7-1.2,2-2,2.5-3.3c-1.5,0.1-2.9,0.7-4.1,1.5c-0.1,0.1-0.2,0.1-0.3,0.1c-0.3,0-0.9-0.7-0.9-1.2
			c0-0.6,0.5-1.1,0.9-1.5c0,0,0.1,0,0.1,0c0.1,0,0.1,0,0.2,0.1l0.2,0.6c1.4-0.6,2.7-1.2,4.2-1.3L524.7,1033.6z M516.5,1044.3
			c0.9,1,2.5,1.4,3.7,1.9c0.8,0.4,1.5,0.8,2.2,1.2c1.2-1.1,1.4-2.9,1.4-4.4c0-0.6-0.1-1.2-0.2-1.7
			C522,1041.8,518,1042.9,516.5,1044.3z M528.2,1041c-0.2-0.1-0.5-0.2-0.8-0.2c-0.8,0-1.5,0-2.1,0.2c0.2,0.7,0.3,1.4,0.3,2
			C526.6,1042.7,527.5,1041.9,528.2,1041z"/>
		<path class="st0" d="M531,1068.7c-0.1,0-0.3,0-0.4,0c-0.6-0.1-1.3-0.2-2.1-0.2c-0.5,0-1,0.1-1.6,0.2c-0.3,0.1-0.4,0.1-0.5,0.1
			c-0.1,0-0.1,0-0.1,0c0-0.1,0.2-0.2,0.4-0.3c0.4-0.3,0.6-0.4,1.1-0.7c0.3-0.2,0.6-0.4,0.6-0.6c0-0.1-0.1-0.2-0.2-0.3
			c-0.4-0.3-4.1-2.8-5.9-3.8c-0.5-0.3-1-0.4-1.4-0.4c-1.1,0-1.7,0.9-2.6,2.1c-0.3,0.4-0.6,0.6-0.9,0.6c-0.3,0-0.6-0.2-0.8-0.5
			c-0.2-0.3-0.5-0.8-0.5-1.3c0-0.6,0.3-1.3,1.5-1.9c0.1-0.1,0.2-0.1,0.3-0.1c0,0,0.1,0,0.1,0c0,0,0,0.1-0.1,0.2
			c-0.2,0.3-0.6,0.7-0.7,0.9c0,0.1-0.1,0.1-0.1,0.2c0,0,0,0.1,0.1,0.1s0.1,0,0.2-0.1c1.2-0.9,2.3-1.4,3.5-1.4c0.6,0,1.2,0.1,1.9,0.4
			c1.8,0.7,5,2.8,6.4,3.3c0.3,0.1,1.1,0.2,1.6,0.6c0.5,0.4,1,1.2,1.2,1.5c0.1,0.2,0.1,0.4,0.1,0.6
			C532.3,1068.3,531.9,1068.7,531,1068.7z"/>
		<path class="st0" d="M523.7,1081.6c0.4,0.3,0.6,0.8,0.6,1.5c0,0.5-0.1,1.1-0.4,1.8c-0.7,1.7-2.5,3.9-3.8,4.6
			c-0.6,0.3-1,0.5-1.4,0.5c-1,0-1.1-1.1-1.1-1.7c0-0.6-0.2-0.9-0.4-1.6c-0.1-0.2-0.1-0.5-0.1-0.7c0-0.4,0.1-0.8,0.3-1.1
			c1-1.9,2.9-3.4,4.9-4.2c0.7-0.3,1.5-0.5,2.3-0.5c1.3,0,2.6,0.4,3.9,1.4c1.4,1.1,2.1,2.4,2.1,3.8c0,1.7-1,3.4-2.9,4.9
			c-1.6,1.2-3.9,2-5.8,2.2c-0.2,0-0.3,0-0.4,0c-0.1,0-0.1,0-0.1,0c0,0,0.1-0.1,0.4-0.3c1.3-0.6,3.4-1.9,4.6-3.3
			c1.1-1.3,1.8-2.6,1.8-3.8c0-0.8-0.3-1.7-0.9-2.4c-0.6-0.8-1.6-1.3-2.7-1.3c-0.3,0-0.7,0-1,0.1
			C523.5,1081.5,523.6,1081.5,523.7,1081.6z M518.9,1085c-0.1,0.4-0.2,0.6-0.2,0.9c0,0.1,0,0.3,0,0.4c0,0.4,0.1,0.6,0.3,0.9
			c0.1,0.2,0.3,0.3,0.4,0.3c0.1,0,0.1,0,0.2-0.1c0.9-0.5,2.2-2,2.7-2.9c0.3-0.5,0.4-1,0.4-1.4s-0.1-0.7-0.3-0.9
			c-0.1-0.1-0.2-0.2-0.3-0.2C520.6,1082.6,519.3,1083.9,518.9,1085z"/>
		<path class="st0" d="M530.7,1105.5c0,0.1-0.1,0.2-0.2,0.3c-0.2,0.2-0.4,0.4-0.4,0.7c0,1.7,0.1,3.3,0.1,5c0,0.9-0.2,2.1-0.8,2.8
			c1,0,3.1,0.1,3.1,1.5c0,0.5-0.5,0.6-0.9,0.6c-1.5,0-2.9-1.2-4.7-1.2c0.9,0.5,3.1,1.6,3.1,2.8c0,1.1-2.1,2.6-5,2.6
			c-3.5,0-5.8-3-5.8-4.8c0-0.5,0.2-0.8,0.6-1c-0.8-0.5-0.5-1.2-0.7-2l-2,1.8c-0.1,0.1-0.2,0.1-0.2,0.1c-0.2,0-0.5-0.3-0.6-0.8
			c0-0.2,0.1-0.3,0.1-0.5c0.7-1.4,1.8-2.5,2.4-3.9l-0.8,0.3c-0.1,0-0.2,0.1-0.3,0.1c-0.7,0-2.3-0.8-2.3-1c0-0.1,0-0.1,0.1-0.1
			c1.4-0.2,2.8-0.7,4.1-1.2c0.1-0.6,0.1-1.3,0.1-1.9v-0.3l0-0.3l-0.8-0.1c-0.1,0-0.1-0.1-0.1-0.1s0.7-1,1.8-1c0.6,0,1.1,0.6,1.1,0.8
			c0,0.1,0,0.2-0.1,0.2c-0.2,0.6-0.4,1.2-0.4,1.8c0.1,0,0.2,0,0.3,0c0.4,0,0.7,0.1,1,0.3c0.1-0.3,0.4-0.8,0.8-0.8c0.1,0,0.1,0,0.2,0
			c0,0,0.1,0,0.1,0c0.6,0,0.8,0.8,0.8,1.3v0.1c0.9-0.1,1.5-0.8,2.4-0.8c0.5,0,1,0.1,1.4,0.4c-0.1-0.6,0.1-1.7-0.8-1.7
			c-0.6,0-1.1,0.3-1.5,0.7c-0.1,0.1-0.3,0.2-0.4,0.2h-0.9c0,0-0.1,0-0.1-0.1c0-0.1,1.5-2.1,3.4-2.1
			C529.1,1103.7,530.4,1104.3,530.7,1105.5L530.7,1105.5z M517.7,1115.4c0,0,0.1,0,0.1,0c0.5,0.6,0.9,1.3,0.9,2
			c0,1.7-0.8,2.5-1.2,2.5c-0.3,0-0.9-0.5-0.9-1.3c0-0.8,0.9-1.9,1-3.2C517.7,1115.4,517.7,1115.4,517.7,1115.4z M527.9,1113.3
			c-0.4-0.2-0.8-0.3-1.3-0.3c-0.9,0-1.5,0.3-2.2,0.8c0,0-0.1,0.1-0.2,0.1c-0.1,0-0.1,0-0.2-0.1c-0.2-0.1-0.3-0.4-0.3-0.7
			c-0.1,0-0.1,0-0.2,0c-0.6,0-0.7-0.6-0.7-1.1c0-1.7,0.1-3.1,0.4-5.1c-0.9,0.8-2.2,3-2.5,4.2c0,0.1,0,0.8,0,0.9
			c-0.1,1.4-0.2,2.6-0.7,2.6c0.8,2.1,2.4,4.1,4.8,4.1c0.8,0,2.7-0.5,2.7-1.5c0-0.8-0.6-1.7-1.1-2.2c-2,0.7-1.4,1.7-2.1,2.7
			c-0.1,0.1-0.2,0.2-0.4,0.2c-0.1,0-0.1,0-0.2,0c-1.3,0-1.2-2.2-1.5-3.2v0c0-0.1,0.1-0.1,0.2-0.1c0.2,0,0.9,0.3,1.5,1.2
			c1.3-1.2,3-1.8,4.7-1.9L527.9,1113.3z M522.2,1107.4c-0.8,0.4-1.4,0.8-1.4,1.7v0.1l0,0.3L522.2,1107.4z M525.2,1110.9
			c-0.1,0-0.3,0-0.4-0.1c-0.2-0.1-0.3-0.1-0.5-0.2c-0.1,0.8-0.2,1.5-0.4,2.3c0.7-0.7,1.3-1.3,1.9-2.1L525.2,1110.9z M524.5,1109.7
			C524.5,1109.7,524.5,1109.6,524.5,1109.7L524.5,1109.7l1.3-1.6l-1.5,0.3l-0.1,1.7c0.9-0.2,1.6-0.8,2.5-1c0,0,0.1,0,0.1,0
			c0.2,0,1.2,0.3,1.2,0.8c0,0.1,0,0.2-0.1,0.2c-0.4,0.4-1.5,1-1.9,1.3c-0.3,0.3-0.6,0.5-0.8,0.9c0.5-0.2,1.7-0.5,2.1-0.5
			c0.2,0,0.5,0.1,0.7,0.1c0-1.4,0.1-2.8,0.1-4.3c0-0.2,0-0.5,0-0.7c-0.1,0.2-0.2,0.3-0.3,0.5C527.4,1108,525.4,1109.1,524.5,1109.7
			L524.5,1109.7z"/>
		<path class="st0" d="M521.4,1140.7c-0.3,0-0.6-0.1-1-0.2c-1-0.4-1.7-0.9-2.3-2c-0.5-1-1-2.6-1.1-3.9c0-0.3-0.1-0.7-0.1-1.1
			c0-0.6,0.1-1.3,0.2-2c0-0.1,0.1-0.2,0.1-0.2c0,0,0.1,0.1,0.1,0.2c0.1,0.6,0.3,0.8,0.6,1.5c0.4,1,0.7,1.9,1,3.3
			c0.2,0.7,0.7,1.4,1.3,1.6c0.2,0.1,0.4,0.2,0.5,0.2c0.1,0,0.3-0.1,0.4-0.2c0.1-0.1,2-2.4,2.2-2.6c0.1-0.2,0.3-0.3,0.3-0.3
			s0.1,0,0.1,0.1c0,0.1,0,0.2-0.1,0.4c-0.5,1.4-0.8,2.6-0.9,4C522.7,1140.2,522.2,1140.7,521.4,1140.7z M526.4,1138.1
			c-0.1,0.1-0.2,0.1-0.3,0.1c0,0,0,0,0,0c0,0,0.1-0.1,0.2-0.3c0.3-0.3,1.9-1.5,2.1-1.9c0.2-0.3,0.3-0.6,0.3-0.9c0-0.1,0-0.3,0-0.3
			c-0.1-0.6-1.2-1.6-1.6-1.8c-0.3-0.1-0.4-0.2-0.4-0.3c0-0.1,0.3-0.1,0.6-0.1c0,0,0.1,0,0.1,0c1.9,0.1,3.6,1.1,3.8,2.6
			c0,0.1,0,0.1,0,0.2c0,0.7-0.3,1.5-1.2,1.6C528.1,1137.2,527,1137.8,526.4,1138.1z"/>
	</g>
</g>
<g id="グループ_22_1_" transform="translate(-495.435 -944.028)">
	<g id="グループ_12_1_" transform="translate(627.37 851.912)">
		<path id="パス_109_1_" class="st0" d="M-179.7,93.2h-1.2v-0.8c0-0.1,0-0.1-0.1-0.2c-0.1-0.1-0.1-0.1-0.2-0.1l0,0l-46.7,0.3
			c-0.2,0-0.3,0.1-0.3,0.3v0.5h-1.2c-0.2,0-0.3,0.1-0.3,0.3l0,0v1.7c0,0.2,0.1,0.3,0.3,0.3l0,0h1.2v20.1c0,0.2,0.1,0.3,0.3,0.3l0,0
			h14.1c0.1,0,0.3-0.1,0.3-0.3l0.9-10.6l1.4,10.7c0,0.1,0.1,0.2,0.3,0.2h12.8c0.1,0,0.3-0.1,0.3-0.3l0.9-10.6l1.4,10.7
			c0,0.1,0.1,0.3,0.3,0.2h14c0.2,0,0.3-0.1,0.3-0.3V95.5h1.2c0.2,0,0.3-0.1,0.3-0.3l0,0v-1.7C-179.4,93.3-179.5,93.2-179.7,93.2
			L-179.7,93.2z M-180,94.9h-0.9v-1.1h0.9V94.9z M-229.1,93.7h0.9v1.1h-0.9V93.7z"/>
	</g>
	
		<text transform="matrix(1 0 0 1 422.6912 975.1645)" class="st0" style="font-family:'ManyoGyoshoStd-E-83pv-RKSJ-H'; font-size:20px;glyph-orientation-vertical:0;writing-mode:tb; letter-spacing:8;">和菓子への想い</text>
</g>
</svg>
