<?xml version="1.0" encoding="utf-8"?>
<!-- Generator: Adobe Illustrator 24.3.0, SVG Export Plug-In . SVG Version: 6.00 Build 0)  -->
<svg version="1.1" id="レイヤー_1" xmlns="http://www.w3.org/2000/svg" xmlns:xlink="http://www.w3.org/1999/xlink" x="0px"
	 y="0px" viewBox="0 0 56.7 141.7" style="enable-background:new 0 0 56.7 141.7;" xml:space="preserve">
<style type="text/css">
	.st0{fill:#9D7D62;}
	.st1{enable-background:new    ;}
</style>
<g id="グループ_25" transform="translate(-974.272 -939)">
	<g id="グループ_15" transform="translate(936.659 813.427)">
		<path id="パス_113" class="st0" d="M73.5,128.4l0.4-0.2l0.4,0.2l6.3,3.7l-2-6.5h-26l-2.3,7.6h15.1L73.5,128.4z"/>
		<path id="パス_114" class="st0" d="M79.3,135l-0.7-0.4l-4.7-2.8l-4.7,2.8l-0.7,0.4l-0.7,0.4l-1.4,0.8l-0.2,0.1H49.7v14.4h9.6
			v-10.1h14.2v10.1h0.9v-10.1h4.8v10.1h2.3v-14.4l-1.6-0.9L79.3,135z"/>
		<path id="パス_115" class="st0" d="M82,133.8l-0.5-0.3l-0.5-0.3l-7-4.2l-8.3,4.9H48.3v1.6H66l0.2-0.1l0.7-0.4l0.7-0.4l6.3-3.7
			l6.3,3.7l0.7,0.4l0.7,0.4l0,0l0.4,0.2l0.4,0.2l0.5,0.3l0.8-1.4L82,133.8z"/>
	</g>
</g>
<g class="st1">
	<path class="st0" d="M30.5,43.4c-0.1,2.4-1.6,7.6-7.9,9.2c-0.3,0.1-0.5,0.1-0.6,0.1c-0.1,0-0.1,0-0.1,0c0-0.1,0.2-0.2,0.5-0.4
		c2.8-1.8,5.5-5.7,5.9-7.7c0-0.2,0.1-0.4,0.1-0.6c0-0.5-0.2-0.9-0.9-1.1c-0.3-0.1-0.5-0.3-0.5-0.5c0-0.1,0-0.2,0.1-0.3
		c0.2-0.4,0.8-0.6,1.4-0.6c0.5,0,1,0.1,1.4,0.5c0.2,0.2,0.4,0.4,0.5,0.7c0.8-0.6,1.6-1.5,2.1-2.4c0-0.1,0.1-0.1,0.1-0.2
		c0-0.2-0.2-0.2-0.4-0.2c0,0,0,0,0,0c-1.8,0.2-4.3,0.9-5.9,1.7c-0.7,0.3-1.1,0.5-1.5,0.5c-0.2,0-0.4,0-0.7-0.1
		c-0.8-0.3-1.9-0.9-1.9-1.7c0-0.3,0.1-0.6,0.4-0.9c0.2-0.1,0.2-0.2,0.3-0.2c0.1,0,0.1,0.1,0.1,0.2c0,0,0,0.1,0,0.1c0,0,0,0,0,0.1
		c0,0.4,0.5,0.5,1,0.5c0.4,0,0.9-0.1,1.3-0.2c2.1-0.5,4.4-1.2,6.5-1.5c0.4-0.1,0.7-0.1,1.1-0.1c0.6,0,1.3,0.2,2.4,1.1
		c0.4,0.3,0.5,0.5,0.5,0.7c0,0.6-1.1,0.9-1.5,1.3c-0.9,0.7-2.5,1.4-3.7,1.8V43.4z"/>
	<path class="st0" d="M30.3,64.4c0.5-0.2,1.2-0.4,1.9-0.4c0.6,0,1.3,0.2,1.7,0.9c0.1,0.2,0.2,0.4,0.2,0.5c0,0.4-0.5,0.7-1.2,1.2
		C30.3,69,27.1,76,20.4,76c0,0,0,0-0.1,0c-0.5,0-0.7,0-0.7-0.1c0-0.1,0.2-0.1,0.5-0.2c3.4-1.1,7.8-5.3,10.8-10.1
		c0.1-0.1,0.1-0.2,0.1-0.2c0-0.1,0-0.1-0.1-0.1c0,0-0.1,0-0.1,0c-0.7,0.1-2.3,0.3-3.9,1.9c-1,1-2.3,2.1-4.2,2.7
		c-0.2,0.1-0.3,0.1-0.4,0.1c-0.2,0-0.3-0.1-0.3-0.2c0-0.2,0.2-0.6,0.6-0.8c0.7-0.5,0.6-0.1,1.5-0.9c0.9-0.9,2.9-3.6,3.2-4.6
		c0-0.2,0.1-0.3,0.1-0.4c0-0.3-0.1-0.3-0.4-0.3c0,0,0,0-0.1,0s0,0-0.1,0c-0.2,0-0.3-0.1-0.3-0.1c0-0.1,0.2-0.2,0.4-0.4
		c0.4-0.2,0.8-0.3,1.1-0.3c0.5,0,0.9,0.2,1.2,0.4c0.6,0.3,0.7,0.6,0.7,0.8c0,0.4-0.5,0.7-0.8,1.2c-0.2,0.3-0.4,0.5-0.5,0.8
		C29.1,64.8,29.7,64.6,30.3,64.4z"/>
	<path class="st0" d="M25,94.3c-0.6,0.5-1,0.8-1.8,0.8c-0.3,0-0.6,0-1.1-0.1c-0.6-0.1-1.1-0.4-1.1-1c0-0.1,0-0.3,0.1-0.5
		c0.1-0.2,0.3-0.3,0.3-0.3c0.1,0,0.1,0,0.1,0.1c0,0.2,0.2,0.3,0.5,0.3c0.5,0,1.3-0.3,1.7-0.5c0.5-0.3,1.1-0.7,1.8-1.1
		c0.1-0.9,0.1-1.8,0.1-2.4c0-0.2,0-0.3,0-0.5c0-0.6,0-1.8-0.9-1.8c0,0,0,0,0,0h0c-0.1,0-0.2-0.1-0.2-0.2c0-0.1,0.1-0.3,0.2-0.4
		c0.2-0.2,0.5-0.3,0.8-0.3c0.4,0,0.9,0.2,1.4,0.5c0.6,0.4,0.8,0.8,0.8,1.2c0,0.4-0.1,0.9-0.2,1.6c0,0.3-0.1,0.7-0.1,1.2
		c1-0.6,2.1-1.1,3.1-1.6c0.3-0.1,0.6-0.2,0.9-0.2c0.6,0,1.2,0.2,2.1,0.8c0.5,0.3,0.7,0.6,0.7,0.8c0,0.5-1.2,0.8-1.7,1.1
		c-1.2,0.8-2.4,1.5-3.5,2c-0.4,0.2-0.7,0.3-0.8,0.3c0,0,0,0,0,0c0-0.1,0.2-0.3,0.6-0.6c0.5-0.5,1.4-1.4,2-2.5c0-0.1,0.1-0.1,0.1-0.2
		c0-0.1-0.1-0.2-0.2-0.2c0,0-0.1,0-0.1,0c-1.1,0.4-2.3,1.2-3.4,2.1c-0.1,0.8-0.1,1.5-0.1,2.1c0,0.3,0,0.6,0.1,0.7
		c0.2,0.6,0.4,1.1,1.5,1.1c0.2,0,0.4,0,0.6,0c0.3,0,0.5-0.1,1-0.2c0.5-0.1,0.8-0.3,1.2-0.4c0.1,0,0.2,0,0.3,0c0.7,0,1.5,0.3,1.8,0.5
		c0.2,0.2,0.3,0.4,0.3,0.6c0,0.3-0.2,0.6-0.6,0.8c-0.9,0.4-2.4,0.7-3.8,0.7c-0.3,0-0.6,0-0.9-0.1c-1.7-0.2-2.8-0.8-3-2.6
		c-0.1-0.4-0.1-0.8-0.1-1.3c0-0.3,0-0.5,0-0.8L25,94.3z"/>
	<path class="st0" d="M20.4,122.3c-0.3,0-0.5,0.1-0.6,0.1s-0.1,0-0.1,0c0,0,0.2-0.2,0.5-0.3c3.6-1.8,7.8-6.5,9.5-9.7
		c0-0.1,0.1-0.2,0.1-0.2c0-0.1-0.1-0.2-0.2-0.2c0,0-0.1,0-0.1,0c-0.8,0.3-1.4,0.7-2.3,1.1c-0.5,0.3-0.9,0.4-1.3,0.4
		c-0.1,0-0.2,0-0.3,0c-0.6-0.1-2.1-0.6-2.1-1.3c0-0.1,0.1-0.3,0.2-0.4c0.1-0.2,0.3-0.4,0.4-0.4c0,0,0.1,0,0.1,0.1c0,0.1,0,0.1,0,0.2
		c0,0,0,0,0,0.1c0,0.1,0.1,0.2,0.4,0.2c0.4,0,0.9-0.2,1.5-0.3c1.1-0.4,2.7-0.9,3.2-1.1c0.4-0.1,0.7-0.2,1-0.2c0.4,0,0.9,0.2,1.8,0.6
		c0.4,0.3,0.6,0.5,0.6,0.7c0,0.4-0.6,0.8-0.8,0.9c-0.8,0.7-1.6,2.3-2.9,4c2.4,0.3,4.2,1.3,4.9,2.3c0.3,0.4,0.5,1,0.5,1.6
		c0,0.3-0.1,0.7-0.3,0.9c-0.1,0.1-0.4,0.3-0.7,0.3c-0.4,0-1-0.3-1.5-1.3c-0.5-1-1.6-2.5-3.2-3.4C26.9,119.3,24.4,121.7,20.4,122.3z"
		/>
</g>
<g id="グループ_25_1_" transform="translate(-974.272 -939)">
	<g id="グループ_15_1_" transform="translate(936.659 813.427)">
		<path id="パス_113_1_" class="st0" d="M-72.5,128.4l0.4-0.2l0.4,0.2l6.3,3.7l-2-6.5h-26l-2.3,7.6h15.1L-72.5,128.4z"/>
		<path id="パス_114_1_" class="st0" d="M-66.7,135l-0.7-0.4l-4.7-2.8l-4.7,2.8l-0.7,0.4l-0.7,0.4l-1.4,0.8l-0.2,0.1h-16.5v14.4
			h9.6v-10.1h14.2v10.1h0.9v-10.1h4.8v10.1h2.3v-14.4l-1.6-0.9L-66.7,135z"/>
		<path id="パス_115_1_" class="st0" d="M-64,133.8l-0.5-0.3l-0.5-0.3l-7-4.2l-8.3,4.9h-17.4v1.6H-80l0.2-0.1l0.7-0.4l0.7-0.4
			l6.3-3.7l6.3,3.7l0.7,0.4l0.7,0.4l0,0l0.4,0.2l0.4,0.2l0.5,0.3l0.8-1.4L-64,133.8z"/>
	</g>
</g>
<text transform="matrix(1 0 0 1 -117.6167 36.097)" class="st0" style="font-family:'ManyoGyoshoStd-E-83pv-RKSJ-H'; font-size:20px;glyph-orientation-vertical:0;writing-mode:tb; letter-spacing:8;">アクセス</text>
</svg>
