<?xml version="1.0" encoding="utf-8"?>
<!-- Generator: Adobe Illustrator 24.3.0, SVG Export Plug-In . SVG Version: 6.00 Build 0)  -->
<svg version="1.1" id="レイヤー_1" xmlns="http://www.w3.org/2000/svg" xmlns:xlink="http://www.w3.org/1999/xlink" x="0px"
	 y="0px" viewBox="0 0 56.7 125.3" style="enable-background:new 0 0 56.7 125.3;" xml:space="preserve">
<style type="text/css">
	.st0{fill:#9D7D62;}
	.st1{enable-background:new    ;}
</style>
<g id="グループ_27" transform="translate(-715 -944.028)">
	<g id="グループ_17" transform="translate(689.781 831.883)">
		<path id="パス_119" class="st0" d="M52.5,131.8c-1.8,0.2-3.6,0.3-5.3,0.3c-1.8,0-3.6-0.1-5.3-0.3v1.3c1.7,0.4,3.5,0.6,5.3,0.5
			c1.8,0.1,3.6-0.1,5.3-0.5V131.8z"/>
		<path id="パス_120" class="st0" d="M35.8,120.9c0.6,1.5,1.4,3.5,2.4,3.7c0.9,0.1,1.6-1.3,2.1-2.5c0.6-1.2,1-2.1,1.9-2
			c0.7,0.1,1.2,0.9,2.2,2.4c0.8,1.4,2,3.2,2.9,3.3c0.7,0.1,1.4-1.4,2-2.6c0.8-1.6,1.6-3.1,2.9-3c1.2,0.1,1.9,1.3,2.5,2.4
			c0.4,0.8,0.9,1.7,1.4,1.7c0.7,0.1,2.2-2.7,2.8-3.9c0.3-0.7,0.7-1.4,1.2-2v-3.9c-3,1.3-11,1.4-12.9,1.4s-9.9-0.1-12.9-1.4v3.7
			C34.9,118.6,35.2,119.5,35.8,120.9z"/>
		<path id="パス_121" class="st0" d="M47.2,130.9c1.5,0,2.8-0.1,4-0.2c0.6,0,1.2-0.1,1.7-0.2c0.2,0,0.5-0.1,0.7-0.1
			c6.4-1,6.5-3.5,6.5-3.6v-6.4c-0.1,0.2-0.2,0.3-0.3,0.5c-1.4,2.6-2.5,4.6-3.9,4.5c-1.1-0.1-1.7-1.2-2.3-2.3
			c-0.5-0.9-0.9-1.8-1.6-1.9c-0.5,0-1.3,1.4-1.8,2.4c-0.8,1.5-1.7,3.1-3,3.1h-0.1c-1.4-0.1-2.7-2.1-3.7-3.8
			c-0.4-0.7-0.8-1.3-1.3-1.9c-0.3,0.4-0.6,0.9-0.8,1.4c-0.7,1.5-1.6,3.3-3.3,3.1c-1.6-0.2-2.5-2.4-3.3-4.3c-0.1-0.3-0.3-0.8-0.5-1.1
			v6.8c0,0.8,1.4,2.7,6.6,3.5c0.2,0,0.5,0.1,0.7,0.1c0.5,0.1,1.1,0.1,1.7,0.2C44.5,130.9,45.7,130.9,47.2,130.9z"/>
		<path id="パス_122" class="st0" d="M47.2,114.9c7,0,11.8-0.8,12.8-1.4l0,0l0,0c0,0-0.1,0-0.1-0.1s-0.1,0-0.1-0.1s-0.1,0-0.1-0.1
			s-0.1,0-0.2-0.1s-0.1,0-0.2-0.1s-0.2,0-0.2-0.1l-0.2-0.1c-0.1,0-0.2,0-0.3-0.1l-0.3-0.1c-0.1,0-0.2,0-0.3-0.1l-0.3-0.1
			c-0.1,0-0.3,0-0.4-0.1l-0.3-0.1c-0.1,0-0.3,0-0.4-0.1h-0.4c-0.2,0-0.3,0-0.5-0.1c-0.1,0-0.3,0-0.4,0c-0.2,0-0.3,0-0.5-0.1
			c-0.1,0-0.3,0-0.4,0h-0.6c-0.1,0-0.3,0-0.4,0c-0.2,0-0.4,0-0.6,0c-0.2,0-0.3,0-0.5,0s-0.4,0-0.7,0c-0.2,0-0.3,0-0.5,0
			s-0.5,0-0.7,0s-0.3,0-0.5,0c-0.3,0-0.6,0-0.8,0c-0.1,0-0.3,0-0.4,0c-0.4,0-0.9,0-1.3,0c-0.5,0-0.9,0-1.3,0c-0.1,0-0.3,0-0.4,0
			c-0.3,0-0.6,0-0.8,0h-0.5c-0.2,0-0.5,0-0.7,0h-0.5c-0.2,0-0.4,0-0.7,0c-0.2,0-0.3,0-0.5,0s-0.4,0-0.6,0h-0.5c-0.2,0-0.4,0-0.6,0
			c-0.1,0-0.3,0-0.4,0c-0.2,0-0.4,0-0.5,0.1H39c-0.2,0-0.3,0-0.5,0.1c-0.1,0-0.2,0-0.4,0c-0.1,0-0.3,0-0.4,0.1l-0.3,0.1
			c-0.1,0-0.3,0-0.4,0.1l-0.3,0.1c-0.1,0-0.2,0-0.3,0.1l-0.3,0.1c-0.1,0-0.2,0-0.3,0.1c-0.1,0-0.1,0-0.2,0.1c-0.1,0-0.2,0-0.2,0.1
			s-0.1,0-0.2,0.1c-0.1,0.1-0.1,0-0.2,0.1c-0.1,0.1-0.1,0-0.1,0.1s-0.1,0-0.1,0.1s-0.1,0-0.1,0.1l0,0l0,0
			C35.4,114.1,40.2,114.9,47.2,114.9z"/>
		<path id="パス_123" class="st0" d="M76.8,133.7c0-0.2-0.2-0.4-0.4-0.4l-7.8-1.8c-0.2-2.6-2.3-4.6-4.9-4.6c-1,0-1.9,0.3-2.7,0.8
			c-0.8,0.5-1.4,1.2-1.8,2.1c-0.3,0.6-0.5,1.3-0.5,2l-7.2,4.5c-0.3,0.2-0.3,0.5-0.2,0.8c0.1,0.1,0.2,0.2,0.3,0.2l7.5,1.8l-1.8,0.7
			c-0.5,0.2-0.9,0.5-1.3,0.8c-0.7,0.5-0.9,0.8-0.8,1.1c0.1,0.2,0.4,0.3,0.7,0.3c0.7,0,1.5-0.2,2.1-0.4l4.1-1.7l3.9,0.9h0.1
			c0.1,0,0.2,0,0.3-0.1l10.1-6.3C76.8,134.1,76.9,133.9,76.8,133.7z M63.9,139l8.3-3.5c0.1,0,0.1-0.1,0.1-0.2c0-0.1-0.1-0.1-0.2-0.1
			c-1.1,0.4-2.2,0.6-3.3,0.8c0.9-0.7,1.9-1.3,2.9-1.8c0.1,0,0.1-0.2,0.1-0.2l-0.2-0.1L61,138.4l-7.7-1.8l5.7-3.5
			c0.2,0.9,0.7,1.7,1.3,2.3c0.1,0.1,0.1,0.1,0.2,0.1c1.1,0.3,2.2,0.4,3.3,0.5h0.1c1.1,0,2.2-0.1,3.2-0.4c0.1,0,0.1-0.1,0.2-0.1
			c0.8-0.7,1.3-1.7,1.4-2.8l6.3,1.5l-8.8,5.4L63.9,139z"/>
	</g>
</g>
<g class="st1">
	<path class="st0" d="M30,47.8c0,0.2-0.2,0.3-0.4,0.3c-1.4,0-1.6-2.1-1.6-3c0-0.6,0-0.7,0-0.7c-0.8,1.1-2,2.6-2,4v0.1
		c0,0.7,0.1,1.3,0.1,2c0,1.3-0.5,2-0.8,2s-1-0.7-1-1.5s0.1-1.6,0.1-2.4c-1,0.7-1.6,1.7-2.6,2.4c-0.1,0.1-0.2,0.1-0.3,0.1
		c-0.2,0-0.6-0.3-0.6-0.8c0-0.2,0-0.5,0.1-0.7c0-0.2,0.1-0.3,0.2-0.4l2.5-3.5c0.3-0.4,0.7-1.5,0.9-2c-1.1,0.5-2.3,1-3.2,2
		c-0.1,0.1-0.2,0.2-0.3,0.2c-0.2,0-1-0.4-1-1.2s1.8-2.4,1.9-2.4l0.1,0.1L22,43.3c1.1-0.6,2.2-1.2,3.2-1.9c-0.1-0.5-0.3-0.8-0.6-1
		l-0.1-0.1c0-0.1,0-0.1,0.1-0.2l0.5-0.4c-1.1,0.5-2.6,0.8-3.9,0.8H21l0,0c0,0,0-0.1,0.1-0.1c1.4-0.7,3.6-2,4.4-3.2L25,36.8v-0.1
		c0-0.1,0-0.1,0.1-0.1c0.5-0.2,1-0.5,1.5-0.6h0.1c0.1,0,0.2,0,0.2,0c0.8,0.3,1.9,0.4,1.9,1.5v0.2c0,0.1-0.1,0.2-0.3,0.2
		c-1.1,0.2-2.2,1.3-3.2,1.8c0.6,0,1.4,0.1,1.4,0.6v0.4c0.7,0.1,1.3,0,1.8,0.5c0.1,0.1,0.1,0.2,0.1,0.3v0.1c-0.4,0.8-1.2,1.1-1.9,1.6
		c-0.2,0.8-0.6,1.5-0.6,2.3v0.3c0.8-0.5,1.4-1.2,2-1.8c0.1-0.1,0.2-0.1,0.3-0.1c0.2,0,0.5,0.1,0.9,0.7c1.3-1.3,3.4-2.5,5.3-2.5
		c1.1,0,2.6,1,2.6,1.4c0,0.1,0,0.1-0.1,0.2c-0.7,1-1.9,1.6-2.3,2.4c0.4,0.3,1.1,0.5,1.1,1.1c0,0.3-0.4,0.6-0.6,0.7
		c-0.5,0.2-2.4,0.4-3,0.4c-1.2,0-1.2-0.7-1.2-0.7c0-0.1,0-0.1,0-0.2c0.3-0.8,1.2-1.2,1.8-1.7c0.5-0.5,0.9-1.3,1.2-1.9
		c-1.4,0-3.5,0.5-4.4,1.6c0.5,1.2,0.7,2,0.7,2.4c0,0.1,0,0.2-0.1,0.3L30,47.8z"/>
	<path class="st0" d="M20.7,77.8c-0.3,0.1-0.5,0.1-0.6,0.1H20c0-0.1,0.3-0.3,0.5-0.3c2.8-1.8,5.7-5.6,7-8.8
		c-0.5,0.2-0.9,0.4-1.4,0.7c-0.7,0.3-1,0.6-1.5,0.6c-0.2,0-0.4,0-0.6-0.1c-0.9-0.3-1.4-0.9-1.4-1.5c0-0.3,0.1-0.5,0.3-0.7
		c0.2-0.2,0.3-0.2,0.4-0.2s0.1,0,0.1,0.1s0,0.1,0,0.1c0,0.1-0.1,0.1-0.1,0.2c0,0.2,0.3,0.3,0.6,0.3c0.3,0,0.7-0.1,1-0.2
		c1.1-0.3,2.1-0.6,3-0.9c0.1-0.5,0.2-1.1,0.2-1.5c0-0.3,0-0.7-0.1-0.9c-0.1-0.2-0.3-0.3-0.5-0.3h-0.1c-0.2,0.1-0.3,0.1-0.4,0.1
		c0,0-0.1,0-0.1-0.1c0,0,0-0.1,0-0.2c0.3-1,0.8-1.3,1.3-1.3s1,0.3,1.3,0.5c0.5,0.4,0.7,0.8,0.7,1.4c0,0.3-0.1,0.6-0.1,1
		c0,0.3-0.1,0.5-0.2,0.8c0.3-0.1,0.6-0.1,0.9-0.2c0.5-0.1,0.9-0.2,1.2-0.2c0.5,0,0.9,0.2,1.7,0.7c0.2,0.2,0.3,0.3,0.3,0.5
		c0,0.3-0.3,0.6-0.5,0.9c-1.1,2.2-0.7,6.7-3.8,8c-0.5,0.2-0.8,0.3-1.1,0.3c-0.9,0-1.3-0.9-2.2-2.7C25,75.7,23.1,77.1,20.7,77.8z
		 M31.6,68.2c0-0.2-0.1-0.4-0.3-0.5c-0.1,0-0.1,0-0.2,0c-0.4,0-0.9,0.1-1.4,0.3c-0.6,1.8-1.5,3.8-2.8,5.5c0.4,0.4,1,0.7,1.3,0.8
		c0.2,0.1,0.3,0.1,0.5,0.1c0.3,0,0.6-0.1,0.8-0.3C30.9,73.1,31.2,69.9,31.6,68.2L31.6,68.2z"/>
	<path class="st0" d="M22,102L22,102c0-0.1,0.3-0.2,0.7-0.5c3.3-2.1,7.1-7.3,8.6-11c0-0.1,0-0.1,0-0.2c0-0.2-0.2-0.3-0.4-0.3h-0.1
		c-1.1,0.1-3.4,1.3-4.2,1.7c-0.5,0.2-0.8,0.4-1.2,0.4c-0.1,0-0.3,0-0.4,0c-0.7-0.2-2.4-0.7-2.4-1.5c0-0.1,0-0.3,0.1-0.4
		c0.1-0.2,0.3-0.4,0.4-0.4s0.1,0.1,0.1,0.3c0,0,0,0.1,0,0.2l0,0c0,0.2,0.2,0.3,0.5,0.3c0.4,0,1-0.1,1.6-0.3c1.2-0.4,4.3-1.4,5.3-1.5
		c0.4-0.1,0.8-0.1,1.2-0.1c0.5,0,1.1,0.1,1.8,0.6c0.5,0.3,0.7,0.6,0.7,0.8c0,0.4-0.5,0.7-0.7,0.9c-1.4,1.2-2.6,8.8-10.8,11.1
		C22.4,101.9,22.1,102,22,102z"/>
	<path class="st0" d="M31,116.7c0.6-0.1,1.1-0.2,1.6-0.2c0.3,0,0.6,0,1,0c0.9,0,1.8,0.1,2.4,0.7c0.3,0.3,0.4,0.5,0.4,0.7
		c0,0.4-0.4,0.6-1,0.6c-0.1,0-0.1,0-0.2,0s-0.1,0-0.2,0c-0.6,0-1.3,0.1-2,0.3c-0.3,0.1-0.5,0.1-0.6,0.1s-0.2,0-0.2-0.1
		c0,0,0-0.1,0.1-0.1c0.1-0.1,0.9-0.5,0.9-0.7c0,0,0-0.1-0.1-0.1c-0.3,0-0.5,0-0.8,0c-1.5,0-3.1,0.4-3.9,0.9
		c-0.5,0.3-0.9,0.4-1.2,0.4c-0.1,0-0.2,0-0.3,0c-1.3-0.3-1.6-0.7-1.7-1c0-0.1,0-0.1,0-0.1c0-0.3,0.2-0.3,0.6-0.3
		c0.6-0.1,0.9-0.1,1.5-0.2c0.6-0.2,1.3-0.3,1.9-0.4c0.1-0.5,0.3-1.2,0.4-1.8c0.1-0.4,0.1-0.7,0.1-0.9c0-0.1,0-0.2,0-0.3l-0.2,0.1
		c-0.1,0-0.3,0.1-0.4,0.1c-0.9,0-1.8-0.7-1.9-0.8c-0.1-0.1-0.1-0.2-0.2-0.2c-0.1-0.1-0.1-0.2-0.1-0.2s0.1-0.1,0.2-0.1h0.1
		c0.1,0,0.2,0,0.3,0c0.1,0,0.2,0,0.3,0c1.2,0,2.5-0.3,3.5-0.9c0.1,0,0.3-0.2,0.5-0.2h0.1c0.5,0,1.4,0.2,1.5,0.5c0,0.1,0,0.2,0,0.3
		c0,0.3-0.3,0.5-0.9,0.8c-0.4,0.2-0.9,0.3-1.4,0.4c0.1,0,0.2,0.1,0.2,0.1c0.2,0.2,0.3,0.3,0.3,0.4s0,0.2-0.1,0.4
		c-0.1,0.1-0.1,0.2-0.2,0.4c-0.1,0.3-0.3,0.8-0.5,1.3L31,116.7z"/>
</g>
<g id="グループ_27_1_" transform="translate(-715 -944.028)">
	<g id="グループ_17_1_" transform="translate(689.781 831.883)">
		<path id="パス_119_1_" class="st0" d="M-54.4,131.8c-1.8,0.2-3.6,0.3-5.3,0.3c-1.8,0-3.6-0.1-5.3-0.3v1.3
			c1.7,0.4,3.5,0.6,5.3,0.5c1.8,0.1,3.6-0.1,5.3-0.5V131.8z"/>
		<path id="パス_120_1_" class="st0" d="M-71.1,120.9c0.6,1.5,1.4,3.5,2.4,3.7c0.9,0.1,1.6-1.3,2.1-2.5c0.6-1.2,1-2.1,1.9-2
			c0.7,0.1,1.2,0.9,2.2,2.4c0.8,1.4,2,3.2,2.9,3.3c0.7,0.1,1.4-1.4,2-2.6c0.8-1.6,1.6-3.1,2.9-3c1.2,0.1,1.9,1.3,2.5,2.4
			c0.4,0.8,0.9,1.7,1.4,1.7c0.7,0.1,2.2-2.7,2.8-3.9c0.3-0.7,0.7-1.4,1.2-2v-3.9c-3,1.3-11,1.4-12.9,1.4s-9.9-0.1-12.9-1.4v3.7
			C-72,118.6-71.7,119.5-71.1,120.9z"/>
		<path id="パス_121_1_" class="st0" d="M-59.7,130.9c1.5,0,2.8-0.1,4-0.2c0.6,0,1.2-0.1,1.7-0.2c0.2,0,0.5-0.1,0.7-0.1
			c6.4-1,6.5-3.5,6.5-3.6v-6.4c-0.1,0.2-0.2,0.3-0.3,0.5c-1.4,2.6-2.5,4.6-3.9,4.5c-1.1-0.1-1.7-1.2-2.3-2.3
			c-0.5-0.9-0.9-1.8-1.6-1.9c-0.5,0-1.3,1.4-1.8,2.4c-0.8,1.5-1.7,3.1-3,3.1h-0.1c-1.4-0.1-2.7-2.1-3.7-3.8
			c-0.4-0.7-0.8-1.3-1.3-1.9c-0.3,0.4-0.6,0.9-0.8,1.4c-0.7,1.5-1.6,3.3-3.3,3.1c-1.6-0.2-2.5-2.4-3.3-4.3c-0.1-0.3-0.3-0.8-0.5-1.1
			v6.8c0,0.8,1.4,2.7,6.6,3.5c0.2,0,0.5,0.1,0.7,0.1c0.5,0.1,1.1,0.1,1.7,0.2C-62.4,130.9-61.2,130.9-59.7,130.9z"/>
		<path id="パス_122_1_" class="st0" d="M-59.7,114.9c7,0,11.8-0.8,12.8-1.4l0,0l0,0c0,0-0.1,0-0.1-0.1s-0.1,0-0.1-0.1
			s-0.1,0-0.1-0.1s-0.1,0-0.2-0.1s-0.1,0-0.2-0.1s-0.2,0-0.2-0.1l-0.2-0.1c-0.1,0-0.2,0-0.3-0.1l-0.3-0.1c-0.1,0-0.2,0-0.3-0.1
			l-0.3-0.1c-0.1,0-0.3,0-0.4-0.1l-0.3-0.1c-0.1,0-0.3,0-0.4-0.1h-0.4c-0.2,0-0.3,0-0.5-0.1c-0.1,0-0.3,0-0.4,0
			c-0.2,0-0.3,0-0.5-0.1c-0.1,0-0.3,0-0.4,0h-0.6c-0.1,0-0.3,0-0.4,0c-0.2,0-0.4,0-0.6,0c-0.2,0-0.3,0-0.5,0s-0.4,0-0.7,0
			c-0.2,0-0.3,0-0.5,0s-0.5,0-0.7,0s-0.3,0-0.5,0c-0.3,0-0.6,0-0.8,0c-0.1,0-0.3,0-0.4,0c-0.4,0-0.9,0-1.3,0c-0.5,0-0.9,0-1.3,0
			c-0.1,0-0.3,0-0.4,0c-0.3,0-0.6,0-0.8,0h-0.5c-0.2,0-0.5,0-0.7,0h-0.5c-0.2,0-0.4,0-0.7,0c-0.2,0-0.3,0-0.5,0s-0.4,0-0.6,0H-66
			c-0.2,0-0.4,0-0.6,0c-0.1,0-0.3,0-0.4,0c-0.2,0-0.4,0-0.5,0.1h-0.4c-0.2,0-0.3,0-0.5,0.1c-0.1,0-0.2,0-0.4,0c-0.1,0-0.3,0-0.4,0.1
			l-0.3,0.1c-0.1,0-0.3,0-0.4,0.1l-0.3,0.1c-0.1,0-0.2,0-0.3,0.1l-0.3,0.1c-0.1,0-0.2,0-0.3,0.1c-0.1,0-0.1,0-0.2,0.1
			c-0.1,0-0.2,0-0.2,0.1s-0.1,0-0.2,0.1s-0.1,0-0.2,0.1s-0.1,0-0.1,0.1s-0.1,0-0.1,0.1s-0.1,0-0.1,0.1l0,0l0,0
			C-71.5,114.1-66.7,114.9-59.7,114.9z"/>
		<path id="パス_123_1_" class="st0" d="M-30.1,133.7c0-0.2-0.2-0.4-0.4-0.4l-7.8-1.8c-0.2-2.6-2.3-4.6-4.9-4.6
			c-1,0-1.9,0.3-2.7,0.8c-0.8,0.5-1.4,1.2-1.8,2.1c-0.3,0.6-0.5,1.3-0.5,2l-7.2,4.5c-0.3,0.2-0.3,0.5-0.2,0.8
			c0.1,0.1,0.2,0.2,0.3,0.2l7.5,1.8l-1.8,0.7c-0.5,0.2-0.9,0.5-1.3,0.8c-0.7,0.5-0.9,0.8-0.8,1.1c0.1,0.2,0.4,0.3,0.7,0.3
			c0.7,0,1.5-0.2,2.1-0.4l4.1-1.7l3.9,0.9h0.1c0.1,0,0.2,0,0.3-0.1l10.1-6.3C-30.1,134.1-30,133.9-30.1,133.7z M-43,139l8.3-3.5
			c0.1,0,0.1-0.1,0.1-0.2c0-0.1-0.1-0.1-0.2-0.1c-1.1,0.4-2.2,0.6-3.3,0.8c0.9-0.7,1.9-1.3,2.9-1.8c0.1,0,0.1-0.2,0.1-0.2l-0.2-0.1
			l-10.6,4.5l-7.7-1.8l5.7-3.5c0.2,0.9,0.7,1.7,1.3,2.3c0.1,0.1,0.1,0.1,0.2,0.1c1.1,0.3,2.2,0.4,3.3,0.5h0.1c1.1,0,2.2-0.1,3.2-0.4
			c0.1,0,0.1-0.1,0.2-0.1c0.8-0.7,1.3-1.7,1.4-2.8l6.3,1.5l-8.8,5.4L-43,139z"/>
	</g>
</g>
<text transform="matrix(1 0 0 1 -76.5228 33.4819)" class="st0" style="font-family:'ManyoGyoshoStd-E-83pv-RKSJ-H'; font-size:20px;glyph-orientation-vertical:0;writing-mode:tb; letter-spacing:8;">和カフェ</text>
</svg>
