<?xml version="1.0" encoding="utf-8"?>
<!-- Generator: Adobe Illustrator 24.3.0, SVG Export Plug-In . SVG Version: 6.00 Build 0)  -->
<svg version="1.1" id="レイヤー_1" xmlns="http://www.w3.org/2000/svg" xmlns:xlink="http://www.w3.org/1999/xlink" x="0px"
	 y="0px" viewBox="0 0 56.7 198.4" style="enable-background:new 0 0 56.7 198.4;" xml:space="preserve">
<style type="text/css">
	.st0{fill:#9D7D62;}
	.st1{enable-background:new    ;}
</style>
<g id="グループ_89" transform="translate(-926.887 -693.028)">
	<g id="グループ_87" transform="translate(926.887 693.028)">
		<g id="グループ_85" transform="translate(11.844 12.667)">
			<ellipse id="楕円形_1" class="st0" cx="16.5" cy="1.4" rx="1.4" ry="1.4"/>
			<ellipse id="楕円形_2" class="st0" cx="13.7" cy="3.5" rx="1.4" ry="1.4"/>
			<path id="パス_763" class="st0" d="M13.6,5.9c0.5-0.6,1.3-0.8,2-0.3c0.7,0.5,0.8,1.3,0.3,2c-0.5,0.6-1.3,0.8-2,0.3
				C13.3,7.4,13.2,6.6,13.6,5.9z"/>
			<path id="パス_764" class="st0" d="M17.1,7.6c-0.5-0.6-0.3-1.5,0.3-2s1.5-0.3,2,0.3s0.3,1.5-0.3,2C18.4,8.4,17.6,8.2,17.1,7.6z
				"/>
			<ellipse id="楕円形_3" class="st0" cx="19.3" cy="3.5" rx="1.4" ry="1.4"/>
		</g>
		<path id="パス_765" class="st0" d="M44.6,12.8l-1.8-0.6l1.1-1.6c0.1-0.2,0.1-0.5-0.1-0.6c-1-0.9-4.2-3.5-6.8-3.5
			c-0.4,0-0.8,0.1-1.2,0.2c0.2-3-4.2-5.9-5.6-6.7c-0.2-0.1-0.5-0.1-0.6,0.1l-1.2,1.5l-1.2-1.5c-0.2-0.1-0.4-0.2-0.6,0
			c-1.4,0.8-5.8,3.7-5.6,6.6c-0.4-0.1-0.8-0.2-1.2-0.2C17.2,6.5,14,9.1,13,10c-0.2,0.2-0.2,0.4-0.1,0.6l1.1,1.6l-1.8,0.6
			c-0.3,0.1-0.4,0.4-0.4,0.6c0.4,1.5,1.7,6.6,4.6,7.4c-1.9,2.3,0,7.2,0.6,8.7c0.1,0.2,0.3,0.3,0.6,0.3l1.8-0.5l0.1,1.9
			c0,0.2,0.2,0.4,0.4,0.5c0.4,0,1.1,0.1,1.9,0.1c2.2,0,5.4-0.3,6.6-2.2c1.2,1.9,4.4,2.2,6.6,2.2c0.8,0,1.4,0,1.9-0.1
			c0.2,0,0.4-0.2,0.4-0.5l0.1-1.9l1.8,0.5c0.2,0.1,0.5,0,0.6-0.3c0.6-1.4,2.5-6.4,0.6-8.7c2.9-0.7,4.3-5.8,4.6-7.4
			C45,13.2,44.8,12.9,44.6,12.8z M39.8,18.9l-2.9,0.7l1.9,2.4c0.7,0.8,0.5,3-0.4,5.6l-0.6-0.2l-2.3-0.7l-0.1,2.4v0.6
			c-0.1,0-0.3,0-0.4,0c-3.1,0-4.6-0.7-5-1.3l-1.6-2.6l-1.6,2.6c-0.4,0.6-1.9,1.3-5,1.3c-0.2,0-0.3,0-0.4,0v-0.6l-0.1-2.4L19,27.4
			l-0.6,0.2c-1-2.6-1.2-4.8-0.5-5.6l1.9-2.3L16.9,19c-1-0.3-2.2-2.2-2.9-4.7l0.6-0.3l2.2-0.9l-1.4-2l-0.3-0.5
			c1.5-1.1,3.4-2.2,4.7-2.2c0.2,0,0.4,0,0.5,0.1l2.8,1.1l-0.2-3c-0.1-1,1.4-2.7,3.6-4.3l0.4,0.5l1.5,1.9l1.5-1.9l0.4-0.5
			c2.2,1.5,3.7,3.2,3.6,4.3l-0.2,3l2.8-1.1c0.2-0.1,0.3-0.1,0.5-0.1c1.3,0,3.1,1.1,4.6,2.2l-0.3,0.5l-1.4,2l2.3,0.8l0.6,0.2
			C42,16.7,40.8,18.7,39.8,18.9L39.8,18.9z"/>
	</g>
</g>
<g class="st1">
	<path class="st0" d="M29.8,56.2c0,0.2,0,0.4,0,0.7c0,2.4-2.4,3.6-3.2,3.6c-0.1,0-0.2,0-0.2-0.1c-0.7-0.7-1-1.6-1.7-2.3
		c-0.6-0.6-1.6-1-2.1-1.8c0,0,0-0.1,0-0.1c0-0.1,0.1-0.2,0.1-0.3c1-1.2,2.8-1.8,4.2-2.4L26.5,53c-0.1-0.1-0.2-0.2-0.2-0.3
		c0,0,0-0.1,0-0.1c0.1-0.6,0.8-0.9,1.2-1.4c-1,0.1-1.9,0.7-2.7,1.3c-0.1,0.1-0.2,0.1-0.3,0.1c0,0-0.1,0-0.1,0l-0.3-0.1
		c-0.1,0-0.2-0.1-0.2-0.3c0-0.2-0.1-0.4-0.1-0.6c0-0.1,0-0.2,0-0.3c0-0.2,0.1-0.3,0.2-0.4c0.4-0.2,0.7-0.5,0.9-0.9c0,0,0,0,0.1,0
		s0.1,0,0.1,0.1l0.3,0.4l0.7-0.4c-0.4-0.4-0.7-0.8-1.1-1.3c0,0,0,0,0-0.1c0-0.1,0-0.1,0.1-0.1c0.5,0.1,1,0.2,1.4,0.2
		c0.1,0,0.2,0,0.2,0l0-1.7c-1.7,0.9-3.2,2.2-4.6,3.5l0.9-0.2h0c0,0,0,0,0,0c0,0,0,0.1,0,0.1c-1,0.8-1.9,1.7-2.9,2.5
		c-0.1,0.1-0.2,0.1-0.3,0.1c-0.1,0-0.1,0-0.2-0.1c-0.2-0.2-0.3-0.5-0.3-0.8c0-1.1,1-1.8,1.8-2.4l3.5-2.9L22,47.9c-0.1,0-0.1,0-0.2,0
		c-0.4,0-1.2-0.9-1.2-1.3c0-0.1,0.1-0.3,0.2-0.3c0.2-0.2,0.3-0.3,0.5-0.5c0,0,0.1,0,0.1,0c0.1,0,0.1,0,0.2,0.1
		c0.1,0.2,0.3,0.3,0.4,0.4l4.7-1.3l-0.3-0.7c-0.8,0.2-1.6,0.3-2.4,0.3c-0.5,0-1,0-1.5-0.1c0,0-0.1,0-0.1,0c0,0,0,0,0,0
		c1.6-0.5,3.2-1.4,4.6-2.2L27,42c0,0,0,0,0-0.1c0-0.1,0-0.1,0.1-0.1l1.8-0.1h0c0.5,0,1.8,0.5,1.8,1.1c0,0.1,0,0.1-0.1,0.2
		c0,0.1-0.1,0.1-0.1,0.1c-0.3,0.2-2.2,0.4-3,0.9c0.4,0.1,0.8,0.2,1,0.5l2.6-0.5h0.1c0.1,0,2.2,0.2,2.2,1.2c0,0.4-1,0.7-1.9,0.7h-0.1
		c-0.5,0-1,0-1.5,0c-0.6,0-1.1,0.1-1.6,0.3v0.6c0.8,0,1.5-0.1,2.3-0.1c3.7,0,5,1.9,5,2.4c0,0.3-0.4,0.8-0.7,0.8
		c-1.2,0-2.1-1.1-3.1-1.1c-0.9,0-2,0-2.8,0.2c0,0,0,0,0,0c0,0,0,0,0-0.1l1.5-1l-2.2-0.5l0.1,1.9c0.6,0,1.2,0.1,1.7,0.3
		c0.4,0.1,0.6,0.5,0.6,1c0,0.2-0.1,0.3-0.2,0.4c-1.1,0.6-2,0.6-2.9,1.7l0.9,0.3c0.7-0.1,1.6-0.3,2.3-0.3c2.2,0,3.1,1.4,3.1,1.7
		c0,0,0,0.1-0.1,0.1c-0.5,0.7-1.5,0.9-2.3,1.2L29.8,56.2z M25.6,56.6C25.6,56.6,25.5,56.6,25.6,56.6C25.5,56.5,25.6,56.5,25.6,56.6
		l2.6-1.1L28,54.6c-1,0.1-3.8,0.6-4.3,1.5c0.5,0.4,1.1,0.7,1.6,1c0.6,0.3,1.1,0.8,1.6,1.2c0.7-0.3,1.4-0.9,1.4-1.7
		c0-0.1,0-0.2,0-0.2L25.6,56.6z M29.6,55c0.4-0.2,1.1-0.3,1.6-0.8c-0.2,0-0.5-0.1-0.7-0.1c-0.4,0-0.8,0-1.1,0.1L29.6,55z"/>
	<path class="st0" d="M27.2,80.1C27.2,80.1,27.2,80.1,27.2,80.1C27.2,80.1,27.2,80.1,27.2,80.1L27.2,80.1c-0.3,0.8-0.5,1.6-0.5,2.5
		c0,0.5,0,1,0.1,1.5c0,0.1,0,0.1,0,0.2c0,0-0.1,1.1-1,1.1c-0.6,0-0.9-0.7-1-1.2c-1.1,0.7-3.1,1.9-4.2,2.9c-0.1,0.1-0.1,0.1-0.2,0.1
		c-0.3,0-0.7-0.5-0.7-1.5c0-0.1,0.1-0.3,0.2-0.4c0.9-0.9,1.1-2.1,1.2-3.3c0-0.4,0.1-0.7,0.1-1.1c0-0.5,0-1.2-0.3-1.6l-0.8,0.4
		c0,0-0.1,0-0.1,0c-0.3,0-0.4-0.4-0.4-1.1c0-0.1,0-0.1,0-0.2c0-0.2,0.1-0.3,0.2-0.4l0.8-0.7c0,0,0,0,0.1,0c0,0,0.1,0,0.1,0.1
		l-0.1,0.4c1.3-0.4,3-0.8,4.3-1.4c0.1-0.1,0.2-0.1,0.4-0.1c0.3,0,2.1,0.6,2.1,1.3c0,0,0,0.4-0.2,0.4c-0.8,0.2-0.9,1-1.1,1.7
		c-0.4,1.7-0.6,1.9-0.9,2c-0.1,0-0.2,0-0.3,0c-0.1,0-0.2,0-0.3,0l-0.5-0.1l-1.7,0.8l-0.3,1.7l2.1-1.1c-0.1-0.3-0.2-0.6-0.3-0.8
		c0,0,0-0.1,0-0.1c0-0.1,0-0.1,0.1-0.1s1,0.2,1.5,0.5L27.2,80.1z M27,73C27,73,27.1,73,27,73C27.1,73.1,27.1,73.1,27,73
		c-0.6,0.9-1.7,2.3-2.2,3.2c0,0.1-0.1,0.1-0.2,0.1c0,0-0.1,0-0.1,0c-0.9-0.4-0.7-1.3-1.3-1.9c-0.6,0.2-0.9,0.7-1.4,0.9
		c-0.1,0-0.1,0-0.2,0c-0.6,0-0.6-0.9-0.6-1.4c0-0.1,0-0.3,0.1-0.4c0.4-0.6,1.3-1.6,1.3-2.2c0,0,0-0.1,0-0.1l-0.1-0.7v0
		c0-0.1,0-0.1,0.1-0.1c0,0,1.6,0.9,1.6,2.2v0c0.5-0.4,1.1-0.6,1.7-0.6c0.5,0,1,0.6,1,0.8c0,0.1,0,0.1-0.1,0.1
		c-0.8,0.4-1.7,0.5-2.5,1l1,0.4L27,73L27,73z M24.9,78c-1,0-1.9,0.2-2.7,0.6l0.3,0.7c0.4-0.2,1.2-0.8,1.6-0.8h0.1l0.6,0.1L24.9,78z
		 M24.7,79.6c-0.6,0-1.5,0.1-2,0.5l0,0.8c0.7-0.1,1.2-0.6,1.9-0.7L24.7,79.6z M32.6,74.7c0,0.1-0.1,0.2-0.2,0.3
		c-1.7,0.6-3.3,1.5-5,1.8c0,0,0,0,0,0c0,0,0,0,0,0c0.9-0.5,2.3-1.4,2.7-2.3l-0.4-0.3c-0.7,0.1-1.4,0.2-1.9,0.6c0,0-0.1,0.1-0.2,0.1
		c0,0-0.1,0-0.1-0.1l-0.2-0.4c0-0.1-0.1-0.2-0.1-0.3v-0.1c0.1-1,1-1.8,1.5-2.6l-0.9-0.3c0,0-0.1,0-0.1-0.1c0-0.1,1.1-0.7,1.5-0.7
		c1.1,0,2,0.3,2,0.7c0,0.1,0,0.1-0.1,0.2c-0.4,0.6-1,0.9-1.5,1.5c0.4,0,1.3-0.5,1.8-0.7c0.1-0.1,0.2-0.1,0.4-0.1c1,0,2.2,0,2.5,1.1
		c0,0,0,0.1,0,0.1c0,0.1-0.1,0.2-0.2,0.2c-1,0.4-2,0.2-3,0.5c0.5,0.2,1,0.1,1.3,0.5c0,0.1,0.1,0.2,0.1,0.2
		C32.7,74.4,32.6,74.5,32.6,74.7L32.6,74.7z M30.3,81.7c0,5.1-1,6.9-1.2,6.9c0,0,0,0-0.1,0c-0.3-1-0.5-2.1-0.5-3.1
		c0-2.6,0.1-4.8,0.1-7.4c-0.4-0.2-1-0.8-1-0.9c0-0.1,0-0.1,0.1-0.1c0.5-0.1,1.1-0.1,1.5-0.2c1.2-0.2,2.3-0.7,3.6-1
		c0.1,0,0.2,0,0.2,0c0.1,0,0.2,0,0.2,0c1,0.3,2.2,0.8,2.2,2c0,0.1-0.1,0.2-0.3,0.3c-0.2,0.1-0.4,0.3-0.5,0.6
		c-0.1,0.4-0.1,0.9-0.1,1.3c-0.2,1.5-1.5,3.3-2.3,3.3c-0.1,0-0.2,0-0.3-0.1c-0.6-0.5-1.2-1.8-1.9-2.3V81.7z M30.3,80.4
		c0.4,0.2,1.1,0.3,1.5,0.3c1,0,1.2-1.9,1.2-2.6c0-0.2-0.1-0.5-0.1-0.7c-1.1,0-2,0.2-3,0.6l0.3,0.5c0.1,0.1,0.1,0.3,0.1,0.5
		L30.3,80.4z"/>
	<path class="st0" d="M27.5,100.2c0.4,0.3,0.6,0.8,0.6,1.5c0,0.5-0.1,1.1-0.4,1.8c-0.7,1.7-2.5,3.9-3.8,4.6c-0.6,0.3-1,0.5-1.4,0.5
		c-1,0-1.1-1.1-1.1-1.7c0-0.6-0.2-0.9-0.4-1.6c-0.1-0.2-0.1-0.5-0.1-0.7c0-0.4,0.1-0.8,0.3-1.1c1-1.9,2.9-3.4,4.9-4.2
		c0.7-0.3,1.5-0.5,2.3-0.5c1.3,0,2.6,0.4,3.9,1.4c1.4,1.1,2.1,2.4,2.1,3.8c0,1.7-1,3.4-2.9,4.9c-1.6,1.2-3.9,2-5.8,2.2
		c-0.2,0-0.3,0-0.4,0c-0.1,0-0.1,0-0.1,0c0,0,0.1-0.1,0.4-0.3c1.3-0.6,3.4-1.9,4.6-3.3c1.1-1.3,1.8-2.6,1.8-3.8
		c0-0.8-0.3-1.7-0.9-2.4c-0.6-0.8-1.6-1.3-2.7-1.3c-0.3,0-0.7,0-1,0.1C27.4,100.1,27.5,100.1,27.5,100.2z M22.7,103.5
		c-0.1,0.4-0.2,0.6-0.2,0.9c0,0.1,0,0.3,0,0.4c0,0.4,0.1,0.6,0.3,0.9c0.1,0.2,0.3,0.3,0.4,0.3c0.1,0,0.1,0,0.2-0.1
		c0.9-0.5,2.2-2,2.7-2.9c0.3-0.5,0.4-1,0.4-1.4s-0.1-0.7-0.3-0.9c-0.1-0.1-0.2-0.2-0.3-0.2C24.5,101.2,23.1,102.4,22.7,103.5z"/>
	<path class="st0" d="M29.1,134.4c0,0.2-0.2,0.3-0.4,0.3c-1.4,0-1.6-2.1-1.6-3c0-0.6,0-0.7,0-0.7c-0.8,1.1-2,2.6-2,4v0.1
		c0,0.7,0.1,1.3,0.1,2c0,1.3-0.5,2-0.8,2c-0.3,0-1-0.7-1-1.5c0-0.8,0.1-1.6,0.1-2.4c-1,0.7-1.6,1.7-2.6,2.4
		c-0.1,0.1-0.2,0.1-0.3,0.1c-0.2,0-0.6-0.3-0.6-0.8c0-0.2,0-0.5,0.1-0.7c0-0.2,0.1-0.3,0.2-0.4l2.5-3.5c0.3-0.4,0.7-1.5,0.9-2
		c-1.1,0.5-2.3,1-3.2,2c-0.1,0.1-0.2,0.2-0.3,0.2c-0.2,0-1-0.4-1-1.2c0-0.8,1.8-2.4,1.9-2.4c0,0,0.1,0.1,0.1,0.1l-0.1,0.9
		c1.1-0.6,2.2-1.2,3.2-1.9c-0.1-0.5-0.3-0.8-0.6-1c0,0-0.1-0.1-0.1-0.1c0-0.1,0-0.1,0.1-0.2l0.5-0.4c-1.1,0.5-2.6,0.8-3.9,0.8h-0.2
		c0,0,0,0,0,0c0,0,0-0.1,0.1-0.1c1.4-0.7,3.6-2,4.4-3.2l-0.5-0.4c0,0,0-0.1,0-0.1c0-0.1,0-0.1,0.1-0.1c0.5-0.2,1-0.5,1.5-0.6
		c0,0,0.1,0,0.1,0c0.1,0,0.2,0,0.2,0c0.8,0.3,1.9,0.4,1.9,1.5v0.2c0,0.1-0.1,0.2-0.3,0.2c-1.1,0.2-2.2,1.3-3.2,1.8
		c0.6,0,1.4,0.1,1.4,0.6v0.4c0.7,0.1,1.3,0,1.8,0.5c0.1,0.1,0.1,0.2,0.1,0.3c0,0,0,0.1,0,0.1c-0.4,0.8-1.2,1.1-1.9,1.6
		c-0.2,0.8-0.6,1.5-0.6,2.3v0.3c0.8-0.5,1.4-1.2,2-1.8c0.1-0.1,0.2-0.1,0.3-0.1c0.2,0,0.5,0.1,0.9,0.7c1.3-1.3,3.4-2.5,5.3-2.5
		c1.1,0,2.6,1,2.6,1.4c0,0.1,0,0.1-0.1,0.2c-0.7,1-1.9,1.6-2.3,2.4c0.4,0.3,1.1,0.5,1.1,1.1c0,0.3-0.4,0.6-0.6,0.7
		c-0.5,0.2-2.4,0.4-3,0.4c-1.2,0-1.2-0.7-1.2-0.7c0-0.1,0-0.1,0-0.2c0.3-0.8,1.2-1.2,1.8-1.7c0.5-0.5,0.9-1.3,1.2-1.9
		c-1.4,0-3.5,0.5-4.4,1.6c0.5,1.2,0.7,2,0.7,2.4c0,0.1,0,0.2-0.1,0.3L29.1,134.4z"/>
	<path class="st0" d="M28,165.7c0,0.6-0.4,1.6-0.9,2.1c-0.1,0.1-0.2,0.1-0.3,0.1c0,0-0.1,0-0.1,0c-0.8-0.5-1.9-2.5-3-3.4
		c-1.9,2.4-2.3,2.4-2.4,2.4c-0.3,0-0.6-0.7-0.6-1.1c0-0.8,1.6-1.9,1.6-2.7l-2.1,0.7c-0.1,0-0.1,0-0.2,0c-0.3,0-0.5-0.7-0.5-1.1
		c0-0.1,0.1-0.2,0.2-0.3c1.8-1.1,3.8-2.1,5.7-3.1l-1.1,0.3c-0.1,0-0.2,0-0.3,0c0,0-0.1,0-0.1,0c-0.1,0-0.1-0.1-0.2-0.1l-0.1,0
		c0,0.1-0.1,0.1-0.2,0.1c-0.2,0-1.4-0.7-1.4-2.8c0-0.5,0.3-1.7,0.5-1.7c0.3,0,0.8,1.1,1.1,1.9l0.4,0l1.8-0.7l-0.2-0.5l-1.1,0.4
		c-0.1,0-0.1,0-0.2,0s-0.2,0-0.2,0l-0.4-0.2c-0.1,0-0.1-0.1-0.1-0.2c0-0.3,2-1.5,3.7-1.8c0.3-0.5,0.6-1,0.9-1.5
		c-0.8,0.1-1.6,0.3-2.4,0.5c-0.1,1-0.7,1.7-0.9,1.7c-0.1,0-0.1,0-0.1,0c-0.3-0.4-0.5-0.7-0.6-1.2c-0.8,0.2-1.6,0.4-2.3,0.8
		c-0.1,0-0.1,0-0.2,0c-0.1,0-0.2,0-0.2-0.1c-0.3-0.2-0.6-0.6-0.6-0.8v-0.1c0.1-0.3,0.2-0.6,0.4-0.6h0.2c0.8,0,1.9-0.4,2.6-0.7
		c-0.1-0.5-0.2-1-0.5-1.4c0,0,0,0,0-0.1c0-0.1,0.1-0.1,0.2-0.1c0.8,0,1.5,0.5,1.9,1.2l2.9-0.6c0.1-0.2,0.4-0.9,0.5-1.1
		c-0.2-0.2-0.4-0.3-0.6-0.3c-0.1,0-0.1-0.1-0.1-0.1c0,0,0-0.1,0-0.1l0.4-0.4c0.2-0.2,0.3-0.3,0.9-0.3c1.4,0,1.7,0.5,1.7,0.6
		c0,0.1,0,0.1,0,0.2c-0.3,0.5-0.8,0.8-1,1.3l1.3,0h0.1c2.1,0,2.3,1.2,2.3,1.3c0,0.5-0.9,0.7-1.2,0.7c-0.5,0-2-0.6-3.1-0.6
		c-0.6,0.3-1.4,1.1-2,1.5c0.6-0.1,1.3-0.2,2-0.2c1.5,0,2.9,1.2,2.9,1.7c0,0.1,0,0.2-0.1,0.2c-0.8,0.9-1.1,2.8-2.6,3.7
		c-0.1,0-0.1,0.1-0.2,0.1c-0.3,0-0.5-0.2-0.8-0.6l-1.4,0.2l0.1,1.3l2.8-0.1l-0.3-0.5c0,0,0,0,0-0.1c0-0.1,0-0.1,0.1-0.1h0
		c2.7,0.5,4.5,0.8,4.5,1.9c0,0.4-0.4,0.7-0.8,0.7c-1.3,0-2.6-0.4-3.9-0.4c-0.8,0-1.6,0.1-2.3,0.1l0.2,3.8V165.7z M26.2,159.7
		c-1.2,0.4-2.3,1-3.4,1.6l3.4-0.7L26.2,159.7z M23.6,164c0.1,0,0.1,0,0.2,0c0.1,0,0.2,0,0.3,0.1c0.6,0.5,1.2,0.9,1.9,1
		c0.1-0.6,0.2-1.3,0.2-1.9c0-0.4,0-0.8,0-1.2c-1.1,0.1-2.3,0.4-3.3,0.9c0.2,0.4,0.3,0.9,0.4,1.3L23.6,164z M26.2,157.4l-1.7,0.5
		c-0.1,0-0.1,0-0.2,0c-0.1,0-0.2,0-0.2,0l-0.3-0.1l0.3,0.9l2.3-0.7L26.2,157.4z M27.7,157.1v0.7l1.7-0.2c0.3-0.8,0.7-1.6,0.7-2.5
		c-0.3-0.1-0.6-0.1-0.9-0.1c-0.7,0-1.7,0.1-2.3,0.4c0.7,0.5,1.9,0.1,2.5,0.7c0.1,0,0.1,0.1,0.1,0.2c0,0.1,0,0.1,0,0.2
		c-0.1,0.2-0.2,0.3-0.4,0.3L27.7,157.1z M29,162.1c1.7,0.3,5.3,1.7,5.3,3.7c0,0.4-0.5,0.8-0.9,0.8c-0.6,0-2.9-1.1-4.4-1.3
		c0,0-0.1,0-0.1,0c0,0,0-0.1,0.1-0.1c0.7-0.2,1.4-0.4,2.1-0.6C30.4,163.8,29.7,162.9,29,162.1C29,162.2,28.9,162.1,29,162.1
		C28.9,162.1,29,162.1,29,162.1L29,162.1z"/>
	<path class="st0" d="M28.6,178.6c0.1-0.1,0.2-0.2,0.3-0.2c0,0,2.2,0.1,2.8,1.4c0,0,0,0.1,0,0.1c0,0.1,0,0.2-0.1,0.2
		c-1.4,1.2-3.9,2.8-5.2,3.8c0.7,0.2,1.6,0.3,2.1,0.9c0.9-0.3,1.8-0.4,2.7-0.4c2.4,0,4.2,1,4.2,1.8c0,0.7-1.5,1.6-6,1.9
		c0,2.6-0.3,6.1-3.1,7.2c-0.1,0-0.1,0-0.2,0c-0.1,0-0.2,0-0.3-0.1c-0.6-0.4-0.9-1-1.4-1.6c-0.4-0.6-1.2-1.4-2.5-2.3
		c-0.8-0.5-2.2-1.1-2.6-2c0,0,0-0.1,0-0.1c0-0.4,0.6-1.2,1.1-1.5c1.5-1.1,4.3-2.2,6.1-2.7c-0.7-0.3-1.2-0.6-1.2-1
		c0-0.2,0.1-0.3,0.1-0.4c0.7-1.2,2-2,2.5-3.3c-1.5,0.1-2.9,0.7-4.1,1.5c-0.1,0.1-0.2,0.1-0.3,0.1c-0.3,0-0.9-0.7-0.9-1.2
		c0-0.6,0.5-1.1,0.9-1.5c0,0,0.1,0,0.1,0c0.1,0,0.1,0,0.2,0.1l0.2,0.6c1.4-0.6,2.7-1.2,4.2-1.3L28.6,178.6z M20.4,189.3
		c0.9,1,2.5,1.4,3.7,1.9c0.8,0.4,1.5,0.8,2.2,1.2c1.2-1.1,1.4-2.9,1.4-4.4c0-0.6-0.1-1.2-0.2-1.7C25.9,186.8,21.8,187.9,20.4,189.3z
		 M32.1,186c-0.2-0.1-0.5-0.2-0.8-0.2c-0.8,0-1.5,0-2.1,0.2c0.2,0.7,0.3,1.4,0.3,2C30.5,187.6,31.4,186.9,32.1,186z"/>
</g>
<g id="グループ_89_1_" transform="translate(-926.887 -693.028)">
	<g id="グループ_87_1_" transform="translate(926.887 693.028)">
		<g id="グループ_85_1_" transform="translate(11.844 12.667)">
			<ellipse id="楕円形_1_1_" class="st0" cx="-92.2" cy="1.4" rx="1.4" ry="1.4"/>
			<ellipse id="楕円形_2_1_" class="st0" cx="-95" cy="3.5" rx="1.4" ry="1.4"/>
			<path id="パス_763_1_" class="st0" d="M-95.1,5.9c0.5-0.6,1.3-0.8,2-0.3s0.8,1.3,0.3,2c-0.5,0.6-1.3,0.8-2,0.3
				C-95.4,7.4-95.5,6.6-95.1,5.9z"/>
			<path id="パス_764_1_" class="st0" d="M-91.6,7.6c-0.5-0.6-0.3-1.5,0.3-2s1.5-0.3,2,0.3s0.3,1.5-0.3,2
				C-90.3,8.4-91.1,8.2-91.6,7.6z"/>
			<ellipse id="楕円形_3_1_" class="st0" cx="-89.4" cy="3.5" rx="1.4" ry="1.4"/>
		</g>
		<path id="パス_765_1_" class="st0" d="M-64.1,12.8l-1.8-0.6l1.1-1.6c0.1-0.2,0.1-0.5-0.1-0.6c-1-0.9-4.2-3.5-6.8-3.5
			c-0.4,0-0.8,0.1-1.2,0.2c0.2-3-4.2-5.9-5.6-6.7c-0.2-0.1-0.5-0.1-0.6,0.1l-1.2,1.5l-1.2-1.5c-0.2-0.1-0.4-0.2-0.6,0
			c-1.4,0.8-5.8,3.7-5.6,6.6c-0.4-0.1-0.8-0.2-1.2-0.2c-2.6,0-5.8,2.6-6.8,3.5c-0.2,0.2-0.2,0.4-0.1,0.6l1.1,1.6l-1.8,0.6
			c-0.3,0.1-0.4,0.4-0.4,0.6c0.4,1.5,1.7,6.6,4.6,7.4c-1.9,2.3,0,7.2,0.6,8.7c0.1,0.2,0.3,0.3,0.6,0.3l1.8-0.5l0.1,1.9
			c0,0.2,0.2,0.4,0.4,0.5c0.4,0,1.1,0.1,1.9,0.1c2.2,0,5.4-0.3,6.6-2.2c1.2,1.9,4.4,2.2,6.6,2.2c0.8,0,1.4,0,1.9-0.1
			c0.2,0,0.4-0.2,0.4-0.5l0.1-1.9l1.8,0.5c0.2,0.1,0.5,0,0.6-0.3c0.6-1.4,2.5-6.4,0.6-8.7c2.9-0.7,4.3-5.8,4.6-7.4
			C-63.7,13.2-63.9,12.9-64.1,12.8z M-68.9,18.9l-2.9,0.7l1.9,2.4c0.7,0.8,0.5,3-0.4,5.6l-0.6-0.2l-2.3-0.7l-0.1,2.4v0.6
			c-0.1,0-0.3,0-0.4,0c-3.1,0-4.6-0.7-5-1.3l-1.6-2.6l-1.6,2.6c-0.4,0.6-1.9,1.3-5,1.3c-0.2,0-0.3,0-0.4,0v-0.6l-0.1-2.4l-2.3,0.7
			l-0.6,0.2c-1-2.6-1.2-4.8-0.5-5.6l1.9-2.3l-2.9-0.7c-1-0.3-2.2-2.2-2.9-4.7l0.6-0.3l2.2-0.9l-1.4-2l-0.3-0.5
			c1.5-1.1,3.4-2.2,4.7-2.2c0.2,0,0.4,0,0.5,0.1l2.8,1.1l-0.2-3c-0.1-1,1.4-2.7,3.6-4.3l0.4,0.5l1.5,1.9l1.5-1.9l0.4-0.5
			c2.2,1.5,3.7,3.2,3.6,4.3l-0.2,3l2.8-1.1c0.2-0.1,0.3-0.1,0.5-0.1c1.3,0,3.1,1.1,4.6,2.2l-0.3,0.5l-1.4,2l2.3,0.8l0.6,0.2
			C-66.7,16.7-67.9,18.7-68.9,18.9L-68.9,18.9z"/>
	</g>
</g>
<text transform="matrix(1 0 0 1 -81.1819 40.7501)" class="st0" style="font-family:'ManyoGyoshoStd-E-83pv-RKSJ-H'; font-size:20px;glyph-orientation-vertical:0;writing-mode:tb; letter-spacing:8;">季節の和菓子</text>
</svg>
