<?xml version="1.0" encoding="utf-8"?>
<!-- Generator: Adobe Illustrator 24.3.0, SVG Export Plug-In . SVG Version: 6.00 Build 0)  -->
<svg version="1.1" id="レイヤー_1" xmlns="http://www.w3.org/2000/svg" xmlns:xlink="http://www.w3.org/1999/xlink" x="0px"
	 y="0px" viewBox="0 0 56.7 147.4" style="enable-background:new 0 0 56.7 147.4;" xml:space="preserve">
<style type="text/css">
	.st0{fill:#9D7D62;}
	.st1{enable-background:new    ;}
</style>
<g id="グループ_26" transform="translate(-813.095 -939)">
	<g id="グループ_24">
		<path id="パス_116" class="st0" d="M854.7,952.9L854.7,952.9c0.2,0.6,0.3,1.2,0.2,1.8c-0.1,0.4-0.1,0.8,0,1.2
			c0,0.3-0.1,0.2-0.1,0.5c-0.1,0.3,0.2,0.5,0.2,0.7s0.3,5.4,0.3,5.4c1.4,0.7,3.1,0.7,4.5,0c0,0,0.3-5.1,0.3-5.4
			c0-0.3,0.3-0.4,0.2-0.7c-0.1-0.4-0.1-0.2-0.1-0.5c0.1-0.4,0.1-0.8,0-1.2c-0.1-0.6,0-1.2,0.2-1.7c0.8-2.9,1.4-5.9,1.8-8.8
			c0.1-0.8,0.2-1.7,0.3-2.6c0-1-0.2-1.6-0.8-1.8l-0.1-0.1c-0.1-0.1-0.3-0.1-0.5-0.1H861c-0.1-0.1-0.2-0.1-0.3-0.1s-0.2,0-0.3,0.1
			c0,0,0,0-0.1,0c-0.1-0.2-0.3-0.3-0.6-0.3h-0.1c-0.1-0.1-0.1-0.1-0.2-0.2c-0.1-0.1-0.3-0.1-0.4-0.1c-0.1,0-0.3,0-0.4,0.1
			c0-0.1-0.1-0.2-0.2-0.2c-0.1,0-0.2,0.1-0.3,0.2l0,0c-0.1-0.1-0.1-0.2-0.2-0.2c-0.1,0-0.1,0.1-0.2,0.2c-0.1,0.2-0.2,0.5-0.2,0.7
			l0,0c0-0.1,0-0.2-0.1-0.4c0-0.1-0.1-0.2-0.1-0.3s-0.1-0.2-0.2-0.2s-0.1,0.1-0.2,0.2l0,0c-0.1-0.1-0.1-0.2-0.3-0.2
			c-0.1,0-0.2,0.1-0.2,0.2c-0.1-0.1-0.2-0.1-0.4-0.1c-0.1,0-0.3,0.1-0.4,0.1c-0.1,0-0.1,0.1-0.2,0.2h-0.1c-0.2,0-0.5,0.1-0.6,0.3
			c0,0,0,0-0.1,0c-0.1-0.1-0.2-0.1-0.3-0.1s-0.2,0-0.3,0.1h-0.1c-0.2,0-0.3,0-0.5,0.1c0,0-0.1,0-0.1,0.1c-0.6,0.2-0.8,0.8-0.8,1.8
			c0,0.9,0.1,1.7,0.3,2.6C853.4,947.1,854,950.1,854.7,952.9z M858.2,941.9c0.1-0.5,0.1-1,0-1.5h0.1c0.1,0,0.2,0.1,0.3,0.2
			c0.1,0.2,0.1,0.4,0.1,0.7c-0.1,1.3-0.2,2.7-0.4,4c0,0.1,0,0.2-0.1,0.4C858.1,944.3,858,943.1,858.2,941.9L858.2,941.9z
			 M858.3,946.3c0-0.2,0-0.3-0.1-0.5c0.3-1.5,0.4-3.1,0.5-4.6c0-0.2,0-0.3,0-0.5l0.1-0.1c0,0,0,0,0.1,0c0,0.1,0,0.2,0,0.4
			c0,0.6,0,1.2-0.1,1.8C858.7,944.2,858.5,945.4,858.3,946.3c0.1,0.1,0.1,0.2,0,0.3C858.4,946.5,858.3,946.4,858.3,946.3
			L858.3,946.3z M858.8,939.5c0-0.1,0-0.1-0.1-0.2c0.1,0,0.2,0.1,0.3,0.4c0.1,0.3,0.1,0.5,0.1,0.8H859h-0.1
			C859,940.1,858.9,939.8,858.8,939.5L858.8,939.5z M858.4,946.8c0.1-0.8,0.3-2.2,0.5-4.1c0.1-0.6,0.1-1.2,0.1-1.8
			c0-0.2,0-0.3,0-0.4h0.1h0.1c0,0.1,0,0.2,0,0.4c-0.1,2.1-0.3,4.3-0.7,6.4C858.5,947.2,858.4,947,858.4,946.8L858.4,946.8z
			 M858.5,947.5c0.4-2.2,0.6-4.4,0.7-6.6c0-0.1,0-0.2,0-0.3c0.1,0,0.1,0.1,0.1,0.1c0.3,0.4,0.4,0.9,0.3,1.3c0,0.4,0,0.9-0.1,1.5
			c-0.1,0.8-0.3,2.4-0.6,3.7c-0.1,0.5-0.2,1-0.3,1.4C858.7,948.2,858.6,947.9,858.5,947.5L858.5,947.5z M859.9,941.2
			c0,0.7-0.1,1.3-0.2,2c0-0.5,0.1-0.8,0.1-1.2c0.1-0.5-0.1-1-0.3-1.4l-0.1-0.1h0.1C859.6,940.5,859.8,940.6,859.9,941.2L859.9,941.2
			z M859.7,940.6L859.7,940.6L859.7,940.6h0.2c0,0.1,0,0.3,0,0.4C859.9,940.8,859.8,940.7,859.7,940.6L859.7,940.6z M858.8,948.8
			c0.3-1.6,1.1-5.7,1.2-7.2c0,0.1,0,0.3,0,0.4c-0.2,2.6-0.5,5.1-1,7.6L858.8,948.8z M859,949.8c0.5-2.6,0.9-5.2,1.1-7.8
			c0-0.2,0-0.4,0-0.6c0-0.1,0-0.1,0-0.2c0-0.2,0-0.5,0-0.6c0.1,0.1,0.2,0.2,0.2,0.3c0.2,0.4,0.3,0.8,0.2,1.2c0,0.1,0,0.3,0,0.5
			c0,0.5-0.1,1-0.2,1.6c-0.1,1.1-0.4,2.7-0.7,4.1c-0.2,0.8-0.3,1.5-0.4,2L859,949.8z M860.1,940.5L860.1,940.5
			c0.1-0.1,0.2-0.1,0.2-0.1c0.1,0,0.1,0,0.2,0.1c0,0.2,0,0.5,0,0.8c0,0.1,0,0.1,0,0.2c0-0.3-0.1-0.5-0.2-0.8
			C860.2,940.7,860.1,940.6,860.1,940.5L860.1,940.5z M859.2,950.4c0.2-0.8,0.6-2.6,0.9-4.3c-0.2,1.6-0.4,3.1-0.8,4.6
			C859.2,950.7,859.2,950.6,859.2,950.4L859.2,950.4z M859.3,950.9L859.3,950.9c0.5-2.2,0.9-4.4,1.1-6.6l0,0
			c0.1-0.7,0.1-1.2,0.2-1.6c0-0.5,0.1-1,0.1-1.2c0-0.3,0-0.5,0-0.8c0.2,0.2,0.3,0.4,0.3,0.7c0,0.1,0,0.2,0,0.3c0,0,0,0.1,0,0.2
			c-0.2,3.3-0.7,6.6-1.5,9.8C859.4,951.3,859.3,951.1,859.3,950.9L859.3,950.9z M861.6,940.6c0-0.1,0-0.1,0-0.2
			c0-0.1-0.1-0.2-0.1-0.4c0.2,0,0.3,0.1,0.4,0.3c0.1,0.3,0.2,0.7,0.2,1c0,0.2,0,0.4,0,0.7s0,0.5-0.1,0.8c0-0.2,0-0.5,0-0.7
			C861.9,941.6,861.8,941.1,861.6,940.6L861.6,940.6z M861.5,940.5L861.5,940.5c-0.1-0.1-0.2-0.1-0.3-0.2c-0.1,0-0.2-0.1-0.3-0.1
			c0,0,0,0-0.1,0c0-0.1,0.1-0.2,0.3-0.2h0.1C861.4,940.2,861.4,940.3,861.5,940.5L861.5,940.5z M861.2,940c-0.1,0-0.3,0-0.3,0.1
			c0,0,0,0.1-0.1,0.1s-0.1,0.1-0.2,0.1c0-0.1-0.1-0.1-0.1-0.1v-0.1l0,0c0.2-0.2,0.4-0.3,0.6-0.3C861.2,939.9,861.2,940,861.2,940
			L861.2,940L861.2,940z M860.8,940.8c-0.1-0.1-0.1-0.2-0.2-0.3v-0.1C860.6,940.5,860.7,940.6,860.8,940.8L860.8,940.8z
			 M859.5,951.7L859.5,951.7c0.8-3.3,1.3-6.6,1.5-9.9c0-0.1,0-0.1,0-0.2c0-0.4-0.1-0.8-0.3-1.1l0,0c0.1-0.1,0.2-0.1,0.3-0.1
			s0.2,0,0.2,0.1c0.1,0.1,0.2,0.2,0.3,0.3c0,0.1,0,0.2,0,0.3c-0.2,3.7-0.9,7.4-2,10.9C859.5,951.8,859.5,951.7,859.5,951.7
			L859.5,951.7z M859.5,952c1.1-3.6,1.8-7.3,2-11.1v-0.1c0.2,0.4,0.3,0.8,0.2,1.3c0,0.4,0,0.9-0.1,1.3c0,0.2-0.1,0.5-0.2,0.8l0,0
			l0,0c-0.5,2.7-1.1,5.4-1.9,8.1C859.6,952.2,859.6,952.1,859.5,952L859.5,952z M860,952.9h-0.2c0.3-1.1,1.1-4.4,1.6-6.9
			c-0.2,1-0.4,2.1-0.7,3.2c-0.2,1.1-0.5,2.1-0.6,2.8C860.1,952.4,860.1,952.7,860,952.9L860,952.9z M862.4,941.6
			c0,0.9-0.1,1.7-0.3,2.5c-0.4,2.9-1,5.9-1.8,8.8H860c0.3-1.5,1.6-7.4,2-9.4l0,0c0.1-0.5,0.2-1,0.2-1.6c0-0.2,0-0.4,0-0.6
			c0-0.2,0-0.3-0.1-0.5c0-0.3-0.1-0.6-0.3-0.9C862.3,940.2,862.4,940.8,862.4,941.6L862.4,941.6z M861.7,939.9
			c0.4,0.4,0.6,1,0.5,1.6c0,0.1,0,0.3,0,0.4c0,0.4-0.1,0.9-0.2,1.6l0,0c0,0.2-0.1,0.5-0.2,0.8c-0.3,1.3-0.8,3.5-1.3,5.5
			c-0.2,1-0.5,1.9-0.6,2.5c-0.1,0.3-0.1,0.5-0.2,0.7l0,0c0,0,0-0.2-0.1-0.5c0.8-2.7,1.5-5.4,2-8.2c0.2-0.7,0.4-1.4,0.4-2.2
			c0-0.3,0-0.5,0-0.7c0-0.4,0-0.7-0.2-1c-0.1-0.2-0.3-0.3-0.5-0.3c0-0.1-0.1-0.1-0.1-0.2l0,0C861.4,939.8,861.6,939.9,861.7,939.9
			L861.7,939.9z M861.1,939.7c0.1,0,0.2,0,0.3,0.1C861.3,939.8,861.2,939.8,861.1,939.7C861.2,939.8,861.2,939.8,861.1,939.7
			C861.2,939.7,861.1,939.7,861.1,939.7L861.1,939.7z M861.1,939.8c-0.2,0-0.4,0.1-0.6,0.3l0,0c0-0.1,0.1-0.1,0.2-0.2
			C860.8,939.8,860.9,939.7,861.1,939.8C861,939.7,861,939.7,861.1,939.8L861.1,939.8z M860.4,939.7c0.1-0.1,0.2-0.1,0.3-0.1
			s0.1,0,0.2,0.1c-0.2,0.1-0.4,0.2-0.5,0.3C860.4,939.9,860.4,939.8,860.4,939.7L860.4,939.7L860.4,939.7L860.4,939.7z M860.5,940.4
			L860.5,940.4L860.5,940.4c-0.1-0.2-0.1-0.3-0.1-0.4s0-0.2,0.1-0.2C860.4,940,860.4,940.2,860.5,940.4L860.5,940.4z M859.8,939.4
			c0.2,0,0.4,0.1,0.5,0.3c-0.1,0.1-0.1,0.2-0.1,0.3s0,0.2,0.1,0.3c-0.1,0-0.2,0-0.2,0.1c0-0.2,0-0.5-0.1-0.7
			C859.9,939.6,859.8,939.5,859.8,939.4C859.7,939.4,859.7,939.4,859.8,939.4L859.8,939.4z M859.8,939.8c0.1,0.2,0.1,0.4,0.1,0.7
			h-0.1c-0.1,0-0.1,0-0.2,0.1c-0.1,0-0.1-0.1-0.2-0.1c-0.1,0-0.1,0-0.2,0.1l0,0c0-0.2,0-0.4,0-0.5s0-0.2,0.1-0.3s0.2-0.2,0.3-0.3
			C859.7,939.5,859.8,939.7,859.8,939.8L859.8,939.8z M858.8,939.2c0.1,0,0.2-0.1,0.3-0.1s0.3,0,0.4,0.1l0.1,0.1
			c-0.1,0.1-0.3,0.2-0.3,0.3c0,0,0,0.1-0.1,0.1v-0.1C859.1,939.4,859,939.3,858.8,939.2L858.8,939.2L858.8,939.2L858.8,939.2z
			 M858.7,939.3c0,0.1,0,0.1,0.1,0.2c0.1,0.3,0.1,0.7,0.1,1c-0.1,0-0.1,0.1-0.2,0.1c0-0.1,0-0.1-0.1-0.1c-0.1-0.1-0.2-0.2-0.4-0.2
			h-0.1c0,0,0,0,0-0.1c0-0.2,0.1-0.3,0.1-0.5C858.4,939.6,858.5,939.3,858.7,939.3L858.7,939.3z M858.3,939.2
			c0.1-0.1,0.1-0.2,0.2-0.2c0.1,0,0.1,0,0.2,0.2c-0.2,0-0.4,0.3-0.5,0.5c-0.1,0.1-0.1,0.3-0.1,0.4L858,940c0-0.1,0.1-0.3,0.1-0.4
			C858.1,939.5,858.2,939.4,858.3,939.2L858.3,939.2z M857.7,939.6c0-0.1,0.1-0.2,0.1-0.3s0.1-0.1,0.1-0.1s0.1,0,0.2,0.2
			c-0.1,0.2-0.2,0.5-0.2,0.7c-0.1,0-0.1-0.1-0.2-0.1C857.7,939.8,857.7,939.7,857.7,939.6L857.7,939.6z M855.2,952.9
			c0-0.2-0.1-0.5-0.2-0.9c-0.3-1.5-0.9-4-1.3-6c0.6,2.4,1.4,5.7,1.7,6.9H855.2z M855.6,952.3c-0.8-2.6-1.4-5.3-1.9-8l0,0l0,0
			c-0.1-0.3-0.1-0.6-0.2-0.8c-0.1-0.4-0.1-0.9-0.1-1.3c0-0.4,0.1-0.9,0.2-1.3v0.1c0.2,3.7,0.9,7.5,2,11
			C855.6,952.1,855.6,952.2,855.6,952.3L855.6,952.3z M853.3,942.8c0-0.2-0.1-0.5-0.1-0.8s0-0.5,0-0.7c0-0.3,0-0.7,0.2-1
			c0.1-0.1,0.2-0.2,0.4-0.3c-0.1,0.1-0.1,0.2-0.1,0.4c0,0.1,0,0.1,0,0.2c-0.2,0.4-0.3,1-0.3,1.5
			C853.3,942.3,853.3,942.6,853.3,942.8L853.3,942.8z M854.5,940.4c0-0.1-0.1-0.1-0.2-0.1c0,0,0-0.1-0.1-0.1
			c-0.1-0.1-0.2-0.2-0.3-0.1c0,0,0,0-0.1,0c0-0.1,0.1-0.1,0.1-0.2c0.2,0,0.3,0.1,0.5,0.2l0.1,0.1l0,0
			C854.5,940.2,854.5,940.2,854.5,940.4C854.6,940.3,854.6,940.3,854.5,940.4L854.5,940.4z M854.7,940.4L854.7,940.4
			c-0.1,0.2-0.2,0.3-0.2,0.4c0-0.1,0.1-0.2,0.1-0.3C854.6,940.5,854.6,940.4,854.7,940.4L854.7,940.4z M854,940.1
			c0.1,0,0.2,0,0.3,0.1c0,0,0,0,0,0.1c0,0,0,0-0.1,0c-0.2,0-0.4,0.1-0.5,0.3l0,0C853.7,940.5,853.8,940.3,854,940.1
			C853.9,940.1,854,940.1,854,940.1L854,940.1z M855.7,951.8c-1.1-3.5-1.8-7.2-2-10.9c0-0.1,0-0.2,0-0.3c0.1-0.1,0.2-0.2,0.3-0.3
			c0.1,0,0.2-0.1,0.2-0.1c0.1,0,0.2,0,0.2,0.1c0,0,0,0,0,0.1l0,0c-0.2,0.3-0.3,0.7-0.3,1.1c0,0.1,0,0.1,0,0.2
			c0.3,3.4,0.8,6.7,1.5,10C855.7,951.7,855.7,951.8,855.7,951.8L855.7,951.8z M855.7,951.5c-0.7-3.2-1.2-6.5-1.5-9.8
			c0-0.1,0-0.1,0-0.2c0-0.1,0-0.2,0-0.3c0.1-0.3,0.2-0.5,0.3-0.7c0,0.2,0,0.5,0,0.8s0,0.7,0.1,1.2c0,0.4,0.1,1,0.2,1.7
			c0,0.1,0,0.2,0,0.3c0.2,2.2,0.6,4.3,1,6.4C855.8,951.1,855.8,951.4,855.7,951.5L855.7,951.5z M854.7,941.4c0-0.3,0-0.6,0-0.8
			c0.1,0,0.1-0.1,0.2-0.1c0.1,0,0.1,0,0.2,0.1l0,0c-0.1,0.1-0.2,0.2-0.2,0.3c-0.1,0.2-0.2,0.5-0.2,0.8
			C854.7,941.5,854.7,941.4,854.7,941.4L854.7,941.4z M855.9,950.8c-0.2-0.9-0.5-2.7-0.7-4.5c0.3,1.6,0.7,3.3,0.8,4.1
			C856,950.5,855.9,950.7,855.9,950.8z M856,950.2c-0.1-0.5-0.2-1.2-0.4-2c-0.3-1.3-0.5-2.8-0.7-3.8c-0.1-0.7-0.2-1.4-0.2-2
			c0-0.2,0-0.3,0-0.4c0-0.4,0.1-0.9,0.2-1.2c0-0.1,0.1-0.2,0.2-0.3c0,0.2,0,0.4,0,0.6c0,0.1,0,0.1,0,0.2c0,0.2,0,0.4,0,0.6
			c0.2,2.6,0.5,5.2,1.1,7.8C856.1,949.9,856.1,950.1,856,950.2L856,950.2z M856.2,949.6c-0.5-2.5-0.9-5-1-7.6c0-0.2,0-0.3,0-0.4
			c0.1,1.6,0.9,5.6,1.2,7.2C856.3,949.1,856.3,949.3,856.2,949.6L856.2,949.6z M855.7,940.5L855.7,940.5
			C855.8,940.6,855.8,940.6,855.7,940.5c-0.3,0.5-0.4,1-0.3,1.5c0,0.3,0,0.7,0.1,1.2c-0.1-0.7-0.2-1.3-0.2-2
			C855.4,940.6,855.6,940.5,855.7,940.5L855.7,940.5z M855.2,941c0-0.2,0-0.3,0-0.4h0.1h0.1l0,0C855.4,940.7,855.3,940.8,855.2,941
			L855.2,941z M856.4,948.6c-0.1-0.4-0.2-0.8-0.2-1.3c-0.2-1.3-0.5-2.9-0.6-3.7c-0.1-0.6-0.1-1.1-0.1-1.5c-0.1-0.5,0.1-1,0.3-1.3
			l0.1-0.1c0,0.1,0,0.2,0,0.3c0.1,2.2,0.3,4.4,0.7,6.6C856.6,947.9,856.5,948.2,856.4,948.6L856.4,948.6z M856.7,947.3
			c-0.4-2.1-0.6-4.2-0.7-6.4c0-0.1,0-0.3,0-0.4h0.1h0.1c0,0.1,0,0.3,0,0.4c0,0.6,0,1.2,0.1,1.8c0.2,1.8,0.4,3.3,0.5,4.1
			C856.7,947,856.7,947.1,856.7,947.3L856.7,947.3z M856,940.5c0-0.3,0-0.5,0.1-0.8c0.1-0.2,0.2-0.4,0.3-0.4c0,0,0,0.1-0.1,0.2
			C856.2,939.8,856.2,940.2,856,940.5C856.2,940.5,856.1,940.5,856,940.5C856.1,940.5,856,940.5,856,940.5L856,940.5z M856.8,946.3
			c0,0.1,0,0.1,0,0.2c0-0.1,0-0.3,0-0.4c-0.1-0.8-0.2-2-0.4-3.4c-0.1-0.6-0.1-1.2-0.1-1.8c0-0.1,0-0.3,0-0.4c0,0,0,0,0.1,0l0.1,0.1
			c0,0.2,0,0.3,0,0.5c0.1,1.5,0.3,3.1,0.5,4.6C856.9,946,856.9,946.2,856.8,946.3L856.8,946.3z M856.9,945.5c0-0.1,0-0.2,0-0.3
			c-0.2-1.3-0.4-2.6-0.4-4c0-0.2,0-0.5,0.1-0.7c0.1-0.1,0.2-0.2,0.3-0.2h0.1c-0.1,0.5-0.1,1,0,1.5
			C857.1,943.1,857.1,944.3,856.9,945.5L856.9,945.5z M857.2,939.1C857.2,939.1,857.3,939.1,857.2,939.1c0.2,0.3,0.3,0.5,0.3,0.8
			c-0.1,0-0.2,0-0.2,0.1c0-0.1-0.1-0.3-0.1-0.4c0-0.1-0.1-0.2-0.1-0.3C857.1,939.2,857.2,939.1,857.2,939.1L857.2,939.1z
			 M856.7,939.1c0.1,0,0.1,0.1,0.2,0.2c0.1,0.2,0.2,0.4,0.2,0.6c0,0.1,0,0.2,0.1,0.2l-0.1,0.1c0-0.1-0.1-0.3-0.1-0.4
			c-0.1-0.2-0.2-0.5-0.5-0.5C856.6,939.1,856.7,939.1,856.7,939.1L856.7,939.1z M856.9,939.8c0.1,0.1,0.1,0.3,0.1,0.4c0,0,0,0,0,0.1
			h-0.1c-0.1,0-0.3,0.1-0.4,0.2l-0.1,0.1c0-0.1-0.1-0.1-0.2-0.1c0-0.3,0.1-0.7,0.1-1c0-0.1,0-0.1,0.1-0.2
			C856.6,939.3,856.8,939.6,856.9,939.8L856.9,939.8z M855.8,939.3c0.1-0.1,0.2-0.1,0.4-0.1c0.1,0,0.2,0,0.3,0.1l0,0
			c-0.2,0-0.3,0.2-0.4,0.5v0.1c0,0,0-0.1-0.1-0.1c-0.1-0.1-0.2-0.2-0.3-0.3C855.7,939.3,855.7,939.3,855.8,939.3L855.8,939.3z
			 M855.6,939.4c0.1,0,0.3,0.1,0.3,0.3c0,0.1,0.1,0.1,0.1,0.2v0.1c0,0.2,0,0.3,0,0.5l0,0c-0.1,0-0.1,0-0.2-0.1c-0.1,0-0.1,0-0.2,0.1
			c-0.1,0-0.1-0.1-0.2-0.1h-0.1c0-0.2,0-0.5,0.1-0.7C855.4,939.7,855.5,939.5,855.6,939.4L855.6,939.4z M855.4,939.4
			C855.4,939.4,855.5,939.4,855.4,939.4c0,0.1-0.1,0.2-0.1,0.3c-0.1,0.2-0.1,0.5-0.1,0.7c-0.1-0.1-0.2-0.1-0.2-0.1
			c0-0.1,0.1-0.2,0.1-0.3s0-0.2-0.1-0.3C855,939.5,855.2,939.4,855.4,939.4L855.4,939.4z M854.9,939.8c0,0.1,0.1,0.2,0.1,0.2
			c0,0.1,0,0.2-0.1,0.3h-0.1C854.8,940.2,854.8,940,854.9,939.8L854.9,939.8z M854.5,939.6c0.1,0,0.2,0,0.3,0.1c0,0,0.1,0,0.1,0.1
			l0,0c0,0.1-0.1,0.2-0.1,0.2c-0.1-0.2-0.3-0.3-0.5-0.3C854.3,939.6,854.4,939.6,854.5,939.6L854.5,939.6z M854.2,939.7
			c0.1,0,0.3,0.1,0.4,0.2c0.1,0.1,0.1,0.1,0.2,0.2l0,0C854.6,939.9,854.3,939.8,854.2,939.7C854.1,939.7,854.2,939.7,854.2,939.7
			L854.2,939.7z M854,939.7L854,939.7C854.1,939.7,854,939.7,854,939.7C853.9,939.8,853.9,939.8,854,939.7c-0.2,0.1-0.3,0.1-0.3,0.1
			C853.8,939.7,853.9,939.7,854,939.7L854,939.7z M853.5,939.9c0.1,0,0.3-0.1,0.4-0.1l0,0c0,0.1-0.1,0.1-0.1,0.2
			c-0.2,0-0.4,0.1-0.5,0.3c-0.2,0.3-0.2,0.7-0.2,1c0,0.2,0,0.4,0,0.7c0,0.7,0.2,1.5,0.4,2.2c0.5,2.8,1.1,5.5,2,8.2
			c-0.1,0.3-0.1,0.5-0.1,0.5c0-0.2-0.1-0.4-0.2-0.7c-0.5-1.9-1.5-6.1-1.9-8c-0.1-0.3-0.1-0.5-0.2-0.8l0,0c-0.1-0.7-0.2-1.2-0.2-1.6
			c0-0.1,0-0.3,0-0.4C852.9,940.9,853.1,940.3,853.5,939.9L853.5,939.9z M853.3,940c-0.2,0.3-0.3,0.6-0.3,0.9
			c-0.1,0.2-0.1,0.3-0.1,0.5c0,0.1,0,0.3,0,0.6c0,0.5,0.1,1.1,0.2,1.6c0.3,2,1.6,7.9,2,9.4h-0.3c-0.8-2.9-1.4-5.8-1.8-8.8
			c-0.1-0.8-0.2-1.7-0.3-2.5C852.8,940.8,852.9,940.2,853.3,940L853.3,940z M828.1,962v0.5c0,0,1.2,0.5,6.7,0.5s6.7-0.5,6.7-0.5V962
			c2.6-1,4.9-2.8,6.5-5.1c3.1-4.1,2.8-8.9-0.2-12c-2.9-2.9-8.3-3.4-12.4-3.4h-0.5c-4.2,0-9.9,0.3-13,3.4s-3.3,7.9-0.2,12
			C823.3,959.2,825.5,960.9,828.1,962z M834.8,942.1c6.1,0,11,1.5,11,3.3s-4.9,3.3-11,3.3s-11-1.5-11-3.3S828.8,942.1,834.8,942.1
			L834.8,942.1z M861.9,968.5c-2.2-0.2-18.5-1.3-22.9-1.3s-13,1.7-16.2,1.1c-3.1-0.6-2.8-3.1-3.5-3.5c-0.3-0.2-0.7-0.2-0.7,0.8
			c-0.1,2.3,1.7,4.2,4,4.4c3.6,0.4,10-1.2,16.5-1.2s21.3,0.9,22.6,1s2.5,0.1,2.5-0.4S864.1,968.6,861.9,968.5L861.9,968.5z"/>
	</g>
</g>
<g class="st1">
	<path class="st0" d="M26.9,41.8c-1.1,0.1-1.7,1.1-2.3,1.9l-2.2,3.1c1.3,0,2.6-0.4,3.8-0.9l0-1c-0.3-0.4-0.7-0.6-1.1-0.8
		c0,0,0-0.1,0-0.1c0-0.1,0.1-0.2,0.1-0.2l0.6-0.4c0.1-0.1,0.2-0.1,0.3-0.1c0.4,0,1.8,0.5,1.8,1.2c0,0.1,0,0.1-0.1,0.2l-0.2,0.3
		c0.7,0.1,1.5,0,1.9,0.7c0.1,0.1,0.2,0.3,0.2,0.5v0.1c0,0.1-0.1,0.2-0.1,0.3c-0.8,0.5-2.4,0.3-2.4,1.4c0,0.2,0.1,0.3,0.1,0.4
		c0.1,1.1,0.3,2.3,0.3,3.4c0,1.6-1.1,2.7-1.5,2.7c-0.1,0-0.3-0.1-0.7-0.4c-0.3-0.3-0.6-0.7-0.8-1.1c-0.5-0.6-1-1.3-1.6-2
		c-0.3,0.5-0.3,1.2-0.8,1.7c-0.1,0.1-0.2,0.2-0.3,0.2c0,0-0.1,0-0.1,0c-0.9-0.1-1-1.1-1-1.9c0-0.8,0.5-1.4,0.7-1.4
		c0.1,0,0.1,0.1,0.2,0.1l0.3,0.6c0.8-0.4,1.3-1.1,2.1-1.6c0,0,0,0,0,0c0,0,0,0,0,0c0,0,0,0,0,0c-0.4,0.6-0.8,1.4-1,2.1
		c0.9,0.4,1.6,0.9,2.5,1.1c0.4-0.7,0.4-1.6,0.4-2.4c0-0.5,0-1.1,0-1.6c-0.5,0.2-1.2,0.4-1.7,0.4c-0.9,0-1.6-0.7-2.1-1.3l-2.1,2.7
		c-0.4,0.5-1.1,0.9-1.3,0.9c-0.3,0-0.7-0.5-0.7-1.2c0-0.8,1.4-2.5,1.5-2.5c0,0,0,0,0,0v0l-0.1,1.1c1.4-1.8,3.1-3.5,4.3-5.5
		c-0.7,0.1-1.4,0.3-2.1,0.6c-0.1,0.1-0.2,0.1-0.3,0.1c-0.2,0-0.5-0.3-0.5-0.7c0-0.1,0.1-0.4,0.1-0.6c0-0.1,0.1-0.2,0.2-0.2
		c1-0.3,1.9-0.6,2.8-1c-1.3-0.4-0.8-1.9-1.2-2.9c0,0,0,0,0,0c0-0.1,0.1-0.1,0.2-0.1c0.6,0.1,1.1,0.5,1.6,0.8l1.5-1.3c0,0,0,0,0,0
		s0,0,0,0.1c0,0.1-0.9,2.2-1.5,3.2c1.4-0.8,2.8-2,3.9-3.2c-0.1-0.2-0.4-0.3-0.7-0.4c0,0-0.1-0.1-0.1-0.1c0-0.2,0.8-0.5,1.8-0.5
		c1.2,0,1.6,0.4,1.6,0.8c0,0.1,0,0.3-0.5,0.7c-0.5,0.3-1,0.5-1.5,0.8c-0.9,0.5-1.9,1.1-2.8,1.7c0.6-0.2,2.9-1,3.4-1
		c0.7,0,2.2,0.4,2.2,1.3c0,0.6-0.8,0.9-1.3,0.9h0L28,41.4c1.4,1.1,2.6,2.5,4.1,3.4c1.5,0.9,3.1,1.3,4.5,2.2c0,0,0.1,0.1,0.1,0.1
		c0,0.2-1.6,1.1-2.6,1.1c-0.8,0-2-0.7-2.6-1.3L26.9,41.8z M33.3,51.3c0,0.5-0.5,1.2-0.9,1.2c-0.1,0-0.3-0.1-0.4-0.1
		c-1.1-0.6-2-1.2-3.4-1.2h-0.2c-0.1,0-0.1,0-0.1,0c0,0,0,0,0,0l2.1-0.8c-0.3-0.8-1-1.4-1.6-2c0,0,0,0,0,0c0,0,0-0.1,0.1-0.1
		c0.2,0,0.4,0,0.5,0C31,48.1,33.1,49.6,33.3,51.3L33.3,51.3z"/>
	<path class="st0" d="M26.5,80.7c-1.4-0.3-2.9-0.4-4.4-0.4c-1.1,0-2.2,0.2-3.3,0.6c0,0-0.1,0-0.1,0c-0.1,0-0.1,0-0.1-0.1v-0.2
		c0-0.2,0-0.4,0.1-0.6c0-0.1,0.1-0.3,0.2-0.3l0.4-0.3c0,0,0.1,0,0.1,0c0.1,0,0.1,0,0.2,0.1l0.1,0.1c1-0.3,2-0.5,3.1-0.5
		c2.4,0,4.8,0.4,7.2,0.5c1.5,0.1,3.1,0,4.6,0.2c1,0.1,2.1,0.5,2.1,0.8c0,0.3-3.2,1.6-3.9,1.6c-0.1,0-0.1,0-0.2,0L26.5,80.7z
		 M19.3,78.9C19.3,78.9,19.3,78.9,19.3,78.9C19.3,78.9,19.3,78.9,19.3,78.9c0.8-0.6,1.6-1.2,2.1-1.9c-0.4-0.6-1.2-1.4-1.2-2.1
		c0-1,0.2-1.4,0.6-2.3c-0.5-0.4-1.1-1-1.1-1.7c0-1,1.1-1.7,1.4-2.6c-0.2-0.6-0.9-1-1.4-1.3c-0.1,0-0.1-0.1-0.1-0.1
		c0-0.1,0.6-0.3,1.3-0.3c0.9,0,2.7,0.6,2.7,1.7c0,0.5-0.5,0.6-1.1,0.9c-0.7,0.3-2,1-2.4,1.7c0.9,0.2,2.5,0.1,2.9,1.2
		c0,0.1,0.1,0.1,0.1,0.2c0,0.1,0,0.1,0,0.2c-0.3,0.8-1.8,0.9-1.8,2.5c0,0.8,1.7,1.6,2.2,2.6c0,0,0,0.1,0,0.1
		C23.3,77.8,22.8,78.2,19.3,78.9L19.3,78.9z M33.1,77.2c0,1.2-1,2.2-1.3,2.2c-0.1,0-0.2,0-0.2-0.1c-0.7-0.4-1.8-1.5-2.3-1.5
		c-0.7,0-1.6,0.3-2.2,0.6c-0.1,0.1-0.2,0.1-0.4,0.1c-0.5,0-1.2-0.8-1.2-1.8c0-1.4,0.3-2.8,0.8-4.1c-0.1-0.3-0.3-0.6-0.3-0.9
		c0-0.7,1.6-1.9,2-2.6c-1.3,0.3-2.6,0.7-3.7,1.6C24.1,70.9,24,71,23.9,71c-0.1,0-0.1,0-0.2,0c-0.1,0-0.4-0.1-0.4-0.4
		c0-0.1,0-0.1,0-0.2c0-1.1,0.9-1.6,1.8-2h0c0,0,0.1,0,0.1,0.1c0,0,0,0,0,0.1l-0.3,0.6l2.4-1c-0.3-0.1-0.9-0.2-0.9-0.6
		c0-0.8,0.4-1.5,0.4-2.4c0-0.1,0.1-0.1,0.1-0.1c0.2,0,0.6,0.5,1,1c0.4-0.3,0.9-0.5,1.3-0.7h0c0,0,0,0,0,0v0
		c-0.6,0.8-1.1,1.6-1.3,2.5c1.2-0.6,2-1.6,2.7-2.7L29.8,65c-0.1,0-0.1-0.1-0.1-0.1c0-0.2,1-0.9,1.6-0.9c0.5,0,1.3,0.7,1.3,1.1
		c0,0.1-0.1,0.2-0.1,0.3c-0.8,0.8-1.7,1.3-2.5,2.1c1-0.3,2.4-0.7,3.4-0.7c0.9,0,2.5,0.7,2.5,1.7c0,0.4-0.6,0.6-0.9,0.6
		c-0.6,0-1.7-0.5-2.7-0.5c-1,0-1.9,0-2.9,0.3l0.2,0.1c0.1,0,0.1,0.1,0.1,0.2c0,0,0,0.1,0,0.1c-0.8,0.8-2.9,1.8-2.9,2.7
		c0.8-0.6,2.8-2.2,3.7-2.2c1.4,0,2.8,0.9,2.8,1.5c0,0.1,0,0.2-0.1,0.3c-0.3,0.5-0.4,1.2-0.4,1.8c0,1.3,0.2,2.6,0.2,3.8V77.2z
		 M28.8,75.6c-0.5,0.1-0.9,0.3-1.3,0.5c0,0-0.1,0-0.1,0c-0.1,0-0.2,0-0.2-0.1l-0.2-0.2c-0.1-0.1-0.1-0.2-0.1-0.3
		c0-0.6,1.4-1.8,2.2-2.1L28,73.7c0,0-0.1,0-0.2,0c-0.1,0-0.2,0-0.3-0.1L27,73.4c-0.2,0.7-0.3,1.5-0.3,2.2c0,0.5,0.1,1,0.1,1.5
		L28.8,75.6z M27.4,77c0.4-0.1,1.7-0.5,2-0.5c0.6,0,1.2,0.4,1.8,0.5c0.1-1.4,0.2-2.9,0.2-4.4V72l0-0.4c-0.3-0.1-0.7-0.2-1.1-0.2
		c-1,0-2.6,0.7-3.1,1.5c0.9-0.4,1.8-0.8,2.8-0.8c0.4,0,0.7,0.3,0.8,0.6c0,0,0,0.1,0,0.1c0,0.1-0.1,0.2-0.2,0.2l-2.3,1.4
		c0.5-0.1,1.1-0.3,1.6-0.3c0.6,0,0.9,0.6,0.9,0.8c0,0.1-0.1,0.2-0.2,0.3L27.4,77z"/>
	<path class="st0" d="M25.2,109c-0.2,0.3-1.1,1.3-1.8,1.3c-0.1,0-0.3-0.1-0.4-0.2c-0.5-0.6-0.6-2.2-0.8-2.8l-1.1,0.8
		c-0.1,0-0.1,0-0.2,0c-0.1,0-0.2,0-0.2-0.1l-0.1-0.1c-0.1-0.1-0.1-0.2-0.1-0.4v-0.1l0-0.6c0-0.1,0.1-0.3,0.2-0.4
		c1.1-0.7,2.3-1.3,3.4-2.1c-0.7-0.7-0.8-0.8-0.8-1c0-0.3,0.2-0.8,0.9-1.2c-0.4,0.1-1,0.3-1.4,0.3c-2.3,4-5,4.6-5.2,4.6
		c0,0-0.1,0-0.1-0.1c0,0,0,0,0-0.1c1.7-1.7,3.1-3.7,4.5-5.7l-3,1.6c0,0-0.1,0-0.1,0c-0.1,0-0.2,0-0.2-0.5c0-0.2,0-0.3,0.1-0.4
		c0.9-1.6,3-2,4-3.7l-0.7,0.3c-0.1,0-0.1,0-0.2,0c-0.5,0-1.1-0.7-1.3-1c0,0,0,0,0-0.1c0-0.1,0-0.1,0.1-0.1c0.9-0.2,1.8-0.6,2.7-1
		c0-0.4,0.1-0.9,0.1-1.4c0-0.2,0-0.4,0-0.6L22.5,94c-0.1,0-0.2-0.1-0.2-0.2c0,0,0,0,0,0c0.3-0.5,0.8-1.2,1.1-1.2h0.1
		c0.8,0,1.9,0.1,1.9,1.2c0,0.5-0.2,1.3-0.3,1.8h0.4c0.3-0.6,0.6-1.5,0.7-2.2c0-0.1,0.1-0.3,0.2-0.3h0c0.5,0.1,1.2,0.4,1.2,1
		c0,0.3-0.3,0.5-0.5,0.7l-0.4,0.9c0.1,0.1,0.2,0.3,0.2,0.5c0,0.1,0,0.2-0.1,0.3c-0.4,0.4-0.9,0.7-1.1,1.3c0.1,0,0.3-0.1,0.4-0.1
		c0.5,0,1.1,0.4,1.1,0.6c0,0.1-0.1,0.2-0.1,0.2c-1,0.9-2.7,1-3.4,2.3c0.5-0.2,1.2-0.3,1.7-0.3c0.8,0,1.2,0.7,1.2,0.8
		c0,0.1,0,0.1-0.1,0.2l-2.2,1.8l0.7,0.6l1.4-0.6c0.1,0,0.1,0,0.1,0c0,0,0,0,0,0.1l-1.1,1.5c0.2,0.6,0.4,1.3,0.4,1.9
		c0,0.7-0.1,1.2-0.5,1.8c1.4-0.7,2.7-1.8,3.7-3c-1.2-1.7-1-2.2-3-3c0,0-0.1,0-0.1-0.1c0,0,0,0,0,0c0.4-0.1,0.8-0.1,1.2-0.1
		c1.1,0,2,1.1,2.7,1.9c0.3-0.7,0.5-1.5,0.6-2.2c-0.2-0.5-0.5-0.9-0.5-1.5c-0.8,0.3-1.8,0.5-2.5,1.1c0,0-0.1,0.1-0.2,0.1
		c-0.3,0-0.7-0.7-0.7-0.9c0,0,0-0.1,0-0.1c0.2-1,0.9-1.7,1.4-2.5c0.5-1,0.5-2,0.9-2.9c-0.2,0-0.3,0-0.5,0c-0.2,0-0.4,0-0.6,0
		c-0.1,0-0.2-0.1-0.2-0.1v0c0.3-0.9,1.2-1.5,2.1-1.5c1.2,0,1.7,0.2,1.7,0.8c0,0.2-2.4,4.3-2.7,5c0.6-0.4,1.3-0.6,1.9-1
		c0.8-0.5,1.6-1.3,2.6-1.3c1,0,1.6,0.6,1.6,0.9c0,0.1,0,0.2-0.1,0.2c-1.1,1.1-3.3,0.9-4.3,2.7c0.3,0.4,0.8,0.4,1.2,0.7
		c0.1,0.1,0.1,0.2,0.1,0.3c0,0.1-0.2,1.8-0.7,3.4c1,0.6,1.8,1.2,2.8,1.8c0.9,0.5,1.9,0.8,2.7,1.4c0,0,0.1,0.1,0.1,0.1
		c0,0.2-1.3,0.9-2.1,0.9c-1.6,0-3.2-1.6-4.4-2.5c-1.6,1.4-2.7,1.9-4.7,1.9H25.2z M22.7,107.1l1.1,0.9c0.5-0.4,0.7-1.1,0.7-1.7
		c0-0.1,0-0.3,0-0.4L22.7,107.1z M24.4,97.5l-0.8,1.3c0.7-0.3,1.1-1,1.4-1.6L24.4,97.5z"/>
	<path class="st0" d="M28.4,137.8C28.4,137.8,28.4,137.8,28.4,137.8C28.4,137.7,28.4,137.7,28.4,137.8c0.7-0.4,1.4-0.7,2-1.2
		c-0.6-0.2-1.2-0.4-1.8-0.4c-2.2,0-5.5,0.5-7.5,1.5c-0.1,0-0.1,0.1-0.2,0.1c-0.3,0-1.1-0.6-1.1-1c0-0.2,0.1-0.6,0.5-0.6
		c0,0,0.1,0,0.1,0l0.3,0.1c1.8-0.7,3.7-1.1,5-2.7c-1.9-0.3-2.8-1-2.8-1.1c0-0.1,0.1-0.1,0.2-0.1c0.3,0,0.6,0,0.9,0
		c0.8,0,1.4-0.5,2.1-0.7l0-0.1v0c0-0.5-0.8-0.6-1.3-0.6c0,0-0.1,0-0.1-0.1c0,0,0-0.1,0-0.1l0.6-0.6l-2.7,1.2c-0.1,0-0.1,0-0.2,0
		c-0.4,0-0.7-0.7-0.7-0.9c0-0.1,0-0.2,0.1-0.2c0.8-1.1,2.5-2.1,3.5-3.1c-0.4,0-0.9,0.1-1.3,0.1c-0.7,0-1.5-0.5-1.5-0.6
		c0-0.1,0.1-0.1,0.2-0.1c1.4-0.1,3.8-1.7,5.1-1.7c0.7,0,1.7,0.4,1.7,0.7c0,0.1,0,0.1-0.1,0.2l-0.1,0.2c0.6-0.2,1.7-0.7,2-1.2
		c-0.4-0.3-1-0.3-1.5-0.3c-2.6,0-5.5,0.7-7.7,2.1c-0.8,1.7-1.6,1.9-1.8,1.9c-0.3,0-0.5-0.8-0.5-1.2c0-0.6,1.1-2.4,1.3-3.5
		c0-0.1,0.1-0.1,0.1-0.1c0.1,0,0.5,0.6,0.8,1.3c2.3-1,4.7-1.9,7.3-1.9c3.6,0,5,1.9,5,2.5c0,0.4-0.4,0.9-1.8,0.9
		c-1.2,0-2.4-0.1-3.5-0.2c-0.5,0.4-1.1,0.7-1.7,1.1c1.7,0,4.1,1,4.1,2.9c0,0.4-0.4,0.8-0.8,0.8c-1.3,0-1.5-1.2-2.2-2l-2.8,1.2
		c0.2,0,0.4,0,0.6,0c0.8,0,1.7,0.2,1.7,0.9v0.4c0.2,0,0.3,0,0.5,0c0.5,0,1.1,0.2,1.4,0.6c0,0.1,0,0.1,0,0.2c0,0.1-0.1,0.3-0.2,0.5
		c-0.4,0.4-0.9,0.3-1.4,0.5c-0.5,0.2-1.3,1.2-1.8,1.7c0.8-0.1,1.8-0.3,2.7-0.3c4.9,0,5.4,1.9,5.4,2.1c0,0.3-0.5,0.6-1,0.6
		c-0.3,0-0.6-0.1-0.9-0.1C31.2,137.1,29.8,137.5,28.4,137.8L28.4,137.8z M23.9,123.3C23.8,123.3,23.8,123.3,23.9,123.3
		C23.8,123.3,23.8,123.3,23.9,123.3c0.6-0.4,1.4-0.8,1.8-1.4c-0.3-0.5-0.8-0.7-1.3-0.8c0,0-0.1,0-0.1-0.1c0-0.1,0.9-0.6,2-0.6
		c1,0,2.2,0.6,2.3,1.7c0,0.1,0,0.3-0.1,0.3C27.8,122.8,25,123.1,23.9,123.3z M28.2,128.3c-0.3-0.4-0.6-0.7-1-0.9
		c-0.6,0.4-1.1,0.9-1.6,1.4L28.2,128.3z"/>
</g>
<g id="グループ_26_1_" transform="translate(-813.095 -939)">
	<g id="グループ_24_1_">
		<path id="パス_116_1_" class="st0" d="M710.7,952.9L710.7,952.9c0.2,0.6,0.3,1.2,0.2,1.8c-0.1,0.4-0.1,0.8,0,1.2
			c0,0.3-0.1,0.2-0.1,0.5c-0.1,0.3,0.2,0.5,0.2,0.7s0.3,5.4,0.3,5.4c1.4,0.7,3.1,0.7,4.5,0c0,0,0.3-5.1,0.3-5.4
			c0-0.3,0.3-0.4,0.2-0.7c-0.1-0.4-0.1-0.2-0.1-0.5c0.1-0.4,0.1-0.8,0-1.2c-0.1-0.6,0-1.2,0.2-1.7c0.8-2.9,1.4-5.9,1.8-8.8
			c0.1-0.8,0.2-1.7,0.3-2.6c0-1-0.2-1.6-0.8-1.8l-0.1-0.1c-0.1-0.1-0.3-0.1-0.5-0.1H717c-0.1-0.1-0.2-0.1-0.3-0.1s-0.2,0-0.3,0.1
			c0,0,0,0-0.1,0c-0.1-0.2-0.3-0.3-0.6-0.3h-0.1c-0.1-0.1-0.1-0.1-0.2-0.2c-0.1-0.1-0.3-0.1-0.4-0.1c-0.1,0-0.3,0-0.4,0.1
			c0-0.1-0.1-0.2-0.2-0.2c-0.1,0-0.2,0.1-0.3,0.2l0,0c-0.1-0.1-0.1-0.2-0.2-0.2c-0.1,0-0.1,0.1-0.2,0.2c-0.1,0.2-0.2,0.5-0.2,0.7
			l0,0c0-0.1,0-0.2-0.1-0.4c0-0.1-0.1-0.2-0.1-0.3s-0.1-0.2-0.2-0.2s-0.1,0.1-0.2,0.2l0,0c-0.1-0.1-0.1-0.2-0.3-0.2
			c-0.1,0-0.2,0.1-0.2,0.2c-0.1-0.1-0.2-0.1-0.4-0.1c-0.1,0-0.3,0.1-0.4,0.1c-0.1,0-0.1,0.1-0.2,0.2h-0.1c-0.2,0-0.5,0.1-0.6,0.3
			c0,0,0,0-0.1,0c-0.1-0.1-0.2-0.1-0.3-0.1s-0.2,0-0.3,0.1h-0.1c-0.2,0-0.3,0-0.5,0.1c0,0-0.1,0-0.1,0.1c-0.6,0.2-0.8,0.8-0.8,1.8
			c0,0.9,0.1,1.7,0.3,2.6C709.4,947.1,710,950.1,710.7,952.9z M714.2,941.9c0.1-0.5,0.1-1,0-1.5h0.1c0.1,0,0.2,0.1,0.3,0.2
			c0.1,0.2,0.1,0.4,0.1,0.7c-0.1,1.3-0.2,2.7-0.4,4c0,0.1,0,0.2-0.1,0.4C714.1,944.3,714,943.1,714.2,941.9L714.2,941.9z
			 M714.3,946.3c0-0.2,0-0.3-0.1-0.5c0.3-1.5,0.4-3.1,0.5-4.6c0-0.2,0-0.3,0-0.5l0.1-0.1c0,0,0,0,0.1,0c0,0.1,0,0.2,0,0.4
			c0,0.6,0,1.2-0.1,1.8C714.7,944.2,714.5,945.4,714.3,946.3c0.1,0.1,0.1,0.2,0,0.3C714.4,946.5,714.3,946.4,714.3,946.3
			L714.3,946.3z M714.8,939.5c0-0.1,0-0.1-0.1-0.2c0.1,0,0.2,0.1,0.3,0.4c0.1,0.3,0.1,0.5,0.1,0.8H715h-0.1
			C715,940.1,714.9,939.8,714.8,939.5L714.8,939.5z M714.4,946.8c0.1-0.8,0.3-2.2,0.5-4.1c0.1-0.6,0.1-1.2,0.1-1.8
			c0-0.2,0-0.3,0-0.4h0.1h0.1c0,0.1,0,0.2,0,0.4c-0.1,2.1-0.3,4.3-0.7,6.4C714.5,947.2,714.4,947,714.4,946.8L714.4,946.8z
			 M714.5,947.5c0.4-2.2,0.6-4.4,0.7-6.6c0-0.1,0-0.2,0-0.3c0.1,0,0.1,0.1,0.1,0.1c0.3,0.4,0.4,0.9,0.3,1.3c0,0.4,0,0.9-0.1,1.5
			c-0.1,0.8-0.3,2.4-0.6,3.7c-0.1,0.5-0.2,1-0.3,1.4C714.7,948.2,714.6,947.9,714.5,947.5L714.5,947.5z M715.9,941.2
			c0,0.7-0.1,1.3-0.2,2c0-0.5,0.1-0.8,0.1-1.2c0.1-0.5-0.1-1-0.3-1.4l-0.1-0.1h0.1C715.6,940.5,715.8,940.6,715.9,941.2L715.9,941.2
			z M715.7,940.6L715.7,940.6L715.7,940.6h0.2c0,0.1,0,0.3,0,0.4C715.9,940.8,715.8,940.7,715.7,940.6L715.7,940.6z M714.8,948.8
			c0.3-1.6,1.1-5.7,1.2-7.2c0,0.1,0,0.3,0,0.4c-0.2,2.6-0.5,5.1-1,7.6L714.8,948.8z M715,949.8c0.5-2.6,0.9-5.2,1.1-7.8
			c0-0.2,0-0.4,0-0.6c0-0.1,0-0.1,0-0.2c0-0.2,0-0.5,0-0.6c0.1,0.1,0.2,0.2,0.2,0.3c0.2,0.4,0.3,0.8,0.2,1.2c0,0.1,0,0.3,0,0.5
			c0,0.5-0.1,1-0.2,1.6c-0.1,1.1-0.4,2.7-0.7,4.1c-0.2,0.8-0.3,1.5-0.4,2L715,949.8z M716.1,940.5L716.1,940.5
			c0.1-0.1,0.2-0.1,0.2-0.1c0.1,0,0.1,0,0.2,0.1c0,0.2,0,0.5,0,0.8c0,0.1,0,0.1,0,0.2c0-0.3-0.1-0.5-0.2-0.8
			C716.2,940.7,716.1,940.6,716.1,940.5L716.1,940.5z M715.2,950.4c0.2-0.8,0.6-2.6,0.9-4.3c-0.2,1.6-0.4,3.1-0.8,4.6
			C715.2,950.7,715.2,950.6,715.2,950.4L715.2,950.4z M715.3,950.9L715.3,950.9c0.5-2.2,0.9-4.4,1.1-6.6l0,0
			c0.1-0.7,0.1-1.2,0.2-1.6c0-0.5,0.1-1,0.1-1.2c0-0.3,0-0.5,0-0.8c0.2,0.2,0.3,0.4,0.3,0.7c0,0.1,0,0.2,0,0.3c0,0,0,0.1,0,0.2
			c-0.2,3.3-0.7,6.6-1.5,9.8C715.4,951.3,715.3,951.1,715.3,950.9L715.3,950.9z M717.6,940.6c0-0.1,0-0.1,0-0.2
			c0-0.1-0.1-0.2-0.1-0.4c0.2,0,0.3,0.1,0.4,0.3c0.1,0.3,0.2,0.7,0.2,1c0,0.2,0,0.4,0,0.7s0,0.5-0.1,0.8c0-0.2,0-0.5,0-0.7
			C717.9,941.6,717.8,941.1,717.6,940.6L717.6,940.6z M717.5,940.5L717.5,940.5c-0.1-0.1-0.2-0.1-0.3-0.2c-0.1,0-0.2-0.1-0.3-0.1
			c0,0,0,0-0.1,0c0-0.1,0.1-0.2,0.3-0.2h0.1C717.4,940.2,717.4,940.3,717.5,940.5L717.5,940.5z M717.2,940c-0.1,0-0.3,0-0.3,0.1
			c0,0,0,0.1-0.1,0.1s-0.1,0.1-0.2,0.1c0-0.1-0.1-0.1-0.1-0.1v-0.1l0,0c0.2-0.2,0.4-0.3,0.6-0.3C717.2,939.9,717.2,940,717.2,940
			L717.2,940L717.2,940z M716.8,940.8c-0.1-0.1-0.1-0.2-0.2-0.3v-0.1C716.6,940.5,716.7,940.6,716.8,940.8L716.8,940.8z
			 M715.5,951.7L715.5,951.7c0.8-3.3,1.3-6.6,1.5-9.9c0-0.1,0-0.1,0-0.2c0-0.4-0.1-0.8-0.3-1.1l0,0c0.1-0.1,0.2-0.1,0.3-0.1
			s0.2,0,0.2,0.1c0.1,0.1,0.2,0.2,0.3,0.3c0,0.1,0,0.2,0,0.3c-0.2,3.7-0.9,7.4-2,10.9C715.5,951.8,715.5,951.7,715.5,951.7
			L715.5,951.7z M715.5,952c1.1-3.6,1.8-7.3,2-11.1v-0.1c0.2,0.4,0.3,0.8,0.2,1.3c0,0.4,0,0.9-0.1,1.3c0,0.2-0.1,0.5-0.2,0.8l0,0
			l0,0c-0.5,2.7-1.1,5.4-1.9,8.1C715.6,952.2,715.6,952.1,715.5,952L715.5,952z M716,952.9h-0.2c0.3-1.1,1.1-4.4,1.6-6.9
			c-0.2,1-0.4,2.1-0.7,3.2c-0.2,1.1-0.5,2.1-0.6,2.8C716.1,952.4,716.1,952.7,716,952.9L716,952.9z M718.4,941.6
			c0,0.9-0.1,1.7-0.3,2.5c-0.4,2.9-1,5.9-1.8,8.8H716c0.3-1.5,1.6-7.4,2-9.4l0,0c0.1-0.5,0.2-1,0.2-1.6c0-0.2,0-0.4,0-0.6
			c0-0.2,0-0.3-0.1-0.5c0-0.3-0.1-0.6-0.3-0.9C718.3,940.2,718.4,940.8,718.4,941.6L718.4,941.6z M717.7,939.9
			c0.4,0.4,0.6,1,0.5,1.6c0,0.1,0,0.3,0,0.4c0,0.4-0.1,0.9-0.2,1.6l0,0c0,0.2-0.1,0.5-0.2,0.8c-0.3,1.3-0.8,3.5-1.3,5.5
			c-0.2,1-0.5,1.9-0.6,2.5c-0.1,0.3-0.1,0.5-0.2,0.7l0,0c0,0,0-0.2-0.1-0.5c0.8-2.7,1.5-5.4,2-8.2c0.2-0.7,0.4-1.4,0.4-2.2
			c0-0.3,0-0.5,0-0.7c0-0.4,0-0.7-0.2-1c-0.1-0.2-0.3-0.3-0.5-0.3c0-0.1-0.1-0.1-0.1-0.2l0,0C717.4,939.8,717.6,939.9,717.7,939.9
			L717.7,939.9z M717.1,939.7c0.1,0,0.2,0,0.3,0.1C717.3,939.8,717.2,939.8,717.1,939.7C717.2,939.8,717.2,939.8,717.1,939.7
			C717.2,939.7,717.1,939.7,717.1,939.7L717.1,939.7z M717.1,939.8c-0.2,0-0.4,0.1-0.6,0.3l0,0c0-0.1,0.1-0.1,0.2-0.2
			C716.8,939.8,716.9,939.7,717.1,939.8C717,939.7,717,939.7,717.1,939.8L717.1,939.8z M716.4,939.7c0.1-0.1,0.2-0.1,0.3-0.1
			s0.1,0,0.2,0.1c-0.2,0.1-0.4,0.2-0.5,0.3C716.4,939.9,716.4,939.8,716.4,939.7L716.4,939.7L716.4,939.7L716.4,939.7z M716.5,940.4
			L716.5,940.4L716.5,940.4c-0.1-0.2-0.1-0.3-0.1-0.4s0-0.2,0.1-0.2C716.4,940,716.4,940.2,716.5,940.4L716.5,940.4z M715.8,939.4
			c0.2,0,0.4,0.1,0.5,0.3c-0.1,0.1-0.1,0.2-0.1,0.3s0,0.2,0.1,0.3c-0.1,0-0.2,0-0.2,0.1c0-0.2,0-0.5-0.1-0.7
			C715.9,939.6,715.8,939.5,715.8,939.4C715.7,939.4,715.7,939.4,715.8,939.4L715.8,939.4z M715.8,939.8c0.1,0.2,0.1,0.4,0.1,0.7
			h-0.1c-0.1,0-0.1,0-0.2,0.1c-0.1,0-0.1-0.1-0.2-0.1c-0.1,0-0.1,0-0.2,0.1l0,0c0-0.2,0-0.4,0-0.5s0-0.2,0.1-0.3s0.2-0.2,0.3-0.3
			C715.7,939.5,715.8,939.7,715.8,939.8L715.8,939.8z M714.8,939.2c0.1,0,0.2-0.1,0.3-0.1s0.3,0,0.4,0.1l0.1,0.1
			c-0.1,0.1-0.3,0.2-0.3,0.3c0,0,0,0.1-0.1,0.1v-0.1C715.1,939.4,715,939.3,714.8,939.2L714.8,939.2L714.8,939.2L714.8,939.2z
			 M714.7,939.3c0,0.1,0,0.1,0.1,0.2c0.1,0.3,0.1,0.7,0.1,1c-0.1,0-0.1,0.1-0.2,0.1c0-0.1,0-0.1-0.1-0.1c-0.1-0.1-0.2-0.2-0.4-0.2
			h-0.1c0,0,0,0,0-0.1c0-0.2,0.1-0.3,0.1-0.5C714.4,939.6,714.5,939.3,714.7,939.3L714.7,939.3z M714.3,939.2
			c0.1-0.1,0.1-0.2,0.2-0.2c0.1,0,0.1,0,0.2,0.2c-0.2,0-0.4,0.3-0.5,0.5c-0.1,0.1-0.1,0.3-0.1,0.4L714,940c0-0.1,0.1-0.3,0.1-0.4
			C714.1,939.5,714.2,939.4,714.3,939.2L714.3,939.2z M713.7,939.6c0-0.1,0.1-0.2,0.1-0.3s0.1-0.1,0.1-0.1s0.1,0,0.2,0.2
			c-0.1,0.2-0.2,0.5-0.2,0.7c-0.1,0-0.1-0.1-0.2-0.1C713.7,939.8,713.7,939.7,713.7,939.6L713.7,939.6z M711.2,952.9
			c0-0.2-0.1-0.5-0.2-0.9c-0.3-1.5-0.9-4-1.3-6c0.6,2.4,1.4,5.7,1.7,6.9H711.2z M711.6,952.3c-0.8-2.6-1.4-5.3-1.9-8l0,0l0,0
			c-0.1-0.3-0.1-0.6-0.2-0.8c-0.1-0.4-0.1-0.9-0.1-1.3c0-0.4,0.1-0.9,0.2-1.3v0.1c0.2,3.7,0.9,7.5,2,11
			C711.6,952.1,711.6,952.2,711.6,952.3L711.6,952.3z M709.3,942.8c0-0.2-0.1-0.5-0.1-0.8s0-0.5,0-0.7c0-0.3,0-0.7,0.2-1
			c0.1-0.1,0.2-0.2,0.4-0.3c-0.1,0.1-0.1,0.2-0.1,0.4c0,0.1,0,0.1,0,0.2c-0.2,0.4-0.3,1-0.3,1.5
			C709.3,942.3,709.3,942.6,709.3,942.8L709.3,942.8z M710.5,940.4c0-0.1-0.1-0.1-0.2-0.1c0,0,0-0.1-0.1-0.1
			c-0.1-0.1-0.2-0.2-0.3-0.1c0,0,0,0-0.1,0c0-0.1,0.1-0.1,0.1-0.2c0.2,0,0.3,0.1,0.5,0.2l0.1,0.1l0,0
			C710.5,940.2,710.5,940.2,710.5,940.4C710.6,940.3,710.6,940.3,710.5,940.4L710.5,940.4z M710.7,940.4L710.7,940.4
			c-0.1,0.2-0.2,0.3-0.2,0.4c0-0.1,0.1-0.2,0.1-0.3C710.6,940.5,710.6,940.4,710.7,940.4L710.7,940.4z M710,940.1
			c0.1,0,0.2,0,0.3,0.1c0,0,0,0,0,0.1c0,0,0,0-0.1,0c-0.2,0-0.4,0.1-0.5,0.3l0,0C709.7,940.5,709.8,940.3,710,940.1
			C709.9,940.1,710,940.1,710,940.1L710,940.1z M711.7,951.8c-1.1-3.5-1.8-7.2-2-10.9c0-0.1,0-0.2,0-0.3c0.1-0.1,0.2-0.2,0.3-0.3
			c0.1,0,0.2-0.1,0.2-0.1c0.1,0,0.2,0,0.2,0.1c0,0,0,0,0,0.1l0,0c-0.2,0.3-0.3,0.7-0.3,1.1c0,0.1,0,0.1,0,0.2
			c0.3,3.4,0.8,6.7,1.5,10C711.7,951.7,711.7,951.8,711.7,951.8L711.7,951.8z M711.7,951.5c-0.7-3.2-1.2-6.5-1.5-9.8
			c0-0.1,0-0.1,0-0.2c0-0.1,0-0.2,0-0.3c0.1-0.3,0.2-0.5,0.3-0.7c0,0.2,0,0.5,0,0.8s0,0.7,0.1,1.2c0,0.4,0.1,1,0.2,1.7
			c0,0.1,0,0.2,0,0.3c0.2,2.2,0.6,4.3,1,6.4C711.8,951.1,711.8,951.4,711.7,951.5L711.7,951.5z M710.7,941.4c0-0.3,0-0.6,0-0.8
			c0.1,0,0.1-0.1,0.2-0.1c0.1,0,0.1,0,0.2,0.1l0,0c-0.1,0.1-0.2,0.2-0.2,0.3c-0.1,0.2-0.2,0.5-0.2,0.8
			C710.7,941.5,710.7,941.4,710.7,941.4L710.7,941.4z M711.9,950.8c-0.2-0.9-0.5-2.7-0.7-4.5c0.3,1.6,0.7,3.3,0.8,4.1
			C712,950.5,711.9,950.7,711.9,950.8z M712,950.2c-0.1-0.5-0.2-1.2-0.4-2c-0.3-1.3-0.5-2.8-0.7-3.8c-0.1-0.7-0.2-1.4-0.2-2
			c0-0.2,0-0.3,0-0.4c0-0.4,0.1-0.9,0.2-1.2c0-0.1,0.1-0.2,0.2-0.3c0,0.2,0,0.4,0,0.6c0,0.1,0,0.1,0,0.2c0,0.2,0,0.4,0,0.6
			c0.2,2.6,0.5,5.2,1.1,7.8C712.1,949.9,712.1,950.1,712,950.2L712,950.2z M712.2,949.6c-0.5-2.5-0.9-5-1-7.6c0-0.2,0-0.3,0-0.4
			c0.1,1.6,0.9,5.6,1.2,7.2C712.3,949.1,712.3,949.3,712.2,949.6L712.2,949.6z M711.7,940.5L711.7,940.5
			C711.8,940.6,711.8,940.6,711.7,940.5c-0.3,0.5-0.4,1-0.3,1.5c0,0.3,0,0.7,0.1,1.2c-0.1-0.7-0.2-1.3-0.2-2
			C711.4,940.6,711.6,940.5,711.7,940.5L711.7,940.5z M711.2,941c0-0.2,0-0.3,0-0.4h0.1h0.1l0,0C711.4,940.7,711.3,940.8,711.2,941
			L711.2,941z M712.4,948.6c-0.1-0.4-0.2-0.8-0.2-1.3c-0.2-1.3-0.5-2.9-0.6-3.7c-0.1-0.6-0.1-1.1-0.1-1.5c-0.1-0.5,0.1-1,0.3-1.3
			l0.1-0.1c0,0.1,0,0.2,0,0.3c0.1,2.2,0.3,4.4,0.7,6.6C712.6,947.9,712.5,948.2,712.4,948.6L712.4,948.6z M712.7,947.3
			c-0.4-2.1-0.6-4.2-0.7-6.4c0-0.1,0-0.3,0-0.4h0.1h0.1c0,0.1,0,0.3,0,0.4c0,0.6,0,1.2,0.1,1.8c0.2,1.8,0.4,3.3,0.5,4.1
			C712.7,947,712.7,947.1,712.7,947.3L712.7,947.3z M712,940.5c0-0.3,0-0.5,0.1-0.8c0.1-0.2,0.2-0.4,0.3-0.4c0,0,0,0.1-0.1,0.2
			C712.2,939.8,712.2,940.2,712,940.5C712.2,940.5,712.1,940.5,712,940.5C712.1,940.5,712,940.5,712,940.5L712,940.5z M712.8,946.3
			c0,0.1,0,0.1,0,0.2c0-0.1,0-0.3,0-0.4c-0.1-0.8-0.2-2-0.4-3.4c-0.1-0.6-0.1-1.2-0.1-1.8c0-0.1,0-0.3,0-0.4c0,0,0,0,0.1,0l0.1,0.1
			c0,0.2,0,0.3,0,0.5c0.1,1.5,0.3,3.1,0.5,4.6C712.9,946,712.9,946.2,712.8,946.3L712.8,946.3z M712.9,945.5c0-0.1,0-0.2,0-0.3
			c-0.2-1.3-0.4-2.6-0.4-4c0-0.2,0-0.5,0.1-0.7c0.1-0.1,0.2-0.2,0.3-0.2h0.1c-0.1,0.5-0.1,1,0,1.5
			C713.1,943.1,713.1,944.3,712.9,945.5L712.9,945.5z M713.2,939.1C713.2,939.1,713.3,939.1,713.2,939.1c0.2,0.3,0.3,0.5,0.3,0.8
			c-0.1,0-0.2,0-0.2,0.1c0-0.1-0.1-0.3-0.1-0.4c0-0.1-0.1-0.2-0.1-0.3C713.1,939.2,713.2,939.1,713.2,939.1L713.2,939.1z
			 M712.7,939.1c0.1,0,0.1,0.1,0.2,0.2c0.1,0.2,0.2,0.4,0.2,0.6c0,0.1,0,0.2,0.1,0.2l-0.1,0.1c0-0.1-0.1-0.3-0.1-0.4
			c-0.1-0.2-0.2-0.5-0.5-0.5C712.6,939.1,712.7,939.1,712.7,939.1L712.7,939.1z M712.9,939.8c0.1,0.1,0.1,0.3,0.1,0.4c0,0,0,0,0,0.1
			h-0.1c-0.1,0-0.3,0.1-0.4,0.2l-0.1,0.1c0-0.1-0.1-0.1-0.2-0.1c0-0.3,0.1-0.7,0.1-1c0-0.1,0-0.1,0.1-0.2
			C712.6,939.3,712.8,939.6,712.9,939.8L712.9,939.8z M711.8,939.3c0.1-0.1,0.2-0.1,0.4-0.1c0.1,0,0.2,0,0.3,0.1l0,0
			c-0.2,0-0.3,0.2-0.4,0.5v0.1c0,0,0-0.1-0.1-0.1c-0.1-0.1-0.2-0.2-0.3-0.3C711.7,939.3,711.7,939.3,711.8,939.3L711.8,939.3z
			 M711.6,939.4c0.1,0,0.3,0.1,0.3,0.3c0,0.1,0.1,0.1,0.1,0.2v0.1c0,0.2,0,0.3,0,0.5l0,0c-0.1,0-0.1,0-0.2-0.1c-0.1,0-0.1,0-0.2,0.1
			c-0.1,0-0.1-0.1-0.2-0.1h-0.1c0-0.2,0-0.5,0.1-0.7C711.4,939.7,711.5,939.5,711.6,939.4L711.6,939.4z M711.4,939.4
			C711.4,939.4,711.5,939.4,711.4,939.4c0,0.1-0.1,0.2-0.1,0.3c-0.1,0.2-0.1,0.5-0.1,0.7c-0.1-0.1-0.2-0.1-0.2-0.1
			c0-0.1,0.1-0.2,0.1-0.3s0-0.2-0.1-0.3C711,939.5,711.2,939.4,711.4,939.4L711.4,939.4z M710.9,939.8c0,0.1,0.1,0.2,0.1,0.2
			c0,0.1,0,0.2-0.1,0.3h-0.1C710.8,940.2,710.8,940,710.9,939.8L710.9,939.8z M710.5,939.6c0.1,0,0.2,0,0.3,0.1c0,0,0.1,0,0.1,0.1
			l0,0c0,0.1-0.1,0.2-0.1,0.2c-0.1-0.2-0.3-0.3-0.5-0.3C710.3,939.6,710.4,939.6,710.5,939.6L710.5,939.6z M710.2,939.7
			c0.1,0,0.3,0.1,0.4,0.2c0.1,0.1,0.1,0.1,0.2,0.2l0,0C710.6,939.9,710.3,939.8,710.2,939.7C710.1,939.7,710.2,939.7,710.2,939.7
			L710.2,939.7z M710,939.7L710,939.7C710.1,939.7,710,939.7,710,939.7C709.9,939.8,709.9,939.8,710,939.7c-0.2,0.1-0.3,0.1-0.3,0.1
			C709.8,939.7,709.9,939.7,710,939.7L710,939.7z M709.5,939.9c0.1,0,0.3-0.1,0.4-0.1l0,0c0,0.1-0.1,0.1-0.1,0.2
			c-0.2,0-0.4,0.1-0.5,0.3c-0.2,0.3-0.2,0.7-0.2,1c0,0.2,0,0.4,0,0.7c0,0.7,0.2,1.5,0.4,2.2c0.5,2.8,1.1,5.5,2,8.2
			c-0.1,0.3-0.1,0.5-0.1,0.5c0-0.2-0.1-0.4-0.2-0.7c-0.5-1.9-1.5-6.1-1.9-8c-0.1-0.3-0.1-0.5-0.2-0.8l0,0c-0.1-0.7-0.2-1.2-0.2-1.6
			c0-0.1,0-0.3,0-0.4C708.9,940.9,709.1,940.3,709.5,939.9L709.5,939.9z M709.3,940c-0.2,0.3-0.3,0.6-0.3,0.9
			c-0.1,0.2-0.1,0.3-0.1,0.5c0,0.1,0,0.3,0,0.6c0,0.5,0.1,1.1,0.2,1.6c0.3,2,1.6,7.9,2,9.4h-0.3c-0.8-2.9-1.4-5.8-1.8-8.8
			c-0.1-0.8-0.2-1.7-0.3-2.5C708.8,940.8,708.9,940.2,709.3,940L709.3,940z M684.1,962v0.5c0,0,1.2,0.5,6.7,0.5s6.7-0.5,6.7-0.5V962
			c2.6-1,4.9-2.8,6.5-5.1c3.1-4.1,2.8-8.9-0.2-12c-2.9-2.9-8.3-3.4-12.4-3.4h-0.5c-4.2,0-9.9,0.3-13,3.4s-3.3,7.9-0.2,12
			C679.3,959.2,681.5,960.9,684.1,962z M690.8,942.1c6.1,0,11,1.5,11,3.3s-4.9,3.3-11,3.3s-11-1.5-11-3.3S684.8,942.1,690.8,942.1
			L690.8,942.1z M717.9,968.5c-2.2-0.2-18.5-1.3-22.9-1.3s-13,1.7-16.2,1.1c-3.1-0.6-2.8-3.1-3.5-3.5c-0.3-0.2-0.7-0.2-0.7,0.8
			c-0.1,2.3,1.7,4.2,4,4.4c3.6,0.4,10-1.2,16.5-1.2s21.3,0.9,22.6,1s2.5,0.1,2.5-0.4S720.1,968.6,717.9,968.5L717.9,968.5z"/>
	</g>
</g>
<text transform="matrix(1 0 0 1 -116.9921 34.9756)" class="st0" style="font-family:'ManyoGyoshoStd-E-83pv-RKSJ-H'; font-size:20px;glyph-orientation-vertical:0;writing-mode:tb; letter-spacing:8;">茶道教室</text>
</svg>
