<svg xmlns="http://www.w3.org/2000/svg" width="86.602" height="50" viewBox="0 0 86.602 50">
  <g id="グループ_83" data-name="グループ 83" transform="translate(-184.997 -1260.599)" opacity="0.3">
    <rect id="長方形_53" data-name="長方形 53" width="86.602" height="50" transform="translate(184.997 1260.599)" fill="none"/>
    <path id="パス_742" data-name="パス 742" d="M216.751,1297.474l7.577,13.125h1.47V1281.8Z" fill="none"/>
    <path id="パス_743" data-name="パス 743" d="M194.327,1299.974l13.57,7.835,4.832,2.79h5.825l-6.134-10.625Z" fill="none"/>
    <path id="パス_744" data-name="パス 744" d="M225.8,1260.6h-1.469l1.469,2.544Z" fill="none"/>
    <path id="パス_745" data-name="パス 745" d="M255.721,1269.974l5.412-9.375h-7.271l-16.237,9.375Z" fill="none"/>
    <path id="パス_746" data-name="パス 746" d="M200.874,1274.974l-9.047,15.669,27.139-15.669Z" fill="none"/>
    <path id="パス_747" data-name="パス 747" d="M230.8,1281.8V1310.6h1.469l7.578-13.125Z" fill="none"/>
    <path id="パス_748" data-name="パス 748" d="M255.721,1274.974H237.628l27.14,15.669Z" fill="none"/>
    <path id="パス_749" data-name="パス 749" d="M218.968,1269.974l-16.237-9.375h-7.27l5.413,9.375Z" fill="none"/>
    <path id="パス_750" data-name="パス 750" d="M230.8,1263.144l1.469-2.544H230.8Z" fill="none"/>
    <path id="パス_751" data-name="パス 751" d="M244.174,1299.974,238.04,1310.6h5.824l18.4-10.625Z" fill="none"/>
    <path id="パス_752" data-name="パス 752" d="M212.42,1294.974l9.047-15.671-27.143,15.671Z" fill="none"/>
    <path id="パス_753" data-name="パス 753" d="M269.1,1288.142V1260.6h-2.191l-6.855,11.875Z" fill="none"/>
    <path id="パス_754" data-name="パス 754" d="M243.863,1260.6H238.04l-2.912,5.043Z" fill="none"/>
    <path id="パス_755" data-name="パス 755" d="M218.555,1260.6h-5.824l8.735,5.043Z" fill="none"/>
    <path id="パス_756" data-name="パス 756" d="M244.174,1294.974h18.1L235.126,1279.3Z" fill="none"/>
    <path id="パス_757" data-name="パス 757" d="M196.544,1272.474l-6.857-11.875H187.5v27.544Z" fill="none"/>
    <path id="パス_758" data-name="パス 758" d="M187.5,1310.6h2.191L187.5,1306.8Z" fill="none"/>
    <path id="パス_759" data-name="パス 759" d="M195.461,1310.6h7.268l-10.9-6.295Z" fill="none"/>
    <path id="パス_760" data-name="パス 760" d="M266.907,1310.6H269.1V1306.8Z" fill="none"/>
    <path id="パス_761" data-name="パス 761" d="M264.768,1304.3l-10.9,6.295h7.27Z" fill="none"/>
    <path id="パス_762" data-name="パス 762" d="M269.1,1260.6v27.543l-9.047-15.668,6.856-11.875h-5.774l-5.412,9.375H237.626l16.237-9.375h-10l-8.735,5.043,2.912-5.043h-5.774l-1.469,2.544V1260.6h-5v2.544l-1.468-2.544h-5.774l2.911,5.044-8.735-5.044h-10l16.237,9.375H200.874l-5.413-9.375h-5.775l6.858,11.875-9.048,15.669V1260.6H185v36.875h0V1310.6h2.5v-3.8l2.191,3.8h5.774l-3.635-6.3,10.9,6.3h10l-4.832-2.79-13.57-7.835H212.42l6.134,10.625h5.774l-7.577-13.125,9.046-15.67v28.8h5v-28.8l9.047,15.67-7.578,13.125h5.774l6.134-10.625h18.093l-18.4,10.625h10l10.9-6.3-3.635,6.3h5.774l2.191-3.8v3.8h2.5v-13.125h0V1260.6Zm-13.377,14.375,9.047,15.669-27.14-15.669Zm-54.847,0h18.091l-27.138,15.669Zm-6.549,20,27.142-15.671-9.047,15.671Zm49.849,0-9.048-15.672,27.144,15.672Z" fill="#fff"/>
  </g>
</svg>
