<?xml version="1.0" encoding="utf-8"?>
<!-- Generator: Adobe Illustrator 24.3.0, SVG Export Plug-In . SVG Version: 6.00 Build 0)  -->
<svg version="1.1" id="レイヤー_1" xmlns="http://www.w3.org/2000/svg" xmlns:xlink="http://www.w3.org/1999/xlink" x="0px"
	 y="0px" viewBox="0 0 94 285.3" style="enable-background:new 0 0 94 285.3;" xml:space="preserve">
<style type="text/css">
	.st0{enable-background:new    ;}
	.st1{fill:#7E7E7E;}
	.st2{fill:#BA566A;}
</style>
<g id="グループ_93" transform="translate(-315.02 -53.271)">
	<g class="st0">
		<path class="st1" d="M348.4,204.4c2.3-1.3,4.5-2.8,6.6-4.4s4.1-3.3,6-5.3c0-0.1,0-0.2,0.1-0.3c0.1-0.1,0.2-0.2,0.3-0.2
			c0.2-0.1,0.5,0,0.7,0.1c0.2,0.2,0.3,0.4,0.4,0.6c0.1,0.2,0.3,0.3,0.4,0.5c0.1,0.2,0.2,0.4,0.3,0.5c0.7,0.7,1.5,1.4,2.3,2
			c0.8,0.6,1.6,1.2,2.5,1.7c1.5,0.7,3,1.5,4.4,2.3c1.4,0.9,2.8,1.9,4.1,2.9c-0.1,0.2-0.2,0.3-0.3,0.4c-0.1,0.1-0.3,0.2-0.4,0.2
			l-2.7,0.3c-0.5,0.1-0.9,0.1-1.4-0.1c-0.5-0.1-0.9-0.2-1.3-0.5l-8-7.8c-1.6,1.6-3.3,3.1-5.1,4.5c-1.9,1.3-3.8,2.5-5.8,3.6
			c-0.3,0.2-0.7,0.4-1.1,0.5c-0.4,0.2-0.7,0.2-1.1,0.3c-0.2,0.1-0.3,0.1-0.5,0c-0.2,0-0.3-0.1-0.5-0.2l-0.6-0.7
			c-0.1-0.1-0.2-0.2-0.2-0.2c-0.1,0-0.2-0.1-0.3-0.1c0.2-0.1,0.3-0.1,0.5-0.2C348.1,204.6,348.3,204.5,348.4,204.4z M359.4,190.1
			l5.1-0.6l0.3-3.3c0-0.1,0-0.1,0-0.2c-0.1-0.1-0.1-0.2-0.2-0.2c-0.1-0.1-0.1-0.2-0.2-0.2c-0.1-0.1-0.1-0.2-0.1-0.3l0-0.3
			c0.2-0.2,0.5-0.2,0.8-0.3c0.3,0,0.5,0,0.8,0.1c0.4,0.2,0.9,0.5,1.3,0.8c0.4,0.3,0.7,0.7,1.1,1.1c0,0.1,0.1,0.2,0.1,0.4
			s0,0.2-0.1,0.4l-0.5,2l0.9-0.1c0.2,0,0.5,0,0.7,0.1c0.2,0.1,0.5,0.1,0.7,0.2l2,1c0.2,0.1,0.4,0.2,0.6,0.4c0.2,0.2,0.3,0.4,0.4,0.6
			c-0.1,0.2-0.2,0.3-0.3,0.5c-0.2,0.1-0.3,0.2-0.5,0.3c-0.1,0.1-0.3,0.1-0.4,0.1c-0.2,0-0.3,0-0.4,0c-0.8,0-1.5,0-2.3,0
			c-0.8,0-1.5,0-2.3,0.1l-0.7,2.1c-0.1,0.2-0.2,0.3-0.2,0.4c-0.1,0.1-0.2,0.2-0.3,0.2l-1.4-0.5l0.1-2c-0.9,0.1-1.7,0.1-2.6,0.2
			c-0.9,0.1-1.7,0.3-2.5,0.5c0,0.2,0,0.4-0.1,0.6c-0.1,0.2-0.1,0.4-0.2,0.5c-0.1,0.1-0.1,0.2-0.1,0.3c0,0.2,0,0.3,0,0.4
			c-0.2,0.1-0.4,0.1-0.6,0c-0.2,0-0.3-0.1-0.5-0.2c-0.1-0.2-0.2-0.3-0.3-0.5c-0.1-0.2-0.2-0.4-0.2-0.6l-0.7,0.2
			c-0.1,0.2-0.1,0.2-0.2,0.3c-0.1,0.1-0.3,0.1-0.4,0.1c-0.9-0.2-1.7-0.6-2.5-1.1c-0.8-0.4-1.6-0.9-2.3-1.5c0.2-0.1,0.5-0.2,0.8-0.2
			c0.3,0,0.6,0,0.9,0c0.1,0,0.2,0,0.3,0c0.1,0,0.2,0,0.3-0.1c0.6-0.2,1.1-0.4,1.6-0.6c0.5-0.2,1.1-0.3,1.7-0.5l-0.5-2.5
			c-0.2-0.2-0.5-0.5-0.7-0.7c-0.2-0.2-0.5-0.5-0.7-0.7c0.2-0.1,0.4-0.1,0.6-0.2c0.2,0,0.4,0,0.6,0c0.7,0.1,1.3,0.3,1.9,0.7
			c0.6,0.3,1.1,0.7,1.6,1.1c0.1,0.1,0.2,0.3,0.2,0.4c0,0.2,0,0.3,0,0.5L359.4,190.1z M352.2,213c0.9-0.6,1.7-1.2,2.5-1.9
			c0.7-0.7,1.5-1.5,2.1-2.3c0.1-0.2,0.2-0.3,0.3-0.6c0.1-0.2,0.1-0.4,0.2-0.6c0.1-0.1,0.2-0.1,0.3-0.1s0.2,0,0.3,0
			c0.3,0.2,0.6,0.5,0.9,0.7c0.3,0.3,0.5,0.6,0.7,1c0.1,0.2,0.1,0.3,0.2,0.5c0,0.2,0,0.3,0,0.5l-0.1,0.4l-0.5-0.1
			c-0.7,0.6-1.3,1.1-2,1.6c-0.7,0.4-1.5,0.8-2.3,1.1c-0.4,0.1-0.9,0.1-1.3,0C353,213.4,352.6,213.2,352.2,213z M355.5,204l5.6-0.5
			v-3.3c-0.1-0.1-0.1-0.2-0.2-0.3c-0.1-0.1-0.1-0.2-0.1-0.3c0.1-0.2,0.2-0.3,0.4-0.4c0.1-0.1,0.3-0.2,0.5-0.2
			c0.2,0.2,0.5,0.3,0.8,0.4c0.2,0.2,0.5,0.3,0.8,0.5c0.2,0.2,0.4,0.4,0.6,0.6c0.1,0.3,0.1,0.6,0.1,0.8l-0.3,1.6c0,0.1,0,0.2,0.1,0.2
			c0.1,0.1,0.1,0.1,0.2,0.1l1.9-0.3c0.4,0.2,0.8,0.4,1.2,0.6c0.4,0.2,0.8,0.5,1.1,0.8c0.1,0.1,0.2,0.2,0.2,0.3
			c0.1,0.1,0.1,0.3,0.1,0.4c-0.2,0.2-0.3,0.3-0.6,0.5s-0.5,0.2-0.7,0.2l-4,0.3l0,7.8c0,0.2-0.1,0.4-0.2,0.7
			c-0.1,0.2-0.3,0.3-0.5,0.5l-0.7,0.2c-0.1,0-0.2,0-0.2,0c-0.1-0.1-0.1-0.1-0.2-0.2l-0.6-0.9l0.1-7.8l-2.9,0.2l-0.6,0.2
			c-0.6-0.3-1.1-0.7-1.5-1.1c-0.5-0.4-0.9-0.8-1.3-1.3c0.1-0.1,0.2-0.1,0.3-0.2C355.2,204,355.3,204,355.5,204z M365.1,207.6
			c0.9,0.3,1.8,0.6,2.7,1s1.7,0.8,2.6,1.2c0.1,0.1,0.2,0.2,0.3,0.3c0.1,0.2,0.2,0.3,0.2,0.5l0.1,3.2c0,0.1-0.1,0.2-0.1,0.3
			c-0.1,0.1-0.2,0.1-0.2,0.2c-0.1,0-0.2,0-0.3-0.1c-0.1-0.1-0.2-0.1-0.3-0.2c-0.9-1-1.7-2-2.6-2.9c-0.9-0.9-1.8-1.8-2.8-2.7
			l-0.1-0.7c0.1,0,0.2-0.1,0.4-0.1S364.9,207.6,365.1,207.6z"/>
	</g>
	<g class="st0">
		<path class="st1" d="M359.9,227l-0.9-2.9l-1.2-1.4c1.1-0.2,2.1-0.2,3.2,0c1.1,0.2,2,0.7,2.9,1.3c0.1,0.1,0.1,0.2,0.2,0.2
			c0,0.1,0,0.2,0,0.3c0,0.1,0,0.2-0.1,0.3c-0.1,0.1-0.1,0.2-0.2,0.2l-0.8,0.6l-0.4,1.1c1-0.1,2-0.1,3.1-0.2c1,0,2,0,3.1,0.1l0.6-0.4
			c0.4,0,0.7,0.1,1.1,0.3c0.3,0.2,0.6,0.4,0.8,0.7l1.6,2.4c0.1,0.2,0.1,0.4,0.2,0.6c0,0.2,0,0.4,0,0.6c-0.9,0.2-1.9,0.3-2.8,0.4
			c-1,0.1-1.9,0.1-2.9,0.1l0.2,0.3c0,0.1,0.1,0.2,0.1,0.2c0,0.1,0,0.2,0,0.3c0.6-0.1,1.1,0,1.6,0.3c0.5,0.3,0.9,0.8,1.1,1.3
			c-0.5,0.3-0.9,0.7-1.3,1c-0.4,0.4-0.9,0.7-1.2,1.1c0.4,0.4,0.9,0.8,1.4,1.1c0.5,0.3,1,0.7,1.5,1c0.8,0.4,1.6,0.9,2.4,1.4
			c0.7,0.5,1.5,1.1,2.2,1.7c-0.6,0.1-1.3,0.2-1.9,0.2c-0.6,0.1-1.2,0-1.8-0.1c-0.6,0-1.1-0.1-1.5-0.3c-0.5-0.2-0.9-0.4-1.3-0.8
			l-1.2-1.2l-0.7,3.8c-0.1,0.2-0.1,0.3-0.2,0.4c-0.1,0.1-0.3,0.2-0.4,0.1l-0.8-0.1c-0.2,0-0.3-0.1-0.5-0.2c-0.2-0.1-0.2-0.2-0.3-0.4
			l-2,0.2c0.2,0.1,0.3,0.2,0.4,0.3c0.1,0.2,0.2,0.3,0.2,0.5l-0.1,4.4c0,0.3-0.1,0.7-0.2,1c-0.1,0.3-0.3,0.6-0.5,0.9
			c-0.1,0.2-0.2,0.4-0.4,0.7c-0.2,0.2-0.3,0.4-0.5,0.6c-0.1,0.1-0.2,0.2-0.4,0.2c-0.2,0-0.3,0-0.5-0.1c-0.2-0.1-0.3-0.2-0.4-0.3
			c-0.1-0.2-0.1-0.3-0.1-0.5c-0.7-0.4-1.3-0.8-1.8-1.3c-0.6-0.5-1-1-1.5-1.7c0.5,0.2,1,0.3,1.6,0.3c0.5,0,1.1,0,1.6-0.1
			c0.1-0.6,0.1-1.3,0.1-2c0-0.7,0-1.3,0-2c-0.1-0.1-0.2-0.2-0.2-0.3c-0.1-0.1-0.1-0.2-0.2-0.4l-1,0.1l-0.3,0.3l-0.9,0.2
			c-0.2,0-0.3,0-0.5-0.1c-0.2-0.1-0.3-0.2-0.4-0.3c-0.2-0.4-0.4-0.8-0.5-1.2c-0.1-0.4-0.2-0.8-0.3-1.2c-0.1-0.3-0.1-0.6-0.2-0.9
			c-0.1-0.2-0.1-0.6-0.2-0.9c-0.6,0.6-1.1,1.1-1.7,1.6c-0.6,0.5-1.2,0.9-1.9,1.4c-0.5,0.2-1,0.4-1.5,0.4c-0.5,0-1.1,0-1.6-0.2
			c1.1-0.7,2.2-1.4,3.2-2.3c1-0.8,1.9-1.7,2.8-2.7c-0.5-0.5-0.9-1-1.4-1.5c-0.5-0.5-1-0.9-1.4-1.4c-0.7-0.2-1.4-0.6-1.8-1.2
			c-0.5-0.6-0.7-1.3-0.7-2l0.8-0.4l0.5-1.8l-0.4-0.7c0.2,0.1,0.5,0.2,0.7,0.2s0.5,0,0.7-0.1c1.3-0.2,2.6-0.4,3.9-0.6
			C357.2,227.3,358.5,227.1,359.9,227z M351.4,249.1c0.7-0.7,1.5-1.5,2.2-2.3c0.7-0.8,1.3-1.7,1.8-2.6l-0.1-0.5c0.5,0,1,0.1,1.5,0.2
			c0.4,0.2,0.9,0.4,1.3,0.7c0.1,0.1,0.2,0.3,0.1,0.4c0,0.2-0.1,0.3-0.2,0.4c-0.7,0.6-1.3,1.1-1.9,1.7c-0.6,0.6-1.2,1.2-1.7,1.9
			c-0.2,0.2-0.4,0.3-0.6,0.5c-0.2,0.1-0.5,0.1-0.7,0.1c-0.3,0-0.6-0.1-0.9-0.1C351.8,249.5,351.6,249.3,351.4,249.1z M354,229.4
			l-2,3.9l0.2,0.6c0.1-0.1,0.2-0.1,0.3-0.2c0.1,0,0.2,0,0.4,0c0.6,0.1,1.2,0.2,1.8,0.6c0.5,0.4,1,0.8,1.3,1.4
			c0.3-0.3,0.6-0.7,0.9-1.1c0.3-0.4,0.5-0.8,0.8-1.3c-0.3,0-0.6,0.1-0.9,0.2c-0.3,0.1-0.7,0.2-0.9,0.4c-0.6-0.3-1.1-0.7-1.5-1.3
			c-0.4-0.6-0.5-1.2-0.5-1.9c0.2,0.1,0.4,0.2,0.7,0.3c0.2,0.1,0.3,0.3,0.5,0.5l4-0.5l0.4-0.8c0-0.1,0-0.2,0-0.3c0-0.1,0-0.2-0.1-0.2
			c-0.1-0.1-0.2-0.1-0.2-0.2c-0.1,0-0.2,0-0.3,0l0.4-0.8c-0.9,0.1-1.8,0.3-2.7,0.4C355.8,229.1,354.9,229.2,354,229.4z M360.3,232.9
			c-0.3,0.6-0.7,1.2-1.1,1.8c-0.4,0.6-0.8,1.1-1.2,1.7c1.1-0.3,2.2-0.5,3.3-0.7s2.2-0.2,3.4-0.1l-2.2-3.1L360.3,232.9z M358.5,238.9
			c1-0.2,2-0.4,3.1-0.5c1.1,0,2.1,0,3.1,0.1l0.1-1.3c-1.1,0-2.2,0-3.2,0.2c-1.1,0.2-2.1,0.4-3.1,0.7L358.5,238.9z M358.7,241.3
			c1-0.2,2-0.3,2.9-0.3c1-0.1,2-0.1,3,0l0-1c-1-0.1-2-0.1-3,0c-1,0.1-2,0.2-3,0.4L358.7,241.3z M359.9,228.4c0.2,0,0.5,0,0.7,0.1
			s0.5,0.2,0.7,0.3l0.4,0.7c-0.1,0.2-0.1,0.4-0.2,0.6c-0.1,0.2-0.2,0.4-0.2,0.6l4.2-0.5c0.2,0,0.4,0,0.5,0c0.2,0.1,0.3,0.2,0.4,0.2
			l0.4,0.5c0.5-0.3,0.9-0.7,1.3-1.2s0.7-0.9,0.9-1.4c-1.5-0.1-3-0.2-4.6-0.2C363,228.2,361.5,228.3,359.9,228.4z M364,243.9
			c0.3,0,0.6,0,0.8,0c0.2,0,0.5,0.1,0.8,0.2l3.7,1.7c0.1,0.1,0.2,0.2,0.4,0.3c0.1,0.1,0.2,0.3,0.3,0.4c0.2,0.4,0.3,0.7,0.4,1.1
			c0.1,0.4,0.1,0.8,0.1,1.2c0,0.1,0,0.3,0,0.4c-0.1,0.1-0.1,0.2-0.2,0.3l-0.3,0.4c-0.1,0.1-0.2,0.2-0.4,0.2c-0.2,0-0.3-0.1-0.5-0.2
			c-0.4-0.4-0.7-0.9-1.1-1.3c-0.3-0.5-0.7-0.9-1-1.4c-0.4-0.6-0.9-1.2-1.4-1.8C365.2,244.9,364.7,244.4,364,243.9z M364.2,232.3
			c0.3,0.4,0.6,0.8,1,1.2c0.3,0.4,0.7,0.7,1.1,1.1l1.4-1.8l-0.3-0.6c-0.5,0-1.1,0.1-1.6,0.1C365.2,232.3,364.7,232.3,364.2,232.3z"
			/>
	</g>
	<g class="st0">
		<path class="st1" d="M351.4,270.3L351,263c0-0.5,0-0.9-0.2-1.4c-0.2-0.4-0.5-0.8-0.8-1.2c0,0,0,0,0-0.1c0,0,0-0.1,0-0.1l0.3-0.3
			c0,0,0.1-0.1,0.2-0.1c0.1,0,0.1,0,0.2,0c0.8,0.5,1.6,1.1,2.4,1.9c0.7,0.8,1.3,1.6,1.9,2.4c-0.3,0.9-0.5,1.7-0.6,2.7
			c-0.2,1-0.2,1.9-0.2,2.8c0.6,0.2,1.1,0.4,1.7,0.7c0.5,0.3,1,0.7,1.4,1.1c0,0.1,0,0.2,0,0.3s0,0.2-0.1,0.2l-3,1.3v1.6
			c0.2,0.2,0.3,0.3,0.5,0.4c0.2,0.2,0.4,0.2,0.6,0.3c0.3,0.2,0.6,0.5,0.9,0.8c0.2,0.4,0.3,0.8,0.3,1.2c1.1-0.3,2.1-0.5,3.2-0.8
			c1.1-0.2,2.1-0.4,3.2-0.5l0.6-3c-0.1-0.1-0.1-0.2-0.2-0.2c-0.1-0.1-0.1-0.2-0.2-0.3c0,0,0-0.1,0-0.2c0,0,0-0.1,0-0.2
			c0,0,0.1-0.1,0.2-0.1c0.1,0,0.1,0,0.2,0c0.5,0,0.9,0,1.4,0.1c0.4,0.2,0.8,0.3,1.3,0.6c0.2,0.2,0.2,0.3,0.3,0.5
			c0.1,0.2,0.1,0.4,0,0.6l-0.6,1.9c0.5,0,1.1-0.1,1.7-0.2c0.6,0,1.2,0,1.8,0c0-0.4,0-0.7,0-1.1c0-0.3-0.1-0.7-0.2-1.1
			c-0.2-0.1-0.3-0.2-0.4-0.4c-0.2-0.1-0.2-0.3-0.3-0.5c0.2-0.2,0.3-0.3,0.5-0.3c0.2-0.1,0.4-0.2,0.6-0.2c0.4,0,0.8,0,1.2,0.2
			c0.4,0.2,0.8,0.3,1.1,0.5c0.2,0.2,0.3,0.3,0.4,0.5c0.1,0.2,0.1,0.4,0.1,0.6l-0.2,1.7c0.4,0,0.8,0,1.3,0c0.4,0,0.8,0,1.2,0l1.1-0.4
			c0.7,0.3,1.4,0.6,2.1,1c0.7,0.5,1.3,1,1.8,1.6c0.1,0.1,0.1,0.2,0.2,0.3c0,0.1,0,0.2-0.1,0.3l-0.5,0.8c-0.1,0.2-0.2,0.2-0.3,0.3
			c-0.1,0-0.2,0-0.3,0c-0.6-0.2-1.2-0.4-1.8-0.6c-0.6-0.2-1.2-0.4-1.8-0.6c-0.5-0.1-1-0.2-1.6-0.3c-0.5,0-1.1,0-1.6,0
			c-0.2,1.1-0.3,2.1-0.6,3.2c-0.3,1-0.7,2-1.1,3c0.6,0.3,1.2,0.6,1.8,1c0.6,0.4,1.1,0.8,1.7,1.2c0.1,0.1,0.2,0.1,0.2,0.2
			c0.1,0,0.2,0.1,0.3,0.1l0.7,0.3c0.1,0.1,0.2,0.2,0.4,0.2c0.1,0.1,0.2,0.2,0.3,0.3c0.2,0.4,0.4,0.8,0.6,1.2
			c0.2,0.5,0.2,0.9,0.3,1.3c0,0.2,0,0.3,0,0.4c-0.1,0.2-0.1,0.3-0.2,0.3c-0.1,0.1-0.2,0.2-0.2,0.3c-0.1,0.1-0.2,0.1-0.3,0.2
			c-0.2,0.1-0.3,0.1-0.5,0.1c-0.2-0.1-0.4-0.2-0.5-0.3c-0.2-0.3-0.4-0.6-0.6-0.9c-0.2-0.3-0.4-0.6-0.5-1c-0.6-0.6-1.3-1.2-2-1.8
			c-0.7-0.5-1.4-1-2.2-1.5c-0.9,0.9-1.9,1.7-3,2.4c-1.1,0.7-2.2,1.3-3.4,1.7c-0.6,0.2-1.3,0.3-1.9,0.2c-0.6,0-1.3-0.2-1.8-0.5
			c-0.3-0.2-0.6-0.3-0.9-0.3c-0.3-0.1-0.6-0.2-0.9-0.2c1.7-0.3,3.3-0.8,4.8-1.6c1.5-0.8,2.8-1.7,4.1-3l-3.3-0.9l-0.7,0.8
			c-0.1,0.1-0.2,0.2-0.4,0.2c-0.2,0-0.3,0-0.4-0.1l-1.1-0.6c-0.1-0.1-0.2-0.2-0.2-0.3c0-0.1,0-0.3,0.1-0.4l1.8-4.3
			c-0.5,0.2-0.9,0.3-1.4,0.5c-0.5,0.2-0.9,0.5-1.3,0.8c-0.1,0.2-0.2,0.3-0.4,0.3c-0.2,0-0.3,0-0.4-0.1c-0.4-0.2-0.7-0.3-1-0.6
			c-0.3-0.2-0.6-0.4-0.8-0.6c-0.2-0.2-0.3-0.2-0.5-0.2c-0.2,0-0.4,0-0.6,0c-0.2,0.1-0.3,0.1-0.5,0.1c-0.2,0-0.3,0-0.4-0.1
			c-0.2,0-0.3-0.1-0.5-0.2c-0.2-0.2-0.3-0.3-0.3-0.4l0.3,10.4c0,0.4,0,0.8-0.1,1.2c-0.1,0.4-0.2,0.8-0.3,1.2l-0.9,1.8
			c-0.9-0.4-1.7-1-2.4-1.6c-0.7-0.7-1.3-1.4-1.7-2.4c-0.2-0.3-0.3-0.6-0.5-0.9c-0.2-0.3-0.5-0.5-0.7-0.8c0.6,0.3,1.3,0.6,1.9,0.8
			c0.7,0.2,1.4,0.3,2.1,0.3l-0.1-9.2l-3.6,5.3c-0.2,0.3-0.5,0.5-0.8,0.6c-0.4,0.1-0.7,0.1-1,0c-0.2-0.1-0.5-0.2-0.7-0.2
			c-0.3,0-0.5,0-0.8,0l6.2-10.3l-2.8,0.9c-0.2,0.1-0.3,0.1-0.4,0.1s-0.3-0.1-0.4-0.2c-0.8-0.4-1.4-0.9-2-1.6c-0.6-0.6-1.1-1.3-1.4-2
			c0.2,0.2,0.5,0.3,0.8,0.3c0.3,0.1,0.6,0.2,0.9,0.2c0.1,0,0.2,0,0.3,0c0.1,0,0.2,0,0.3-0.1L351.4,270.3z M357.2,267.6
			c0.9,0,1.8,0.2,2.7,0.5c0.8,0.3,1.6,0.8,2.3,1.5c0.3,0.3,0.5,0.6,0.6,0.9c0.2,0.4,0.2,0.7,0.2,1.1c0,0.2-0.1,0.4-0.2,0.5
			c-0.2,0.2-0.3,0.2-0.5,0.2c-0.3,0-0.6,0-1-0.1s-0.6-0.2-0.9-0.4c-0.4-0.3-0.7-0.6-1-1c-0.3-0.4-0.5-0.8-0.6-1.3
			c-0.2-0.4-0.3-0.8-0.6-1.1C357.9,268,357.6,267.8,357.2,267.6z M369.3,277.8c-0.7,0-1.4,0-2.1,0c-0.7,0-1.4,0.2-2.1,0.3l-1.6,4.1
			l4,0.8c0.5-0.8,0.9-1.6,1.3-2.5C369.1,279.7,369.3,278.8,369.3,277.8z M363.6,261.4c0.7,0.3,1.3,0.7,1.9,1.1
			c0.6,0.5,1.1,0.9,1.6,1.4c0.4,0.7,0.7,1.4,0.9,2.1s0.2,1.5,0,2.3c-0.1,0.2-0.2,0.4-0.5,0.5c-0.2,0.1-0.4,0.1-0.6,0
			c-0.3-0.1-0.6-0.3-0.9-0.5c-0.3-0.2-0.6-0.5-0.8-0.8c-0.3-0.5-0.6-0.9-0.8-1.4c-0.2-0.5-0.2-1.1-0.2-1.6c0-0.5-0.1-1.1-0.2-1.6
			C364,262.5,363.8,262,363.6,261.4z M368.2,271.2c0.5-0.3,1-0.8,1.5-1.3c0.5-0.5,0.8-1,1.2-1.6c0.3-0.5,0.7-1,1.1-1.6
			c0.4-0.5,0.8-0.9,1.2-1.4l-0.3-0.5c0,0,0-0.1,0-0.2c0,0,0-0.1,0-0.1c0,0,0-0.1,0.1-0.1c0,0,0,0,0.1,0c0.2,0,0.5,0,0.8,0.1
			c0.2,0.1,0.5,0.2,0.7,0.3c0.5,0.2,0.9,0.5,1.4,0.9c0.4,0.4,0.8,0.8,1.1,1.2c0.1,0.2,0.1,0.3,0.1,0.4c0,0.2,0,0.3-0.1,0.4
			s-0.1,0.2-0.2,0.3c-0.1,0.1-0.2,0.2-0.3,0.2c-0.9,0.2-1.7,0.6-2.6,0.9c-0.8,0.4-1.6,0.9-2.3,1.4c-0.5,0.3-1.1,0.6-1.7,0.6
			C369.4,271.4,368.8,271.4,368.2,271.2z"/>
	</g>
	<g class="st0">
		<path class="st1" d="M346.6,312.5l1.3,0.5c0.4-0.1,0.9-0.2,1.5-0.2c0.5-0.1,0.9-0.2,1.5-0.3c0.5-0.1,0.9-0.2,1.4-0.2
			c0.5-0.1,1-0.2,1.5-0.2c2-0.3,4-0.5,5.9-0.7c0-0.5-0.1-1-0.2-1.6c-0.2-0.5-0.3-1-0.6-1.5c-0.3-0.1-0.6-0.2-1-0.4
			c-0.2-0.1-0.6-0.3-0.9-0.5c-0.1,0-0.1,0-0.2-0.1c-0.1,0-0.2-0.1-0.2-0.1c-0.8-0.4-1.4-0.8-1.7-1.1c0.5,0,1.1,0,1.7-0.1
			c0.2,0,0.5,0,0.9,0c0.2,0,0.5,0,0.9,0c0.5,0,1.1,0.1,1.8,0.1c0.2,0,0.5,0.1,0.9,0.1c0.3,0,0.6,0,0.9,0c0.4,0.1,0.7,0.2,0.9,0.3
			c0.3,0.2,0.5,0.4,0.7,0.7c0.2,0.4,0.3,0.7,0.3,0.9c0,0.3-0.1,0.6-0.2,0.9l-1.2,2.1l5.3-0.5c0.1-0.1,0.2-0.2,0.3-0.2
			c0.1,0,0.2-0.1,0.4-0.1c0.1,0,0.2,0,0.5,0c0.4,0.1,0.6,0.1,0.9,0.1c0.3,0,0.6,0.1,0.9,0.2s0.6,0.2,1.1,0.3
			c0.2,0.1,0.6,0.2,1.1,0.3c0.2,0.1,0.3,0.2,0.5,0.3c0.2,0.2,0.2,0.3,0.3,0.4c0,0.2,0.1,0.3,0.2,0.6c0,0.1,0,0.1,0,0.1
			c0,0.3,0,0.6,0,0.7c0,0.2-0.1,0.4-0.3,0.5c-0.2,0.2-0.4,0.2-0.5,0.2c0,0,0,0,0,0c-0.2,0-0.5,0-0.7,0c-0.2,0-0.5,0-0.6,0
			c-0.5,0-0.9,0-1.3-0.1c-1,0-1.9,0-2.6,0c-0.8,0-1.7,0.1-2.7,0.1c-0.8,0.1-1.6,0.2-2.6,0.3c0,0.1,0.1,0.2,0.1,0.3
			c0,0.2,0,0.3,0,0.4l-0.2,1.9l6.2-0.6c0.1-0.1,0.3-0.2,0.6-0.3c0.2,0,0.4,0,0.7,0c0.2,0.1,0.4,0.2,0.8,0.2c0.2,0.1,0.4,0.2,0.5,0.2
			c0.2,0.1,0.5,0.2,0.9,0.4c0.1,0.1,0.2,0.1,0.4,0.2c0.1,0.1,0.2,0.2,0.3,0.3c0.1,0.1,0.2,0.2,0.2,0.3l0.6,1.4c-1.6,0-3.3,0-4.9,0
			c-0.8,0-1.6,0.1-2.4,0.2c-0.4,0-0.8,0.1-1.3,0.1c-0.4,0-0.8,0.1-1.2,0.1c0.4,0.2,0.8,0.3,1.3,0.4c0.3,0.1,0.7,0.2,1.4,0.3
			c0.1,0.1,0.3,0.1,0.5,0.1c0.6,0.2,1.1,0.3,1.5,0.3c0.6,0.1,1.1,0.2,1.6,0.3c0.2-0.1,0.5-0.2,0.8-0.3c0.2,0,0.5,0.1,0.8,0.2
			c0.8,0.6,1.5,1.3,2.2,2.1c0.6,0.8,1.2,1.7,1.7,2.6c0.1,0.2,0.1,0.3,0,0.4c-0.1,0.2-0.2,0.2-0.3,0.2l-0.8,0.1
			c-0.2,0.1-0.4,0.1-0.5,0c-0.2,0-0.4-0.1-0.5-0.2c-0.1,0-0.2-0.1-0.3-0.3c-0.2,0-0.3-0.1-0.3-0.2c-0.2-0.1-0.4-0.3-0.6-0.5
			c-0.2,0.3-0.3,0.5-0.5,0.8c-0.2,0.3-0.3,0.6-0.3,0.9l-0.7,3.6l0.8,0.9l-6.9,1.3l0.1,2.1c1.6,0.6,3.1,0.8,4.6,0.7
			c1.6,0,3.1-0.3,4.6-1c0.6-0.2,1.1-0.7,1.5-1.3c0.3-0.6,0.5-1.3,0.4-1.9l-0.5-4.6l4.8,8.5l-1.3,1.6c-0.3,0.3-0.6,0.6-1.1,1
			c-0.5,0.3-0.9,0.5-1.3,0.6c-0.6,0.1-1.1,0.2-1.4,0.3c-0.5,0.1-0.9,0.2-1.3,0.2c-0.4,0-0.9,0.1-1.4,0.1c-0.3,0-0.8,0-1.3,0
			c-0.6-0.1-1.1-0.1-1.4-0.1c-0.5-0.1-1-0.1-1.4-0.2c-0.8-0.2-1.7-0.3-2.7-0.6c-0.4-0.2-0.7-0.3-1-0.5c-0.5-0.3-0.8-0.5-0.9-0.7
			l-1.3-1.5c-0.2-0.2-0.2-0.3-0.3-0.6c-0.1-0.2-0.2-0.5-0.2-0.6v-0.5c-0.6,0.2-1.2,0.3-1.7,0.6c-0.6,0.3-1.2,0.5-1.6,0.7
			c-0.2,0.1-0.4,0.1-0.6,0.1c-0.2,0-0.4,0-0.5-0.2c-0.2-0.1-0.4-0.3-0.7-0.5c-0.2-0.1-0.4-0.3-0.7-0.6c-0.2-0.2-0.3-0.4-0.4-0.6
			c-0.2-0.2-0.2-0.5-0.2-0.7c0-0.3,0-0.5,0.2-0.8c0.1-0.2,0.3-0.3,0.6-0.5l-0.8-3.5c-0.2,0-0.3-0.1-0.3-0.2
			c-0.2-0.1-0.2-0.2-0.3-0.3l-1.9,0l-2.1,7.1c-0.3,0.5-0.5,0.9-0.8,1.2c-0.3,0.4-0.7,0.7-1.1,0.9c-0.3,0.2-0.6,0.3-0.9,0.4
			c-0.2,0.1-0.5,0.2-0.9,0.3c-0.2,0.1-0.3,0.1-0.5,0.2c-0.7,0.3-1.4,0.5-2.2,0.8c0.2-0.2,0.4-0.4,0.6-0.6c0.2-0.2,0.3-0.5,0.4-0.7
			c1.3-3.3,2.5-6.5,3.4-9.8c0.5-1.7,0.9-3.3,1.3-5c0.4-1.7,0.7-3.4,0.9-5.1l-0.6,0c-0.5-0.1-1-0.3-1.6-0.7c-0.5-0.2-0.9-0.6-1.4-1.2
			c-0.3-0.2-0.5-0.5-0.6-1C346.4,313.3,346.5,312.9,346.6,312.5z M354.1,320.2l-1.1,5.1c1.1-0.7,2.2-1.5,3.2-2.4
			c0.9-0.9,1.7-1.9,2.5-3.1l-2.5,0.5c-0.2,0.1-0.6,0.1-1,0c0,0,0,0,0,0C354.6,320.3,354.2,320.3,354.1,320.2z M354.4,315.4
			c0.2,0.2,0.3,0.3,0.4,0.4c0,0.2,0,0.3,0,0.5l-0.3,1.7l4.9-0.8l0.2-1.9c-0.2,0-0.4-0.2-0.5-0.4c-0.1-0.1-0.2-0.3-0.3-0.6
			c-0.3,0.1-0.8,0.2-1.3,0.3c-0.4,0.1-0.7,0.2-0.8,0.2c-0.5,0.2-0.8,0.2-1.1,0.3C355.1,315.2,354.7,315.4,354.4,315.4z M358.5,326.8
			l0.1,0.8l2.9-0.5l0-0.8L358.5,326.8z M360.3,322.4c-0.2,0.4-0.5,0.7-0.8,1.1c-0.2,0.3-0.5,0.6-0.9,1l2.5-0.4l-0.3-1.3L360.3,322.4
			z M361.5,329.6l-2.7,0.5l0.2,1.3l2.5-0.5L361.5,329.6z M361.4,320.6l-0.5,0.8l2.4,1.4c0.2,0.1,0.3,0.2,0.4,0.3
			c0,0.1,0,0.2,0.1,0.4c0,0,0,0,0,0.1l1.8-0.3c0.3,0,0.5-0.1,0.7-0.3c0.2-0.2,0.3-0.4,0.3-0.7L361.4,320.6z M364.3,325.8l0,0.8
			l2.6-0.4l-0.1-0.9L364.3,325.8z M364.4,329.1l0,1.1l2.8-0.6l-0.1-1.1L364.4,329.1z"/>
	</g>
	<g id="グループ_11" transform="translate(313.549 52.123)">
		<path id="パス_99" class="st2" d="M2.5,57.9c5.4,25.4,30.3,41.6,55.7,36.2c25.4-5.4,41.6-30.3,36.2-55.7S64.1-3.2,38.7,2.2
			c0,0,0,0,0,0C13.3,7.6-2.9,32.5,2.5,57.9C2.5,57.9,2.5,57.9,2.5,57.9z M90.4,37.4c5,23.7-10.1,47-33.8,52c-23.7,5-47-10.1-52-33.8
			c-5-23.7,10.1-47,33.8-52C62.1-1.4,85.4,13.7,90.4,37.4C90.4,37.4,90.4,37.4,90.4,37.4z"/>
		<path id="パス_100" class="st2" d="M16.1,67.1C3.6,46.7,8.7,20.9,27,7.3C6.3,19.9,0,47,13,68.2C23.2,85,42.8,93.6,62.1,89.7
			C43.7,91.8,25.7,83,16.1,67.1z"/>
		<path id="パス_101" class="st2" d="M23.4,68C8.9,48.6,11,22.1,27.5,6.5c-18.8,14.8-22,42.8-7,62.9
			c12.2,16.4,32.7,22.5,50.3,16.5C53.8,89.9,34.9,83.4,23.4,68z"/>
		<path id="パス_102" class="st2" d="M80.9,33.5l-7.7,2.3l0.1-8.1c-3.2,1-6.9,3.7-9.9,7.7c-5,6.6-2.6,16.9-2.6,16.9
			s10.5-0.5,15.5-7.2C79.2,41.2,80.8,36.9,80.9,33.5z"/>
		<path id="パス_103" class="st2" d="M86.1,69.6l-4.4-6.8l7.8-2.2c-1.9-2.8-5.5-5.6-10.2-7.3c-7.8-2.9-16.9,2.2-16.9,2.2
			s3.5,9.9,11.2,12.9C78.3,70.1,82.9,70.5,86.1,69.6z"/>
		<path id="パス_104" class="st2" d="M37.1,32.8l7.7,2.3L44.7,27c3.2,1,6.9,3.7,9.9,7.7c5,6.6,2.6,16.9,2.6,16.9
			s-10.5-0.5-15.5-7.2C38.8,40.5,37.1,36.2,37.1,32.8z"/>
		<path id="パス_105" class="st2" d="M48.7,8l-4.4,2.2l3.4,3.5c-2.4,1-5,1.3-7.5,0.7c-5-0.8-8.2-6.3-8.2-6.3s4.8-4.1,9.8-3.3
			C44.4,5.1,46.8,6.2,48.7,8z"/>
		<path id="パス_106" class="st2" d="M18.7,46.4l0.1-5l-4.8,1.4c0.3-2.6,1.3-5.1,3-7.1c3.1-4,9.6-4.3,9.6-4.3s1.4,6.3-1.8,10.4
			C23.3,43.9,21.2,45.5,18.7,46.4z"/>
		<path id="パス_107" class="st2" d="M31.4,67.3l5-6.4L28.8,58c2.1-2.6,6-5.1,10.8-6.4c8-2.2,16.7,3.7,16.7,3.7S51.9,65,43.9,67.2
			C39.1,68.5,34.6,68.4,31.4,67.3z"/>
		<path id="パス_108" class="st2" d="M54.6,84.7l4.7-6.6l4.9,6.4c1.9-2.8,3.2-7.2,3.1-12.1c-0.1-8.3-8.2-14.9-8.2-14.9
			s-8,6.8-7.9,15.1C51.3,77.6,52.6,82,54.6,84.7z"/>
	</g>
</g>
</svg>
