<?xml version="1.0" encoding="utf-8"?>
<!-- Generator: Adobe Illustrator 24.3.0, SVG Export Plug-In . SVG Version: 6.00 Build 0)  -->
<svg version="1.1" id="レイヤー_1" xmlns="http://www.w3.org/2000/svg" xmlns:xlink="http://www.w3.org/1999/xlink" x="0px"
	 y="0px" viewBox="0 0 35 100" style="enable-background:new 0 0 35 100;" xml:space="preserve">
<style type="text/css">
	.st0{fill:#C33333;}
	.st1{fill:#DDCA99;}
	.st2{fill:#FFFFFF;}
</style>
<g>
	<g>
		<rect x="1" y="1" class="st0" width="33" height="98"/>
		<path class="st1" d="M33,2v96H2V2H33 M35,0H0v100h35V0L35,0z"/>
	</g>
	<g>
		<path class="st2" d="M16.8,23.2c0.4-0.5,0.8-1,1.4-1.4c0.2-0.2,0.4-0.3,0.4-0.3c0,0,0,0,0,0c0,0.1-0.1,0.2-0.3,0.4
			c-0.1,0.2-0.4,0.5-0.6,0.8c0.4-0.1,0.8-0.2,1.2-0.2c0.8,0,1.5,0.2,2.1,0.7c0.3,0.3,0.6,0.6,0.6,1.1c0,0.6-0.4,1.4-1.6,2.1
			c-0.6,0.4-1.1,0.5-1.6,0.5c-0.5,0-1-0.2-1.4-0.5c-0.4-0.3-0.6-0.6-0.7-0.9c-0.2,0.9-0.5,1.6-1.2,1.8c-0.1,0-0.3,0.1-0.5,0.1
			c-0.7,0-1.5-0.3-1.8-0.7c-0.1-0.1-0.2-0.3-0.2-0.4c0-0.5,0.8-0.8,1.1-1.1c0.4-0.4,1-0.8,1.5-1.1c0-0.1,0-0.2,0-0.2
			c0.1-0.7,0.1-1.6,0.1-2.6c-0.2,0.1-0.5,0.2-0.7,0.3c-0.4,0.1-0.8,0.2-1.1,0.2c-0.3,0-0.5,0-0.7-0.1c-0.5-0.2-0.7-0.6-0.7-1.1
			c0,0,0-0.1,0-0.1c0-0.1,0-0.2,0.1-0.2c0,0,0.1,0,0.3,0.2c0.2,0.1,0.4,0.2,0.7,0.2c0.4,0,0.7-0.1,1.1-0.3c0.3-0.1,0.7-0.3,1.1-0.5
			c0-0.4,0-0.8,0-1.1c0-0.7-0.4-0.9-0.6-0.9c-0.1,0-0.1,0-0.2,0c-0.1,0-0.1,0-0.2,0c-0.1,0-0.1,0-0.1-0.2c0,0,0-0.1,0-0.2
			c0.1-0.7,0.7-1,1.1-1c0.1,0,0.2,0,0.3,0c0.6,0,1.1,0.3,1.1,1.2c0,0.2,0,0.4,0,0.6s0,0.5,0,0.7c0.2-0.1,0.3-0.2,0.5-0.2
			c0,0,0,0,0,0c0.2,0,0.5,0.2,0.5,0.4c0,0.1,0,0.3-0.2,0.5c-0.2,0.3-0.6,0.5-0.9,0.8c-0.1,1-0.1,2.1-0.2,2.8L16.8,23.2z M14.4,25.7
			c-0.1,0.1-0.1,0.2-0.1,0.3c0,0.2,0.2,0.3,0.4,0.3c0.1,0,0.1,0,0.2,0c0.2-0.1,0.3-0.6,0.4-1.2C14.8,25.3,14.5,25.5,14.4,25.7z
			 M17.1,24.3c0,0.4,0.2,0.7,0.6,1c0.2,0.1,0.5,0.2,0.7,0.2c0.2,0,0.4-0.1,0.6-0.2c0.5-0.4,0.8-0.7,0.8-1c0-0.1,0-0.2-0.1-0.3
			c-0.3-0.3-0.7-0.4-1.2-0.4c-0.4,0-0.7,0.1-1,0.2c-0.1,0-0.2,0.1-0.4,0.2C17.2,24.1,17.1,24.2,17.1,24.3z M23.6,21.7
			c-0.9,0.2-1.9,0.7-2.2,0.8c-0.1,0-0.1,0-0.1,0c0,0,0,0,0,0c0,0,0-0.1,0.1-0.1c0.3-0.3,0.6-0.7,1-1.1c0.3-0.3,0.4-0.5,0.4-0.8
			c0-0.1-0.1-0.3-0.2-0.4c-0.1-0.1-0.3-0.2-0.6-0.2c-0.4,0-0.9,0.1-1.8,0.5c-0.1,0-0.2,0.1-0.3,0.1c0,0,0,0,0,0s0.1-0.1,0.2-0.2
			c0.9-0.8,1.9-1.2,2.8-1.2c0.9,0,1.6,0.4,1.9,1.1c0,0.1,0.1,0.3,0.1,0.5C24.8,21,24.5,21.5,23.6,21.7z"/>
		<path class="st2" d="M20.5,42.9c1.4,1.5,3.4,2,4.7,3.6c0,0,0,0,0,0.1c0,0.3-1.3,0.3-1.8,0.3c-1.7,0-2.5-1.2-3.6-2.5
			c-0.7,0.5-1.8,1.2-2.7,1.2c-0.2,0-0.3,0-0.5-0.1c-0.1,1.3-0.5,2.4-0.8,2.4c0,0-0.1,0-0.1-0.1c-0.4-0.7-0.6-1.5-0.6-2.3
			c0-0.8,0.1-1.6,0.2-2.4c-0.6,0.6-1.3,1.1-2,1.7c-0.6,0.5-1.1,1.1-1.7,1.5c0,0-0.1,0-0.1,0c-0.3,0-0.6-0.7-0.6-1.1
			c0-0.2,0.4-1.1,0.5-1.1c0,0,0.1,0,0.1,0.1l0.1,0.4c0.5-0.2,1-0.5,1.5-0.8c-0.2-0.3-0.5-0.8-0.5-1.2c0-0.8,0.3-1.5,0.3-2.3
			c0-1.2-0.1-1.5-0.1-1.6v-0.1c0-0.1,0-0.1,0-0.1h0c0.7,0.3,0.9,1.1,1.1,1.8c0.4-0.1,0.8-0.4,1.3-0.4h0.1l0-1.1l-1,0.3
			c0,0-0.1,0-0.2,0s-0.1,0-0.2,0l-0.4-0.2c-0.1,0-0.1-0.1-0.1-0.1c0,0,0.3-0.7,1.9-1.3c0-0.1-0.3-0.2-0.6-0.3c0,0-0.1,0-0.1-0.1
			c0,0,0,0,0-0.1l0.4-0.3c-0.9,0.2-1.9,0.7-2.8,1.2c-0.1,0-0.2,0.1-0.3,0.1c-0.2,0-0.4-0.1-0.4-0.3c0-0.1,0.1-0.6,0.3-1.1
			c0.1-0.3,0.9-0.6,0.9-0.6c0.1,0,0.1,0,0.1,0.1v0l-0.1,0.3c1.7-0.8,5.7-2.1,7.5-2.1c2,0,2.6,0.8,2.6,1.2c0,0.2-0.2,0.5-0.4,0.5h0
			c-0.1,0-0.2,0-0.3,0c-0.8,0-1.5-0.2-2.3-0.2c-1.3,0-2.5,0.3-3.8,0.6c0.4,0.2,1,0.5,1,1c0,0-0.1,0.2-0.1,0.3
			c-0.3,1.1-0.3,2.6-0.3,3.6l1-0.3c-0.1-0.1-0.3-0.3-0.5-0.3c0,0,0,0,0-0.1c0-0.1,0.4-0.2,0.8-0.2c0.7,0,1.2,1.1,1.5,1.6
			c0.4-1,0.6-2,0.8-3.1c-0.8,0-1.4,0.7-2.1,1c0,0-0.1,0-0.2,0c-0.1,0-0.1,0-0.2,0c-0.1,0-0.5-0.2-0.5-0.5c0,0,0-0.1,0-0.1l0.1-0.3
			c0-0.1,0.1-0.2,0.3-0.3c1-0.4,2.2-1.2,3.1-1.5c0.1,0,0.1,0,0.2,0c0.2,0,1.2,0.4,1.2,0.9c0,0,0,0.1,0,0.1c-0.1,0.3-0.3,0.5-0.5,0.8
			c-0.1,0.1-0.1,0.2-0.1,0.4L20.5,42.9z M15.4,41.4c-0.4,0.1-1.1,0.7-1.4,1.1l0,0.6l1.4-1L15.4,41.4z M14.8,41.1L14.1,41L14,42
			L14.8,41.1z M16.6,45.1c0.9-0.4,1.8-1.2,2.3-2.1c-0.4-0.7-0.7-1.6-1.3-2.2c-0.1,0.1-1,0.9-1,1.2L16.6,45.1z"/>
		<path class="st2" d="M16,65.1c0.8,0.2,1.6,0.3,2.3,0.3c1.2,0,1.1-1.9,1.1-2.7c0-0.4,0.1-0.9,0.1-1.4c0-0.1,0-0.2,0-0.2
			c-0.3-0.3-0.6-0.4-0.9-0.5c0,0,0,0,0-0.1c0,0,0-0.1,0-0.1l0.2-0.2c-0.5,0.1-1,0.2-1.5,0.3c-1.4,0.4-2.8,0.8-4.2,1.2
			c-0.7,0.2-1.2,0.3-1.7,0.7c0,0,0,0-0.1,0c0,0-0.1,0-0.1-0.1c0-0.2-0.1-0.4-0.1-0.6c0-0.9,0.2-0.9,0.3-0.9h0l0.7,0.2
			c2-0.4,2.6-0.9,3.8-2.6c-1.5-0.2-1.5-0.8-1.5-0.8s0-0.1,0-0.1h0c0.1,0,0.3,0,0.4,0c0.4,0,1.1-0.2,1.5-0.4l0.2-1L16.3,56
			c-0.9,0.4-1.6,0.4-2.1,1.2c-0.2,0.4-0.4,0.8-0.6,1.2c0,0.1-0.1,0.1-0.2,0.1c-0.1,0-0.7-0.5-0.7-1.2c0-0.3,0.6-1.5,0.8-2.1
			c0-0.1,0.1-0.1,0.1-0.1c0.1,0,0.6,0.6,0.8,0.8c0.9-0.5,1.8-0.8,2.7-1.1l-1.6-0.2c0,0,0,0,0,0c0,0,0,0,0-0.1
			c0.4-0.2,0.9-0.2,1.4-0.6c-0.1-0.4-0.3-0.7-0.5-1c0,0,0,0,0,0c0,0,0.1-0.1,0.1-0.1c0.9,0.1,2.2,0.4,2.2,1.4c0,0.1,0,0.1,0,0.2
			c0.2,0,0.4,0,0.6,0c2.9,0,3.1,1.3,3.1,1.4c0,0,0,0,0,0.1c-0.2,0.7-1.3,0.6-1.9,0.6c-0.3,0-0.6,0-0.9,0.1l0.1,0.1c0,0,0,0.1,0,0.1
			c0,0.1,0,0.1-0.1,0.2c-0.5,0.3-1.4,0.7-1.9,0.9c0.3,0,0.5,0,0.8,0c0.8,0,1.8,0,2.1,0.8c0,0,0,0,0,0.1c0,0.1,0,0.1-0.1,0.2
			c-0.5,0.2-1.8,0.4-2.2,0.6c1-0.2,2-0.3,3-0.3c2.3,0,2.6,1.1,2.6,1.1c0,0.2-0.4,0.6-0.9,0.6c-0.8,0-1.8-0.5-2.6-0.5
			c0,1.1,0,2.1,0,3.2c0,0.7,0,1.3,0.1,2c0,0.1,0,0.2,0,0.2c-0.4,0.9-0.9,1.6-1.3,1.6c0,0-0.1,0-0.2,0C18.2,67,16.9,65.7,16,65.1
			C15.9,65.1,15.9,65.1,16,65.1C15.9,65.1,15.9,65.1,16,65.1L16,65.1z M17.3,63.3c0.6,0,1,0.2,1,0.4c0,0.1,0,0.1-0.1,0.2
			c-0.6,0.7-1.6,0.4-2.3,0.7c0,0-0.1,0-0.1,0c-0.3,0-0.5-0.3-0.5-0.5c0,0,0,0,0,0c0-0.1,0-0.2,0.2-0.4c0.4-0.4,0.8-0.9,1.1-1.4
			c-2.5,0.2-1.5,1.9-2.4,2.5c0,0-0.1,0.1-0.2,0.1c-0.2,0-0.6-0.3-0.6-1c0-0.7,0.3-1.7,0.6-2.3c0,0,0,0,0,0c0,0,0.1,0.1,0.6,0.6
			c0.7-0.4,1.6-0.9,2.4-0.9c1.5,0,1.7,0.7,1.7,0.7c0,0,0,0.1,0,0.1C18.6,62.5,17.6,63,17.3,63.3L17.3,63.3z M17.3,58.1
			c-0.2,0.3-0.4,0.5-0.6,0.8c-0.3,0.4-0.8,0.8-1.2,1.2c1.2-0.6,1.9-0.3,3-1.6L17.3,58.1z M17.8,55.9c-0.1,0.2-0.2,0.4-0.2,0.6
			c0.3-0.2,0.8-0.5,1.2-0.5c0.2,0,0.4,0.1,0.6,0.2c0.4-0.2,0.8-0.4,1.1-0.8c-0.3-0.1-0.6-0.2-0.9-0.2c-0.7,0-1.3,0.1-2.3,0.4
			l0.4,0.1C17.8,55.7,17.8,55.8,17.8,55.9L17.8,55.9z"/>
		<path class="st2" d="M19.1,81.2c-0.3,0.5-0.7,0.8-1,0.8c-0.1,0-0.3-0.1-0.4-0.2c0-0.1-0.1-0.1-0.1-0.2c0-0.1,0-0.3,0-0.5
			c0-0.1,0-0.3-0.1-0.5c-0.1-0.5-0.3-0.9-0.4-1.2c-0.5,0.2-1,0.4-1.4,0.7c0,0.7,0.1,1.4,0.2,1.7c0.1,0.5,0.4,0.9,1.4,0.9
			c0.2,0,0.5,0,0.8-0.1c0.5-0.1,0.6-0.1,1.2-0.1c0,0,0,0,0,0c0.6,0,1.4,0.3,1.7,0.5c0.2,0.1,0.2,0.3,0.2,0.4c0,0.3-0.2,0.5-0.6,0.6
			c-0.4,0.1-1.4,0.3-2.4,0.3c-0.2,0-0.4,0-0.6,0c-1.5-0.1-2.5-0.9-2.9-2.4c-0.1-0.3-0.2-0.8-0.3-1.3c-0.5,0.3-0.8,0.4-1,0.5
			c-0.3,0.1-0.6,0.2-1,0.2c-1,0-1.9-0.7-2.1-1.2c0-0.1-0.1-0.3-0.1-0.3c0-0.2,0.1-0.3,0.2-0.3c0.1,0,0.2,0.1,0.2,0.2
			c0,0.2,0.3,0.2,0.7,0.2c0.3,0,0.8,0,1.2-0.2c0.4-0.1,0.9-0.3,1.6-0.5c0-0.4-0.1-0.8-0.1-1.1c0-0.1,0-0.3,0-0.4
			c0-0.7,0.5-1.1,1.1-1.3c0.1,0,0.3-0.1,0.4-0.1c0.4,0,0.7,0.4,0.9,1.1c0,0.2,0.2,0.5,0.4,0.8c0.7-0.3,1.4-0.5,2.1-0.7
			c0.1-0.5,0.2-1.1,0.2-1.7c0-0.6-0.1-1-0.4-1.1c-0.1,0-0.3-0.2-0.3-0.3c0-0.1,0.2-0.2,0.6-0.3c0,0,0.1,0,0.1,0
			c0.4,0,0.8,0.2,1.2,0.7c0.2,0.2,0.3,0.4,0.3,0.7c0,0.4-0.2,0.9-0.4,1.7c0.3-0.1,0.6-0.1,0.9-0.2c0.3,0,0.4-0.1,0.4-0.2
			c0-0.1-0.1-0.2-0.3-0.4c-0.2-0.2-0.4-0.3-0.4-0.4c0,0,0,0,0.1,0c0.1,0,0.3,0.1,0.6,0.2c0.6,0.3,1.4,0.5,1.8,0.7
			c0.6,0.2,0.8,0.7,0.8,1c0,0.3-0.2,0.5-0.5,0.5c-0.1,0-0.2,0-0.4-0.1c-0.5-0.2-1.1-0.3-1.6-0.3c-0.5,0-1.1,0.1-1.7,0.2
			C19.9,79.5,19.6,80.5,19.1,81.2z M16.6,78.5c-0.2-0.2-0.3-0.4-0.4-0.7c0-0.1-0.1-0.1-0.1-0.1c-0.1,0-0.1,0.1-0.1,0.2
			c-0.1,0.3-0.1,0.6-0.1,0.9C16,78.7,16.3,78.6,16.6,78.5z M17.6,79.2c0.2,0.2,0.3,0.4,0.5,0.5c0,0,0.1,0.1,0.2,0.1
			c0.1,0,0.1,0,0.2-0.1c0.1-0.2,0.2-0.5,0.3-0.9C18.4,78.9,18,79.1,17.6,79.2z"/>
	</g>
</g>
</svg>
